<mxfile modified="2021-04-27T14:38:53.241Z" host="app.diagrams.net" agent="5.0 (Macintosh; Intel Mac OS X 10_14_4) AppleWebKit/537.36 (KHTML, like Gecko) Chrome/90.0.4430.85 Safari/537.36 Edg/90.0.818.46" etag="V6N9cR8t1nAU3gsbPyG8" version="14.6.6" type="github">
  <diagram id="d1ab7348-05c3-a1e3-ca4d-12c340fd6b49" name="Page-1">
    <mxGraphModel dx="1188" dy="572" grid="1" gridSize="10" guides="1" tooltips="1" connect="1" arrows="1" fold="1" page="1" pageScale="1" pageWidth="1169" pageHeight="827" background="#ffffff" math="0" shadow="0">
      <root>
        <mxCell id="0" />
        <mxCell id="1" parent="0" />
        <mxCell id="2" value="" style="fillColor=#fff2cc;strokeColor=#d6b656;shadow=0;fontSize=14;align=left;spacing=10;9E9E9E;verticalAlign=top;spacingTop=-4;fontStyle=0;spacingLeft=40;html=1;dashed=1;" parent="1" vertex="1">
          <mxGeometry x="477" y="311.5" width="130" height="91.5" as="geometry" />
        </mxCell>
        <mxCell id="TqXny-_5BSrygHNTVk7L-177" value="" style="shape=image;verticalLabelPosition=bottom;labelBackgroundColor=#ffffff;verticalAlign=top;aspect=fixed;imageAspect=0;image=data:image/png,iVBORw0KGgoAAAANSUhEUgAAASwAAAEsCAYAAAB5fY51AAAgAElEQVR4Xu1deZwcVbX+TvVMNhIgCIjsSaarg0lmqhJkFQi7YaYqgIA7iCKooCiKC+48AVFc0KcoKCL6cAkKVE0Sw2ZAIyIkVTNJIF09ScAkCAQMJJCEzHSd96vJ4sxkZrq6u6q7ltv/hB997jnn+87tb2q591yC+AgGBAOCgZgwQDHJU6QpGBAMCAYgBEtMgiEZeP6M5j02ZTBeGsHji9wwnpjHMzCewONdor0IGAOmUQweDWAUEUYBGM1M3r8g4q0AtjDD+3crgbaAeCsDmyXmVxm0gYANTLQhQz0b3G20YVwRGw64v/N1URbBwGAMCMFK8bzgmWjoGj31MGQykxjSRBBPAtFEZkwC8UQCjasLPYyNIF4FppXb/+WVkKSV6OlZlR2z9Fmag2Jd8hJB686AEKy6lyD8BBiQVrUpk3rAU0mSpjLzVCJMZSaZCA3hZxBcBAa6iTkPomVgXkbAMvT0LGuav2wVARxcJOEpigwIwYpiVarMqTBL3c/NuKcQSccDOB6E6VW6jP5wxlYGLwXwNwItGun2PHzY3KUbop+4yLAcBoRglcNWRG1X6OqBGbinuKATAZxEIDmiqdYuLWbvauspBh4B86NSUXo4O99aX7sERKQwGBCCFQarIfsszGoaCWmPmZyhWQzMEgLlk3DmZSDMl8DzJ61r+BstXtztc6QwiwgDQrAiUohSaazQmicQUSuYZhHRyd7buFJjxPdDM8DgTQQ8yMB8uDwv196xTvAVfQaEYEW4RitnT5vW40rnEeidIJoS4VSTkNpiYtyNnu452fnLViYBUBIxCMGKWFULWvN0QHqnS/CESjyLqkN9mNFB5N6dcen3k9rtQh1SECGHYEAIVgSmxqqz1MN6JHyYid9PRBMikJJIYQcDDCwF8+9GFLtvnzBv+fOCmPoyIASrTvy/OHPK2A17Nr4HwEUE8pYfiE+kGWAXjAcBuqNx04Z7Jix8xlu9Lz41ZkAIVo0Jd2arp4H5UoDOr3FoES4gBpj5dQLmMPMtufaOfwbkVrjxwYAQLB8kVWvibYFxxqrvJeKrQTS1Wn9ifHQYYPAiCfTtJsMyxUr78OsiBCtEjr3bvlfGNX4UhCsBOjjEUMJ1nRlgxgoJuGnbqG2/njJn+bY6p5PY8EKwQijtKn3qm3u44QtM+HDdNhCHgEu4LM0AM54n8Hep57Vbs/O7NpYeISzKYUAIVjlslbDNazP2ldDzBSbp42JhZ4DExtAVM/8HhJvGcebmA83Fm2MIIZIpC8EKoCxrzpyyz+YRI64G+BNEtEcALoWLpDDAvJ6Jbhwzcv1PDpmzdktSYNULhxCsKphffbayd3cPXcXEVwmh+i+RvQsvwUsYmE1E+1RBcXKGMq8H6H9k0/pRckDVHokQrAo5d7SWyxh0vfhB9iPwTwBulg3r0a5W5Tg3Q4sqpDexw5jxLJg/nmu35yUWZIjAhGCVSe4qfWpzDzf+DIRjyhyaWHNmdJJL75bnLnl6J8i8riwi0HGJBV01ML5Hop4rm+5btqZqVylyIATLZ7ELs5r25Max1wJ0pc8hKTHju2XD7rcItqt12gw30/BkSgioCiaDr8kZ9g1VOUnRYCFYPortaOp7AP4+iN7swzw9Jsx3yKZ98UDAjqZ4XH0qPURUh5TBjuTismy7vbA6T8kfLQRrmBqvPls5fJuL2wm9/afEpw8DDNyZM6yLBiPF0ZTnhbhXMF2Y72Bkrs6Zi1+qYHQqhgjBGqLMjq5+BcC1qZgFZYPc/TZwpwundfoRyPBTZbsUA3YwwK/A5avk9o5fCkp2Z0AI1gBOunTl+CLwCwLlxIQZlIE1LjZPmWzkNw32bUFv+RBD+oXgrmoG/prpcS+ZNK/DqdpTghwIwdpRTO+hutsw9rtEdEmC6hs4FGb3hJzZ8behHDu6+j8Avhx44LQ6ZP6ybNrXpRX+QNxCsADkW5tPIEn6LYgOEhNjGAYYP5JN65PDceRoys9AdKngMUgG2JIgXdBkLOkK0mscfaVesMQbLZ/TlnndWGTkUvvi8pryayJ6v0+vwqwcBlxcKbdbPyxnSNJsUytYzlmKggzdBcIRSStqKHiYL5ZN+45SvvO6ciuBPlLKTnxfGQPMeKiRut830Vj2QmUe4j0qlYJV0FSv9YtYrOd37jIvl03bV+PBvKZ8j4g+7de1sKuIgVeJ+aKsad9X0egYD0qVYD2nzRjzGoq/B1FbjGtW89QJfEHWsOf4CVzQWj7NJH3Pj62wqYIB72RrouuyhvXVNHU6TY1grdSmHNpDjfeL5Qpl/0i6ZMPK+h1VaGvWWMoYfu2FXdUMLHCx+fyhlplU7T1iDlIhWIW2ljNYkv4AYK+I8R/5dAj4eNawbvGb6Mo2JVuUSKwd8ktYAHYMzkvdPa1pOAA28YJV0Fo+z0TXAyQFMDfS5YL5jbHI7FPqzeBAUvK6+hIBb0oXWXVGy9hI7J6fbe+4v86ZhBo+0YLlaMpdIPLO/hOfihjg/5MNu+wlCo6u/AmgcyoKKQZVyQB/Xjbsb1fpJLLDEylYa8+Z/KbNPaNNEI6NLPMxSIyA2VnDKvt5VF5vuYIgic6a9arxEF006pVOkHETJ1ir9OZcDzIPADgkSKJS6GtLdp20Fy1e3F0udqd12kRkGlaWO07YB8cAg/8+QkLrhHvtV4LzWn9PiRKsfJt6KiS+l0Bj609t3DPgubJhV7z8I68reQLJcWchzvkz+Bmpu+e0JD2MT4xg5duUy0mi/43zBItW7tU9C3E09VsgfD5amFKZzatcLGq5uZ1/TQL6RAiW06ZcDYkS+6CxHhNNKvLxTXPtv1cae+XsadOK3NBZ6XgxLkAGGJslFLUms/PhAL3WxVXsBUs02gtn3jRu3DB6wsJntlbj3dGUpSDytaWnmjg+x77qHW5KRBN82ifLjLFVouI5TUbnn+MMLNaCldeV6wn0xTgXIIq5M7A0Z1jN1eaW19XPEHBTtX6qHs+8XiJ+lwsp9lcY1XJBblHPtnea1fqp1/jYClZBa7mJSfpMvYhLdFzm38qm/d5qMRZmqftxI16s1k9V45nXUU/PSdzQcA6IvlOVr4QMZtc9N9fecU8c4cRSsAq6+iMGrogj4XHImcE35Az7miByzWvKPUR0dhC+KvHBLpRcu9XhaOrfxbq8PgwyzpNN64+VcFrPMbETrLzW8g0i6av1JC35sfky2bBvDQKnoyutALUH4atcH+y67861d/z+xZlTxr6y54hBe9CX6zNZ9nyGbNjemsXYfGIlWE6b+klIuDk27MY0UWL3wqzZ8eug0s/r6joCDgzKnx8/xO53s2bHZz3bLk2d5RLE0fADiWNsJhRPzZqd//DDaRRsYiNYeV19NwG/jQJpSc+BXVyUa7fuDApnra+KmbFCHmVNpTkoehhqHT8o3mrjh18houOz91mxOJotFoJV0FWdgdR1V6zNhN09StCCVZjVfDA3ZtbUCs/O51Y74zm66j2rObdW8WMXh3k99fQcG4cV8ZEXLG+7DUl4MHaTIMYJ73z2EyQER1faAWoN0ucQvr4qG5Z31Niuj9gmVJp1bxvPiJ7uYyfMW/58aev6WURasApayxQX9DgR7VE/itIXmZnPyZn2vUEiL2jKbCYK1Ocg14ZrsxvtCbQQPQME6w0CjQgSTxJ9eevvxrF0TLn9z2rJRWQF65kzj3jLthEjLRC9uZaEiFgAFd13ZOd2LAiSCwbI2f7w/S1B+u3ri8EfzBn2r/r+v94+/uS+HlbM5PnlB7Mb7VkDRT8qOCMpWM+2Thu/VWr4OxEmR4WoeuXBjPlE8LqlnlnDHE6SDevRoOM5beq1kPCVoP16/rw2wTnD3m2+1Pr5WRjYau2TgTtzhnVRreP6iRc5wVo98/BR2/bc+yECHecHQPJt+GbZsD+1QmueQMjcQIR3hY2ZmY/KmfYTQcdZdZZ6WE8Dngna73Z/7jtlo+NPA317vEmUWRVOzER7/aZsWKH8camGtcgJlnij07+czLw6Z9oTd/7fgtZyAZPkHWg6uprCDzu22DNJnrs0lB95XlfnE/COgHNfKRtW02A+RTPBypkmxiVZ0/pF5R6CHxkpwSpoynVMFMiWkOCpqp/HBhQnTzQ68zsz6D21ugELANo/jKzGsrRHWA9eHb3lXEAKdEsIu3xFrt3+8WBciCus6mYIuXxytt1eWJ2X4EZHRrDybS3nkCTtdkkfHNT4emK4n8gZHf2aEzqzm48GZwJfoczgTTnD3jNMthxdeSE4seVXxnLmoKEENq/N2JfIXR8mnkT7Zt4gST0tTfctq9k6uuH4jIRgOa3Tj4DES0AYlejiVwiOwT/OGfZum70LmvphJvy8QrdDDSvr4NRKYgd5nH3fLThD5eLoKleSpxizkwG2Gje+cly1/dGC4LPuglWY1bSn2zDWTm1jNR9VZOZ5OdMedNGlo6veDgDdhxtfJsz8t5xpn+DLuEKj7be0ZFU4vP+wIr1Vnrvk6eF8OZr6KgihXjUGgiXCTpjx65xpXVjvFOsuWHlNnUeEWfUmIsrxh3pl7+XcdU7z/m5RygO0dzAYeI5s2BcE42toL46mPgXCEdXEYeDJnGG9rZQPR1eWA/TWUnbi++EZGO5ZYa24q6tg5XXl6wT6Wq3AxjjOFtmwxgyVf5AHcDDjWznTCr2Lq6MrnwPoxqpqwvikbFolzz+s4bagquDEYjAVj5Hv63y8XrnWTbDyrc0nUCYT+OLEehEZdlzZsIatVVD902v1Kjvf1nIQSdLaangbWezZ57C5SzeU8uFoLTeDpE+WshPf+2JgjYvNUyYb+br0F6uLYO1oqOa1sxCHnfqZI4ytsmkNu+4qqOUCxJiZNa1H/KRVrY2jKfeD6PTK/PCDsmH7GlvQlEuY6LbK4ohRuzNQm8cGgzFfF8FyNPVuEN4ppoJPBhibZdMquQHc0ZRlIJri0+ugZuy6B+faO9ZV48Pv2IKuvI9Bv/Fr39eO2L0qa3Z838/Ygt6iMqQlfmyFjT8GCO4HskZHRbXzF2Fwq5oLlqMpHwTRL6tJOoVjX5UNq+RD9YLW8gEmqeLGe8z8es60a3Zq9o5tWC8SaFy5Nc24LE9qtwt+xzm6ujnU3QF+E0mInbdeb4SE5gn32iFttYqAYHXp05tc5g4QhnyAnJB6BguDuSCbdslj33cIwHoCVSQ6zOjImZYSbPLDe8tr6s+J8OFyYg7cruRnbF5THyLCKX5shY1PBhiPyaZV0z2/Nb3CcjTlcRAd5ZMOYbaDAWY8lDOt0/wQ4mjKz0B0qR/bgTb1WGtT0NSTmFDe1g/Gj2TTKushujhwt5IZ4WMM85dl077Oh2UgJjUTrIKmfIqJfD1zCARZgpww4xc507rED6SuVuU4N0OL/NgOtCnnuVAl/oca4+jKGoAO9uuzkgaD1fDiN6+02pV7e14NTzURrBW6eqAEdIlnCJWVihhfy5rWtX5HO7r6r0rewNbyDWFfLI6ufBugq33hY+axyIytZHO2o6uvANjLVxxh5J+BGt4a1kSwqnt97Z+3pFqSi/Oz7dbdfvE5mvotED7v136nXePGDaPrsV8s36a2kATbX75syYY93Z9tf6u8pv6uFv3EKskt/mOCO8tyOC5CF6xqXl3Hv4jBIJCo+9Bydst3tU6b4WYaniwzeuibnofLx++SDD+bnYeKI46KK3NGlGHe+9awp1sO+xCLUAWrMEvdz23gFUS0TxnYhWkfBhh4OWdY+5ZLiqMp/wHReL/jmPkPOdMOvZvpUPn4vS0kt6hn2ztNv7j62q3Qc+MkjNlYyVgxxhcDf5INK9T1laEKlqMpt4PoYl9QhdEQDPBc2bDbyqXH0ZU/AHS+33H1euC+M78uvfkdLjLzS+XLLO2XMxe/VMpuaGEMtrtFpXkkdZzEOKvJtErWsVL8oQlWQWuezpRZXGliYtwOBip8bZzXlY8Q6Fa/PDagu2WisazTr33Qdju2a5XanzZkK2S/+RR05XwG/cGvvbArjwEGOznDzpU3yr91aILl6Mo/ADrafyrCcjAG2HWPzrV3/LNcdrwzHZmkZT7H+VpJ79NXxWaOpj4GwjFDOmD+rWza7604gHe6zkw0FPZU1gfXjqeabBI61sWVcrv1wzDQhSJY4q9YMKVi5v/kTPtNlXrL68omX6veme+STft9lcYJapyjKz8A6MqhBctfO5lS+eR19bsEXFXKTnxfGQPevB3lFpv8dNIoN0IoguVo6rMgHFpuMsJ+AANVComjKw8AVHqFPPPFsml7J/HU9VOqqwJx8dis2Vl1H/uu2VMPcbnRW6smPmExwPwD2bQ/HbT7wAUrrytfJND1QSeaRn/s4qJcu1XxZua8rlxPoJLN+FzgoMmG9Vy9OS60qceyhL8PlceeW4tjD7i/M5BTnMt9KVFvbuIYP9Pj5ibN63CCzD1Qwdrerjfj7d4O78y8INFH3FfVb8Q09T0g3DUsTMbTsmlFon3wsA/emVfJpj0pqJKt1NUji0Dgh8UGlV8S/DDzfTnTPjtILIEKVkFruYlJ+kyQCabWF/NC2bRPrgb/ytnTphW5Ydg3fwT+etawv1FNnCDH5jX1GSIcNtAnM9+bM+1zgozl6KrXqPDEIH0KX/0ZIC7OyJqdgfUiC0yw1pw5ZZ8tI0asE0d1BTRlA3jTsvz8KSMa3xjh9YHKDJWVy8WJk83O1QFlXbUbR1P+AqKZgzgK/Oj0fFvLUSRJdetPXjVZcXDA3C6bthZUqoEJlnjzElRJtvsJ6rlSXlfyBBqil1bl+/KCRftfb46u3AHQRQP9E7vvypodga+fymvqnUT4QFh4hF8gyKusQATL24LDDfiXuLoKaHoy/1M27UDWsOU1ZS4RnTVoZi5/Tm63vxNQ1oG4GeokJXah5NqtjkCC9HHyzJlHvGXbiFGrxNwNmtl+/gzZsGYHESEQwQryJN8gQMXdBwOfyRnW94LAkdeV/yXQ5YP5ou7iIdn5nVWdXBNEjn19OG0tF0OSbh/odyxLe1TSUsZPfk6bei0kfMWPrbCpjIGgrrKqFqwdbwZfqAyGGDUYA0HdDnq+C1rLp5mk3cWP+RHZtAd7VlTXonRpzae4lHloQBJrZMMKbV3fc9qMMZvgriTCAXUFn+zggVxlVS1Yjq7cCNDnks117dCV0w7ZT1b5tpZzSJL+NNCWmM/OmrZ3zH2kPnlt2mSihn5HzzPj4ZxpnRpmogW95UMM6Rdhxki7b2J3atbsWF4ND1UJ1o52HWtEF8dqSjBgrOt+SG7vCOxUoS5dOd4F/a1vFAbnc4Y9OcCsA3P1bOu08W9kGv7TzyHjZ7JpfTSwIEM4ymuqTYSWsOOk1z//SjbsD1aDvyrByuvqZwi4qZoExNj+DFD3pr2y87sC69m0Sm/O9SCzYoBgXZoz7MgeLOroKg/I95qcYd8Q9lzp0ltOdiE9HHacNPuv9nFHtYL1HAFvSXMBAsVe5d7BwXLpXR83csTLO79jxks509ov0LwDdrZbT3rGe2XT+m3AYQZ152iqAUJg64ZqkXO8YvC3ZcMuu333TowVC1a+Tb2QJPwqXmRFO1ty3TOz7R33B52loykuiLbXusL+WkHnNJw/R1e99s4zdtpI4Lc3GXZFJwGVm/f2K1LpKYCkcscK+9IMeK2Ux2/sPnD/hctfK229u0XFguW3B3clSaVzDK+VDfuQMLA7mvIiiLyrqjV7bi0eEdQG4jBy9Xw6utIOUOuuv6o1Xn6R15RfE9H7w8KXdr/VLNupSLAcXTkdoMCvBNJcSGK+PmvaXwqDA0dTHBBlqei+Izu3Y0EYMYL06eiq97buQzt9yoZV0TytNKcVWvMEiTKrKh0vxpVioPI/zhVNBEdX5gB0Xqm0xPf+GaDu7qbs/GUr/Y/wb+l18mRwV860Y7EFpV9bHOZ1smn7PmTVPyvDWzq6eguA0N9MBpVv3Pywy625dnteuXmXLVh5bca+RO76cgMJ+6EZYOYncqZ9VFgcebc4Y7Z1X3nIguX9lwuEFbBKv31PCQ+bm6FS7d2yM3JU3XuEVUllhIfzPbJhn1tugmULltOmXA2Jvl1uIGE/DAMcTOvfoSJ4ez2z863Y/JFx+vTxCqOnkt+5mNeVWwn0Eb/2wq48BhrQfcBEY1lZu2TKFyxd9Y6cD6yRWnkQk2lN3dg/ToISdhUGbM/5qWxYHws75mD+V57VIhcbpHw9YqchJrH7hazZcWM5WMsSLEdXvWZnXtMz8QmKgYD7BQWVVj39OK3Tj0CGn/JyqHeDQbEuK9SZUPZp42UJlugdFHzx2HXfnWvv+H3wnuPrse/2HAI+njUs7wF4XT7ij3S4tBNjZta0fF8E+RYsnwddhosued63jB65/k2HzFm7JXnQqkO0c3sOuTg/227dXZ236kYPXMhanTcxuh8DzHfIpu37dHjfgiVWtocw0ULYihNClnVxufOoOHL55Gy7vbAuSewI6rSpH4WEul3l1RN72LG9le/yusybaPHibj+x/AvWcJ0r/UQSNrsxUOlalDRQuesU6CK9VZ67pF+7mVrjX322sne3SxtqHTct8Zj5nJxp3+sHry/B2lGwl4Y7zMBPMGHThwHmDVnT3pd627eLz0AGdi5ObuzZ9pYJ85Y/X2+G8ppyLxEF0ua33liiFp8Zv8+Z1rv95OVLsBxduRSgn/lxKGz8McDg23KGfak/6/RZ7WwMWettOUMx7egt5wLSH9NXiZog3rLn1uJ+fva4+hOsoY9eqgmaRAZhV5PNjvZEYgsAVL5NuZwk/FA27CGPKAsgjG8XPBMNzp7KBgKN9T1IGPpmgIH35Azrd6UGlBSs7Sfi8Au72pOU8ii+98PAluw6aS+/Dxr9OEyajaMrrWD8QjbtyPRZd3TV68nl69YlafUIG4/fg3JLCpZ4QxJGqSrbRxVGJlH16S0e5Yx7T5RaOed15SIC3RFVzuKel5/b/9KCpaveQQV63MmIVP4B922PFLaAkmFAKujKk7JhTw/IZdVueu82GvFi1Y6Eg0EZkFCc1WR0/nk4ekoKVl5TXiOiPQTHwTHALO2XMxd7b13FZxgGHF35iWzYH48SSY6uLAforVHKKTm58M2yYX+qYsFyZqungfFAcgiJAhK2ZcNWo5BJ1HNwNOWDsmlH6hbM0ZTvg2jYH1XUeY1qfgx2coadq1iwClrLTUzSZ6IKMJ558XdkwxbnOPoonndGYc5c2u/EHx/DQjVxtJY2kGSGGiTFzhslnjDhXvuZoSgY9pZQXP4GP3Pi0qY4eOTJ8LhCVw+UgHXJQBM9FKU2uw8pWKLjYvDFZEZPz6hte0yZs3xb8N6Fx1oxkNeUl4lon1rFS1WcEu2WhhQs8Qo3hGnCvFA27ZND8Cxc1pCBvKY+RIRTahgyNaG8zdA5w96z7FvCvKbcRkSXpIapGgBl8A05w76mBqFEiBAZEA/eQyQXQAO6WyYayzoHizLkFZajqU+BcES4qaXLO7vuubn2jnvShTp5aL23lyD6ZfKQRQSRi4/J7dZPfQtW346PEYGQiDTYdQ/OtXeIB7Yxr2ZX67QZbqbBO51afEJggIE7c4Z1kW/B6t3HBRIbcwMsBjNeypmWd/qy+MScgVX61Df3oLHuLW9iTuNw6a+UDavJt2AVNOU6JhLPWoKdEYZsWKKfUrCc1s1bXle3EdBYtwQSHnhMZsu+B9+z4uWBMAd9huVoykIQnZRwTmoKL8yj6GsKRATrZcDR1X8BOETQEQ4DQ3UhHUKw1NdBGBNOKin1ynxx1LaZpLQSgcB2NPXvIBwbiDPhZDcGhnqjvptgrWxTskWJHMFhsAyUe5xRsNGFt6AZcHTV6z5a9lHrQeeRXH88VzbstpK3hIU29TyWMCe5RNQHGXUXD8nO71xbn+giatAMFHT1RwxcEbRf4W8XA2tkwzq0pGA5beq1kPAVQVyADDC/IZv2qAA9Cld1ZiCvtXyDSPpqndNIdPixLO1xoLl4c1+Qu90S5jXlHiI6O9FM1Boc8yrZtCfVOqyIFx4Djq58DqAbw4sgPHOxeGJubudfhxcsXVlNoMMFXcExwOB8lFr9BocsvZ4cTf0ECD9MLwPhI2e4n8gZHf87pGCtOf/g0Vve2K/fJVj4aaUgAvMy2bSnpQBpaiAWNOUSJrotNYDrAZT5Vtm0LxtSsLpalePcDC2qR26JjslYIpvWjERjTBk4R1PfA8JdKYNdU7gM/nvOsI8fUrAKWssHmKQ7a5pVGoIx/1M27aPTADUtGPOacjYRiY3sYRac+YWBx7z1e+ju6Kr3dvDaMHNIo28GL8oZ9tvTiD2pmB1dOR2g+5OKLyq4Ro9cP+aQOWu37Mynn2DldfVXBFwYlWQTlMdi2bCOTBCe1EMRglWbKUCEKdn7rKcGFSxHVx8FcEJtUklPFPGWMHm1dvSWcwHJW+0uPqEywG2yYc8dXLA0ZS2IDgo1fhqdM6+TTfvgNEJPKuZ8m3ohSfhVUvFFBhfjk7Jp/Wg3wdp+0q5ajEyiyUrkVdmw9k4WpHSjybcpl5NE/dYIpZuRcNAz8/dzpn3VboIlNj2HQ/hOr7JhlTxlO9wMhPcgGShoLZ9nkr4VpE/ha1AG/iQb1jt3EyxHV08E8IggLRwGXOCgyYb1XDjehddaM+Doyg8AurLWcdMWb+BarF1/9cVDxNCnwkmyYXkvNcQnAQw4mmqAoCUASqQhDDy+vo9gKZcC9LNIZx/j5Ajuh7NGx+0xhiBS78OAoynLQDRFkBIuAwy8nDOsfXe7JcxryjVEdF244dPrXZxJmKzaO5qyFUQjk4UqimjYzRp2AwHsZbfrCqugtdzEJH0miiknIyeeIxv2BcnAkm4Uq8+ackB3w4h/p5uF2qEfWezZ57C5Szf0EyxHV+4AaNCzwGqXWnIjMfPqnGlPTC7C9CDr0ltOdiE9nB7E9UUqgbJNxpKufoKV15S5RHRWfVNLdnTxpm9/CC0AABxMSURBVDAZ9S3oytcY9PVkoIk+CnJxXLbdemzAFZbqLWnwljaIT0gMkIvzs+3W3SG5F25rxEBeUx8kwqk1Cpf6MOxya67dnicEq+ZTgW+WDftTNQ8rAgbGAJ+PTGGr+hoIokd/YKwO74iB9+QM63f9bwl15WECnVyjHNIaRnRtiHnlndnNR4Mz/4g5jFilT8wfyZr2zwc8w1IfIsIpsUISw2Qb0H3ARGPZCzFMXaQMQJyWU/tpwMBnc4b13QG3hMoDAJ1W+3TSFZHYvSprdnw/XaiTg9bRleUAvTU5iKKPhMHfyBl270uO/65015QFIDoj+unHPEPGP2TTEkecx7CMhVlTJ3FjY+/rdfGpHQMMfC9nWL1rRHcJVl5X5xPwjtqlkd5IEnUf2nTfsjXpZSCeyEUL8frUjZl/njPtjwy8JWwHqLU+KaUsqsufk9vt76QMdezhOpqyFERTYw8kfgB+JxvWewYK1p8AOid+WOKYMa/NGvahO/dHxRFB2nLOt7UcRZL0eNpwRwTvrp5Y/70l1NTfEeFdEUkw8Wn0XVuSeLAJACi2rtWxiMy/lU37vf2fYWnqnUT4QB3TSllotmXDVlMGOpZwV+i5cRKPXi+6M9SpfMx3yKZ98QDBUm4jokvqlFIqw3KxeGJubudfUwk+RqAdTfksiMQzx3rVjPEz2bQ+2l+wdOV/CXR5vXJKZVzmB2TTFktJIl78vK6sJtDhEU8zuemx+0PZ7OhtR93nGZbyPSL6dHJRRxOZxMVTm8xO0aokmuVBXm+5giDtOmYqomkmPC3+jmzYn+snWI6mfguEzycceeTgMbA0Z1jNkUtMJIQ15x88esvWfdeBaLygo64MfFM2rK/0E6yCpn6VCd+oa1ohBmfwJgJ+Q6AiM04F4YgQw5XlWrSdKYuumhkXNOU6JrqmZgHLCMTMTxDhSQA2M32DCAeUMTxWpgy+JmfYNwy8wvoECD+MFZIyk21AcfJEozPvDVtz5pR9toxsPA+MGSCaXOdeYF2yYWXLhCPMQ2Qg39ZyEEnS2hBD+HfN+EevODFsLvJieZ5t7xy8Sm/O9SCzwr+zGFq6+Jjcbv20v2C1Ke+FRP8XQzi+U+67iXKwQYU2ZSYknOQynQDwMUS0h2/nVRoS8/VZ0/5SlW7E8IAYqNMxXluYeTGBLICXNFDPkonGss7hIKXhQNe+dyD/PYSireUMlqQFAdU7qm5WyobV5De5gtY8nZE5nglHEvjIsHfpE9zpWaPD8pufsAuHgVqc0cng1wi0hIEnJbgWGFbW7FheLiJHUx8D4Zhyx8XJnlw+OdtuL+x3hbVSV48sAk/ECUglufbtD13u+N4FhDTmaHb5KCIcyaCjCTiwXD9D24vFpMFxWZmnHYtECyB6c2UeBhnF2OgJE4GXEPgJqQh70rwOp1r/Tuu0icg0rKzWT9THZ6inedJ9S5f2E6wVWvMEiTKrop581fkx3yqb9mVV+9nhoOuc5v3dHjqKQMcycCQTjiXQuMr9u1+RjY5vVj5ejKyGAUdTfwpC5fOD2TuO6kmAlgB4gnq67ez8ZaGISl5Xvk6gr1WDNw5jR7yx9cDDFzzde6zarlvC3r8sGLMxDgCqyZGZXx+/qfuA/Rcuf60aP8ONLWgt3onA0z0BA0ne9psTyonF7J6QMzv+Vs4YYVs9A12aOssl9B524OfDjOcBWBLx467LnSMayJpwr/2Mn7FB2DiashZEBwXhK8o+ZMPapVO7/sNL2NHV3tNVE/9h96Oy2fGzWuLMa8rbQHQiAacz+Lhhr8KY1zEySs5c/FItc0xzrMKs5oO5QeosseZqMTM/ToxFrkQLJxvWc/XirKCrOgP31St+zeIyNsqmtdfOeP0FS1OfBeHQmiVTr0CMp2XTqmub25Wzp03r4cx0YihMaAHTNCLsu4sSsW2nprMjryuLCHTczqA71u09xaBFUtG9f9SYlx89ZM7aLTVNaphgaTlqjMH5nGF7y456PwMES1kIopOiUpRw8+AzZMN+INwY5Xn31oa9MbKhpQg6hpiOZeYFuXb7x+V5EdblMuDoirft40QwHpPgPtZDmRX1vHoqlX9Xa/NUN5PpfQidgs8C2bB2dULuJ1j5VLWY4bmyYbeloOACYsIYcHTlNwC9L2GwhoLzU9mwPjboFVbajjDK9Li5IF4vp2TiCJgRYGDVWephPQ2o2YP9ukMe0E683xVWQW/5EEP6Rd2TrFUCfRqD1SqkiCMYqIaBqpddVBO8DmOJ3XdlzY4/DHqF1aW3nOxCSlWrE5eLEyebnavrUAsRUjBQFgMrtSmHFmnEs2UNirlxBnjbJMPyNnn3fvpdYaVm8WifIjLzb3KmLVpDx3xipyH9tF1deTVllvbru7ynn2B5BqlZi9VnhhMXZ2TNTm9lsvgIBiLJQFq24fQl31takjPsPfv+v90FS1OWgchbqZ2aj9dbKGfaR6UGsAAaOwYcTbkLRL1n86Xmw3hMNq1da+N2uyXsvcLSlP8DUe+ROmn6MPiDOcP+VZowC6zxYCDfpraQhF09sOKRdSBZ9lvSMKhgFTT1C0zo7e6Xqg/z+r03dU8Mc49hqvgUYANjYOAq/MAcR9wRMV+eNe2f9E1zt1vCfJtyFkk0N+JYQkmPmb+fM+2rQnEunAoGKmDAaWu5GJJ0ewVDYz9EAr+9ybAXlRCsCLWGrQPlUrE4rWlu57I6hBYhBQP9GHi2ddr4rVKD02+PaYo4crF5z8lGftOwguV9mdeU12rZHjhKNWDwopxhvz1KOYlc0smAo6veIu4PpRE9M6/OmfbEgdh3uyX0DBxN+QuIZqaRKA8zMX8ka9o/Tyt+gbv+DBQ09SQm9LYFTuOHme/NmfY5/gRLV74N0NVpJMrD7PXbZlAuyjv201qbNODmGTManYOKTppPm+57tJefW8KzieieNEyOoTAy+C85wz4lzRwI7PVhIK+JU9gBnCQb1qO+rrDWnjP5TZuLo1Pf7XIola/PNBZR08BAvk09lSQ8mAasQ14sMHqknk1js/O73vAlWL3PsXS1C8CkNBMHsMuMY3KmnfjThNJd52ig9y4UXu8ZvSKtbwV3VYH5n7JpHz1YVQZ96O4ZpquZ37ATds2YzBb14HtWvByNaS2ySCoDjq48ANBpScXnF9dw6yGHFKyCrn6MgX6rTP0GTJqdeJ6VtIpGD09eU28gwheil1ntM+p70rPvW8JV+tTmHjR21D7daEYUz7OiWZckZOVo6jtBuDsJWILA0PccQt+C1XtbqKsvEfCmIJJIiI9B31wkBJuAUQcGeg+UkDJPgDCqDuEjF3LgKTllCVZaOzcMWUXmF6QGt7npns4XI1dpkVDsGFh9trJ3t0udAA6JXfJhJcz8A9m0Pz2U+yGfYXkDCrryPgb9JqzcYur3UdmwUnIUWkwrFJO0076jZPAyDX/83rCClddm7EsovgiiYe1iMj+CS5PxI9m0PhmcQ+EpbQzkNeU2IrokbbiHw8vgbfK6zFhavLi7oiusHc+xniDgSEFsfwbYxUW5dutOwYtgoFwGHF25EqAflDsu8fbM7bJpa8PhLHnl5Ojq/wD4cuLJKhMgA91gPl4sKi2TuJSbd2nqLJe4HSAp5VTsBn+whn0DjUoKVlercpyboX5NtATR2xlg4GUq9hwlz126SnAiGCjFQEFvURmS91saXco2jd8Pt5xhJx8lBcszdHTlBYD2TyOJpTAz2DuFV/SCL0WU+N5rXHSFWCY0+ERgRkfOtJRS08SfYGnqD0H4RCln4nvBgGBAMFAJA8T4Yta0vlVqrC/BEreFpWgU3wsGBAPVMMCue3CuvWNdKR++BKv3tlBTnwXh0FIOxfeCAcGAYKA8Bvhx2bCP8TOmDMFSvgOiz/pxKmwEA4IBwYB/BvhTsmHf7Mfet2B1tU6b4WYanvTjVNgIBgQDggFfDDAz9dCbs/Ot9X7sfQtW722haOrnh1NhIxgQDPhkoNzWTeUJlqZ8CUTf9JmLMBMMCAYEA8MyQOxemDU7fu2XprIEa/VZUw7obmhcJ1bp+qVX2AkGBANDMsDY2D1q235T5izf5pelsgSr97ZQUw0Qht3v4ze4sBMMCAbSywCDf5wz7CvKYaBswSroqs7AfeUEEbaCAcGAYGAgA0SYkr3PeqocZsoWLAbI0dQXU3+yRzksC1vBgGCgHwPM/ETOtI8ql5ayBcsLkNeV6wn0xXKDCXvBgGBAMOAxwOBLc4Z9W7lsVCRYK7TmCRJlRIeC7cR7u+9TffBluZMuxfanE+i4FOPvhc7g1xhbDpxs5DeVy0VFguUFcXT1jwDOLTdg8uz527Jhfz55uASioBlwdOXbAF0dtN+4+SN2v5s1OyraNVOxYK3U1SOLgDgRGUKw4vaDqVe+QrAAZvSM3Lb10MMXPP3vSupQsWDteJa1SFziCsGqZOKlcYwQrF7B+nXOtC6stP7VCZamnE1E91QaPBnjhGAlo47hoxCCBWRclie124VK2a5KsHqvsjRlFRFNqDSB+I8TghX/GtYGgRAsLJAN6x3VsF21YDlt6kch4ZZqkoj3WCFY8a5f7bJPu2Cxi9Ny7dZD1TBetWDxjBmNzkHuswS8pZpE4jtWCFZ8a1fbzNMsWH57tpeqSNWC5QVw2tRPQoKvBlylEorf90Kw4lez+mScZsGSUJzVZHT+uVrmAxGsdF9lCcGqdhKmZXxqBYv5n7JpHx1EnQMRrHRfZQnBCmIipsFHWgWLXPfMbHvH/UHUODDBSu9VlhCsICZiGnykUrACvLry5khggpXeqywhWGkQmyAwplKwwGfIhv1AEPwFLli9oqUrawA6OKgEI++HcaNsWl+IfJ4iwbozkDbB8hoD5Az77UESH+gVlpdYQWu5gEn6fZBJRtuXuMKKdn2ik12qBIuZM1KxZdJ9S5cGWYHABWv7VZb6CIATg0w0ur6EYEW3NtHKLE2Cxcw/yZn25UFXIBzBap1+BDLsKWsm6ISj508IVvRqEs2M0iNY/Epmc+bwSQ8ufjXoSoQiWDueZf0AoCuDTjh6/oRgRa8m0cwoLYJVaTdRP1ULTbBenDll7CvjGleBaD8/icTXRghWfGtX28zTIFjM6MyZVktYzIYmWL1XWZryQRD9MqzkI+FXvCWMRBnikEQaBEsq9hzZNHfp4rDqEapg7RCtv4BoZlgA6u9XXGHVvwbxyCDxgsXuD2WzI9THQKEL1uqzlcO7i1gBopHxmFblZikEq1zG0mqfaMFiXte46ZWmCQuf2RpmfUMXLC/5gqZ+gQk3hAmkfr6FYNWP+3hFTrRgEU6X77NCPz2qJoLFgFTQlA4QTY3XFPOTrRAsPywJm95dIMk8NYf5Ltm031eLGtdEsLZfZTVPZ8r8M3lrs4Rg1WKiJiFGEgWLgZfHvLFNPmTB8v/UokY1E6zeB/BJ/AvD/Fti3FqLYokY8WaAJboMwLvjjWJA9i6/T26376oVppoK1o4WNIsJmFYrgCKOYEAwEBIDjD/KpnVeSN4HdVtTwfIyWHlWi1zMSB0gjKolUBFLMCAYCJSBNXtv3PbW/Rcufy1QryWc1Vywep9n6erHGPhJLYGKWIIBwUBQDLDLLh+ba+/wnknX9FMXwep9nqWpBghaTdGKYIIBwUDVDBDja1nTurZqRxU4qJtgrT5b2XubS0+l93iwCqolhggG6s4AP5417GMJ4HqkUjfB8sB2ac2nuJSp6mDFepAmYgoGUsrAqxne1jzJXP6veuGvq2D1Ps/S1K8y4Rv1IkDEFQwIBnwwwMwgnBlkf3YfUXczqbtgeRnldeVhAp1cCQAxRjAgGAifAWK+PmvaXwo/0vARIiFYa86css+WEY2dIDqo3oSI+IIBwcAABhiPZU3r+Ho9t+qbTSQEy0topa4e2cN4jAgNYsIIBgQDEWGA+QWpwW1uuqfzxShkFBnB2n5rqH6GgJuiQIzIQTAgGGCX2D0+a3b+IypcREqwdojWrwi4MCoERS0Pclk86wuoKEQ02iXMC8hd4twQ3A9njY7bowQscoLV24pGVxYAdFqUiIpKLntv3Dau1tshooI96DxW6OqBErAuaL+J8Md8nWzaX44alsgJlkfQc9qMMZvI/YfYJL37dGHXPTjX3iF+ZAH8kgqz1bcyY3kArhLlgpl/kzPtD0QRVCQFyyNq9VlTDuhuaHwiVcfe+5ghRJiSvc96yoepMCnBQFercpyboUWCqD4MMN8vm/aZUeUksoLlEbZKb871sPQYiMZHlcBa58XM5+RM+95ax01iPKet5WJIUqSe0dSVZ+ZlY5E5+kBz8ea65jFM8EgLlpe3+Cu4W/W+KhvW/0R1QsUpr7ymfI+IPh2nnEPMdWUDuo+faCx7IcQYVbuOvGB5CB1dOZ2Z5ok1Wh4bfLds2OdXXXnhQOyw2DEHGHhO6i4enZ3fuTbq0yIWguWRWNBaLmCSfh91QsPOz5tcOcMSOwICIDqvKxsJNC4AV3F28SoRjovLc9HYCFbvlZbWchlI+mmcZ0cQuYd9um4QOUbdR5emzkr9GizG5gzhpEmG9WTU67Uzv1gJ1vbbw5YvA1K6n+FEdI1MXCa9l2deU24jokvilHOQuTJ4m8R0Rta0HgnSb9i+YidYO55pJfN8N5/VZrCTM+ycT3NhNggDeU1dT4R900oOuUU9295pxg1/LAVrx1/Ia4jourgRHli+NTppN7B8I+Qo36ZeSBJ+FaGUapYKM78uMdqy7fbCmgUNMFBsBatXtLyJR3wHiGKNo6J6MrfLpi164ldAnqMrFkBKBUNjPoRfQQ9OlufZdlyBxP6Hnua3hxmX5UntdiGuk68eeRc09SQmxPLqohq+vLfL4J5Tc+bSFdX4qffY2AuWR2ChTZnJEnm77kfXm9Daxud7ZMM+t7Yx4x0tryn/JKK3xRtF2dl3UXfx5DissyqFLBGC5YF0ZjcfDVean7ZtPBIXT20yOx8uVWjxfe/5AR9mws9TxsViZukdOXPxS0nAnRjB8orRpU9vKsJ9gECHJ6E4fjAwY0XOtI7wY5tmm2dbp43fKjU4aXozyMzz9nrDveCA+ztfT0rtEyVYvQ/itRn7EhUfSNNDVQb/OGfYVyRlUoaBw9EVb06kqcfa7VnDuiQKfdiDrGfiBMsjZ835B4/e8sa+RpomKIEvyBr2nCAnR1J85XXliwS6Pil4SuEg8Nezhp3Io/MSKVg7C5rX1DuJEMlGZKUmXQXfb0GRZshzlzxdwdjEDknbYb0M/mDOsBO7xizRgtV7i6irV4FxYyo6PTCvkxrc6VE54aTeKljQWqa4RI+lYYMzM56XGOdm263H6s17mPETL1jbn2spbyPgnjSce8jA0nEsHRPlJmxhTuidvp8584i3bBsx0gLRm2sRr64xmB9hZM5LypvA4bhMhWDtehiP4l0gOr2uk6sGwZnx8F5vFPUkvR0qh7btYjXqIRAS//aU2b02Z3Z8rRx+4mybGsHyisQAdWnqV5j4awBJcS5c6dzZymzOnDzpwcWvlrZNjkVh1tRJ3Nj4FwCHJAfV7kiY+T9guiDXbj2UZJwDsaVKsHaC730QC8m72kr07YK3RkvqKZ6ehBXOfn6UXa3TZhSlhj+nYK3VX13g3ZMN6zk/vCTJJpWC5RVw7TmT3/R6cdQcAiX6YNK0/CUuaMrHGfgeiEYm6QfaHwu7zPxN2ez4BgFucnEOjSy1grXzFrGgK1cz6JsENCZ2AjAziK7LGtbXkjbRnz+jeY9XR0q/IaKzE1u/7Y8z/p0Bn99k2Kk+lizVgrVzghe05ulMGe/orEQ/9wBjSUbq+eCk+5YuTcKPO68pZxPoZhAOTQKeoTHw3EYJ759wr/1KsnGWRicEawdHK0+bsVdxTPHHAL2vNG1xt+Cb997Y/eW4HnnfNXvqIS433AJQa9wrUSL/LQB/UTbsmxOO0zc8IVgDqOptVUP4BYgm+mYxlob8IoNuHDNy/S2HzFm7JQ4Qus5p3t8tSteA6TIQRsUh5ypyXDDija0XH77g6X9X4SNxQ4VgDVHSgqZcx0TXJK7iAwExvwDQdXu+Ubw9quu2VujqgRLz1QB9NOlCtb3RHl8uTvce/JcnBGsYRcpr0yYTGn4JwjHJFy5sZOJfS0Q/icIZdb1r5lpbzuAMXcZMWvK3VrELph/vvWnbNXG9Va/Fb0QIlg+WnbaWi0F0I4j282GeABN+nIE/E+hh2bAerRUg7zmiO7o4k8GnANSW/Nvy7cwy898kuFdmzc4lteI6rnGEYPmsnPf6fONI6Ysg+pLPIUkx8x78LiKmh8jlR5vm2n8PCtgKPTdO4lEngegEBp1CwJFB+Y6HH15LLn06227dHY9865+lEKwya+C9oSq6jd8hwrvKHJocc2bvEIdnmPCsBP6X60rev8XhAJLkjmKWJjLhMGY6jAhNAGYkh5QykDA2gvir4u1fGZztMBWCVT5nvSMKWvMxLmV+lL6rggoJE8N2MnA7s/T5NHRWCKPkQrCqZLX3mDHQDWl53lIlXekdzjAzRfezk+Z1OOkloXrkQrCq5xA8Y0Zj14HFy13gK0S0TwAuhYuEMMDAk5kiXxnks7+EUFMRDCFYFdE2+KDCrKY9uXHsl8H4ZLI34QZIWkJdMfNqEF2TM6zfJRRiXWAJwQqB9t6tI26DJ1ofAbBXCCGEy6gywHiaib+fM+zboppinPMSghVi9VbPPHxUz7i938+Ey9N07FiIlEbSNQPdYPwJbvHHubmdf41kkglJSghWjQrZpSvHu6ArGHhnolvZ1IjPKITxttFI4Fsp494iDv6oTUWEYNWG511Rtm/gpUvB0keS3xalxuTWIhz3Nhf7i8S4pek1615aiJ5ahBUxtjMgBKtOM4EBqUtX21zgY8R8JohELepUC19hmTcwcEcD45ZJ7XbB1xhhFDgD4kcSOKXlO1yhNU+QSPoYg95PwFvK9yBGhMUAgxfBpVtHvLbhDxMWPrM1rDjCrz8GhGD546kmVl6HAkdrOZ6IzgPo3MR3QK0Jq+UGYRegRXBxtyvh7jQe9FAuY7W0F4JVS7bLjOXMbj4arnQeE84j0OFlDhfm/hkoMuMRCfxHanDvFg/Q/RNXa0shWLVmvMJ4K2dPm1bkzCwwZjHR8eJNY4VE7hzG/AITLQAwf1SxZ8Fhc5duqNKjGF4DBoRg1YDkoEO8OHPK2A1jG06HRLMImAXQwUHHSKC/IoMfJ/B8qejOnzR36RLqPYxGfOLEgBCsOFVriFxXntUi9zTQSQScBNCJ4tmX1xQPPQQ8CeJH2cUjLG3562QjvykB5U41BCFYCSy/J2BFCcdDopMYNJ2AaQmEORDSq2C2ACyCRAtHj1i/KC6Ha6SgNoFBFIIVGJXRdeR1k1h18LbJRbdhKoGnMtFUME8FMCFu678Y/BoxngLRMmJ3GRMtG/HGG8vE6TLRnX9BZiYEK0g2Y+arMKtpJEaMm8SuOxFEk8Dc+y8zTSKwJ2Z1OvadXwTTShCvYuaVIFoF5pVM0qqcYf1bPHuK2UQLMF0hWAGSmTRX3qEQ0tji+B6XxxPzeBeZ8QQez4zxAI0D8WgmjAbTKCIe5f0L4lHs/du7jYK3gLCVmbbs+O8tYNoKwutgvELkbmDQBqmIDS6kDQ2Zbf+ZaCx7IWk8CjzBMSAEKzguhSfBgGAgZAaEYIVMsHAvGBAMBMfA/wPFbs5ZwXZogAAAAABJRU5ErkJggg==;" vertex="1" parent="2">
          <mxGeometry x="47.02444444444445" y="25.7" width="40.11" height="40.11" as="geometry" />
        </mxCell>
        <mxCell id="127" value="" style="rounded=1;absoluteArcSize=1;arcSize=2;html=1;gradientColor=none;shadow=0;dashed=1;fontSize=12;fontColor=#9E9E9E;align=left;verticalAlign=top;spacing=10;spacingTop=-4;fillColor=#E1F5FE;strokeColor=#6C8EBF;" parent="1" vertex="1">
          <mxGeometry x="212" y="229" width="170" height="130" as="geometry" />
        </mxCell>
        <mxCell id="128" value="" style="rounded=1;absoluteArcSize=1;arcSize=2;html=1;shadow=0;dashed=1;fontSize=12;align=left;verticalAlign=top;spacing=10;spacingTop=-4;fillColor=#ffe6cc;strokeColor=#d79b00;" parent="1" vertex="1">
          <mxGeometry x="212" y="369" width="170" height="130" as="geometry" />
        </mxCell>
        <mxCell id="TqXny-_5BSrygHNTVk7L-165" value="JobManager" style="strokeColor=#82b366;fillColor=#d5e8d4;shadow=0;strokeWidth=1;rounded=1;absoluteArcSize=1;arcSize=2;labelPosition=center;verticalLabelPosition=middle;align=center;verticalAlign=middle;spacingLeft=0;fontSize=12;whiteSpace=wrap;spacingBottom=2;html=1;" vertex="1" parent="1">
          <mxGeometry x="291" y="237" width="85" height="35" as="geometry" />
        </mxCell>
        <mxCell id="TqXny-_5BSrygHNTVk7L-168" value="TaskManager" style="strokeColor=#d79b00;fillColor=#ffe6cc;shadow=0;strokeWidth=1;rounded=1;absoluteArcSize=1;arcSize=2;labelPosition=center;verticalLabelPosition=middle;align=center;verticalAlign=middle;spacingLeft=0;fontSize=12;whiteSpace=wrap;spacingBottom=2;html=1;" vertex="1" parent="1">
          <mxGeometry x="291" y="276.5" width="85" height="35" as="geometry" />
        </mxCell>
        <mxCell id="TqXny-_5BSrygHNTVk7L-169" value="TaskManager" style="strokeColor=#d79b00;fillColor=#ffe6cc;shadow=0;strokeWidth=1;rounded=1;absoluteArcSize=1;arcSize=2;labelPosition=center;verticalLabelPosition=middle;align=center;verticalAlign=middle;spacingLeft=0;fontSize=12;whiteSpace=wrap;spacingBottom=2;html=1;" vertex="1" parent="1">
          <mxGeometry x="291" y="317" width="85" height="35" as="geometry" />
        </mxCell>
        <mxCell id="TqXny-_5BSrygHNTVk7L-170" value="Driver" style="strokeColor=#82b366;fillColor=#d5e8d4;shadow=0;strokeWidth=1;rounded=1;absoluteArcSize=1;arcSize=2;labelPosition=center;verticalLabelPosition=middle;align=center;verticalAlign=middle;spacingLeft=0;fontSize=12;whiteSpace=wrap;spacingBottom=2;html=1;" vertex="1" parent="1">
          <mxGeometry x="292" y="375" width="85" height="35" as="geometry" />
        </mxCell>
        <mxCell id="TqXny-_5BSrygHNTVk7L-171" value="Driver" style="strokeColor=#9673a6;fillColor=#e1d5e7;shadow=0;strokeWidth=1;rounded=1;absoluteArcSize=1;arcSize=2;labelPosition=center;verticalLabelPosition=middle;align=center;verticalAlign=middle;spacingLeft=0;fontSize=12;whiteSpace=wrap;spacingBottom=2;html=1;" vertex="1" parent="1">
          <mxGeometry x="292" y="416.5" width="85" height="35" as="geometry" />
        </mxCell>
        <mxCell id="TqXny-_5BSrygHNTVk7L-172" value="Driver" style="strokeColor=#9673a6;fillColor=#e1d5e7;shadow=0;strokeWidth=1;rounded=1;absoluteArcSize=1;arcSize=2;labelPosition=center;verticalLabelPosition=middle;align=center;verticalAlign=middle;spacingLeft=0;fontSize=12;whiteSpace=wrap;spacingBottom=2;html=1;" vertex="1" parent="1">
          <mxGeometry x="291" y="457" width="85" height="35" as="geometry" />
        </mxCell>
        <mxCell id="TqXny-_5BSrygHNTVk7L-173" value="" style="shape=image;verticalLabelPosition=bottom;labelBackgroundColor=#ffffff;verticalAlign=top;aspect=fixed;imageAspect=0;image=data:image/png,iVBORw0KGgoAAAANSUhEUgAAASwAAAEsCAYAAAB5fY51AAAgAElEQVR4XuxdB3gc1dU9Mzvbi7pkWcWWe8MNjCsumF5N78GQQGjBOLQEEjoBQgiGAH8g1EAIYHoHB1ywcQHj3quabcnqu9L2ef93p+zO9pVcsM2+7/O3snbKmzczR/eee+69HDIjswKZFciswGGyAtxhMs/MNDMrkFmBzAogA1iZhyCzApkVOGxWIANYh82tykw0swKZFcgAVuYZyKxAZgUOmxXIANZhc6syE82sQGYFMoCVeQYyK5BZgcNmBTKAddjcqsxEMyuQWYEMYGWegcwKZFbgsFmBDGAdNrcqM9HMCmRWIANYmWcgswKZFThsViADWIfNrTqsJpptt9ufZIxlA1jJGPuovb195WF1BZnJHpIrkAGsQ/K2HN6TstlssziOm6G9CsbYPAD3u1wu+syMzAp0aQUygNWlZcvslGgFrFbrdJ7nX0n0PWOMLK5XOY5b6XK5VgFoid7WZDL1FAShh8vlmp9Z6cwKaFcgA1iZ56HLK2Cz2SbRzoyxnhzH9QQwmeO4yZ09oGJ9geO4ncq+0wCQO7lTFMX72tvbX+vsMTPbH5krkAGsI/O+7perIkDSghEdVAEmAqeDOhhjHxIfBmBeIsvsoE4oc7KfZQUygPWzLPshd9Jsm802TLGQejLGhnMcN/yQm2XkhHYq7iVxYvMzpP4hfrf20/QygLWfFvIwOwxF8cidI9eLXLgDZjFdeM6xGD+6Lz6fswpffbP2QC4TcWEfiqI4LxgMzvd4PKp7eSDPmTn2QV6BDGAd5AX/uU6n8E0SQHXWeho7vCzutKt3t6Kmri3pJXXPdQRWLH1YoI1a2zrw1vtL8cXXq7D4h20HdCnI+iL3MRAIPJUBrwO61Af14BnAOqjLfXBPZrPZCJyuVCwpIrETjtIiB4b0LcSQvkWYcHQPlHVzoLw46S4Rx1q7pQ5rNtfh8wWb8eXCrRHfzXrgElxyybiI3xF4rdtQi4VLNku/r65tQtW2PeB9e1BV50FNM7/fFkuNTCrkfUxUcr+dKHOgA74CGcA64Et8cE+gSAJmcBxH1lRSV29wnwJcctpQnDqxb6fAKdUVVe1uwV9fWoi3v5BdQLvFxJZ/dz+X5bCk2lX6nmvaCN3aF9HS2IB1tTqsqeGxpkaHz1cJaPPs2yNL5D39y0Qe07oVh9xG+3b3D7nL+eVOyGq1Xslx3C2p3D2H1YgLThsavP6ysbry7hoLKhgAJ4r7dQFV4PpiwRZce8UE3H4rYWiaw98B3bYPwVV+HdqhpQP4fLWAxz4z7g8LrIUxNsvlcj0VTwuW5iwzmx3kFcgA1kFe8P18umwCKp7nb0llTdF5r7lyEm6/+TQks3Q4vxfwuAFPBzjG9st0W50erN1aj/HH9gFzZIPp9Gkfl6tdCN2mNwF/RwRwnfWURbK+aAwuCYZ+TvvA4Q0l4AoEAq9luK4urN5B3iUDWAd5wffT6UiGQG4fAVVKoqm0ew5e++e1GDKwFGs31EjcEXFGNKpqGlFd0xiaVllpHspL8zD+2N4YN7Q74POA83r307SVw9gcEC329I/ZVgXhx0cjQIt2vux5E75co8c/LnfjtKEB/HOuAY9/YUz/uLFbvur3++/PANe+LOGB3TcDWAd2fff30SWg4nl+JmMsK92DDx5YIm1KQNWZ4XCY8dvpU3D7TScDfh8YWV1ez36xvJigB7Jy0re24oAWuYiTHrFiSGkQ//mtR7o04rvOmmXZV67rVafTOTOOq6j+ccgQ9515kPbjthnA2o+LeSAPZbfbiQB6Mh3XL515kNVFQEZWF1lU9E87yPIia4w+75hxurSdOjhPB+BuB+f3pXOqpNswWzaYxZrWcST3cO2LEdsu2qIDuYfb/upEtsLpR4PWKUf58f2WThP2LUpaEHFc6iD92gpRFM/JCFXTumX7faMMYO33Jd2/B1Sifq90JUdPOxO73YRTTxgqiTjHje4bA1BdmrUYBFyt+2x1MaMJcOSAcamlDMRncTvDRDzN+8bXTTh9WEByC9WhBa3bT/Xiuim+LrmMip5rplplwm63E7FHYDYlA1pdemr2aacMYO3T8h3QnVWe6r6unoWsqFNPHIrxY/pJYHWgBsdEsHYXOLery+5i2i6ivwPC4nsAd0Pocsg1fGupHtdN8ce1vq6d7MMj58s8XFUjJwHc91slLWvag6QQgUBgpiAIVGmCsgRa/H7/iAzflfYS7pcNM4C1X5Zx/x7EarVSLh9ZVV3K5zvluH649IxhOHVC77gTI3DgOA5MJ4ATBIDXST8zvWHfLkSxuHiKMnZhMI4DcgtS8lpc3U/QrXw6rTO8uUTAZ6uEEMel7kTyiD/O7rQ8QuWuJC6Lqky4XK4paU0ks9F+WYEMYO2XZdx/B1HqSRFXlTL6pz0r6auuvfAYXHL6UfskApUsHZ0O0JsAoyEleMS7ckka0drUJV2XBFpZuWAGU9JFlaystqp9WniyzB773IgX5nUdqBljUzJFCffpNnRq5wxgdWq5DujGUllhANM7cxYVqO78zXGd2S3tbSUAMRglAGMmk2SNpTPITURbU5clEYw4LVNiZXw8Aj6decXbhoj7y583dymymLGyurrqXdsvA1hdW7f9vRfxVXM74wKqQHXdRaOQZU9ujezXyZL7SMBltqZnfbnawHc4uzQFlpMPpk+sqxK+vSFGm9WlExEh1QEp2qiKUTtzHNXKstlsT3Y12VpJTp/MGNvZ3t7+UUZ9H/8OZACrM0/mAdi2K3zVbVeNx0EHqnjXniZ4kQyCa2vu9Oql4rSIxyI+a38NAi0i5EmMqg5S0dNIBmQUSaSSz2Qdd9LiiisApqYdLperE3lM+2sFDv3jZADrZ7xHBFY8z89Nl6+iMi9/ueUEqaLCoTYk7stkTeg27hNo5XeLK3nYn26hdj1VBT397vVr3RhSEsSIe21pL3k6vJbVaiUBMEWAY7hKxth8l8vV6VLTaU/wMN4wA1g/083rDFiR+/fQjKm45PQDJ03Yn8sgcU9mS4w7xzlbwLnbO38qvQFiTkHsfqR+J/J9Pw/VPaxu5LHjby7p6Hk3yalEDhPDuL6BCCsszulfczqdibhIsqo+SKarY4xRd6Euy1n283IcUofLANbPcDs6A1anTOiDZ/50xkHhqeLJGphOB44EnYFIjROYCC4QFmrGXUYi6G0OkDA0JApta0JXZA9S7qHNEXMa4atOxSjSvtvR2i4VsEiE+ofT/JLr+NayxFouv99fEUejlQ5X2ep0OqksUCb9J87dygBW2o/wftswnYcWVFDvmT+fgfEjyvfbiSVA4kl/ZZD1VyRfEPQR7hal47Q55by875dukc/NUWSQgEsAQmp0hnHH9gYT3eACPow7pheYzwcu6AP8/ghJA3FRnNUOZlZScJr3pga7OFfN8gpjiH5hwW0RItL9tlhRB6q4zSZFEbc+2o4cCwcqZPH5GgEr64agxZeLl79aErEHCU1dLtc52l/abLYVaQRWkllnB+ryDpvjZgDr4N6qtMBqf5DqEjgRr0Sfen3Mi045gouXbZXyBdeur0H1rhZU14TV411ZliyHDUMG9UJZaRbKiq04qm8RSvLNOKpnTkgBL7mLVhvQ3NB5nVYc11D44VGgaWNXppvmPjzAqDKEEeV5DI+cG5TACuCk34t8Lry5d2DmCx/g3e8im1uLojizvb19Fm1ts9nu4zjuXvWk4/vkLnrttz2GTH5k7caaJv9o9fcJLLM053rkb5YBrIN4j+12OzUYTejDUAVQcv+6QqoTQJEEgDObE8oNCJzepprqc1aHysuMGzca2dl5GDo0lh8TA62A6IYYdGHR4tUAC2Ltxlo4FQusM0s3blQvjB/ZA0f1ysO4YaVw5NjBRbuZaRwwWp91YACLI48XHMiSoleEQ1UDh/I8GaTo/wRaHHjp05t9I77f6sOFj8T2jxVF8Srqt8hxHAVXoOMF920nTdx1x1mtvQEej39Wu+jRz3aNVy49Y12leAYygJXGS7I/NlGqLXyQ6FhkVXVG/MnIpSONksmcVKukunaPP/05HFk5OO64iRg+ciKOmxg/o4QFXfC3r0LQHVmXPXreBH5UU2vNumrJdaSfa3alL10Y3LcQE0aUSyB26nF9019iXgcxv1to+/0HWFowIqiSQUm2pGTQCoNV5PcB4xgE7KdjzO//jtrG1njXQh18pHLV14w/btuMU7J6F+ftkrY768nN8xdtcakNaTOq+Qxgpf8uHMAtScW+I14IuzMRQAmkSLBpNKelOCe374VX52LosJG4YvpM8ELybJ9A+yr4XZFuTWfWRNtYgkAs3c44WTYjTp3YD6dN7JcWeGmtrH0FLLKgVHDSWlSJwCkeeIHPhif3Frz09RLc/98vEy5Z7/ySqpevOrG8d/eNMBsp35JH0e9W1ASCoNo9RLZ3Kh2rM/fmSNk2Y2EdhDuphLFjhIAEVh89e2lSF5AZjYDRAmgjbWnMuaq2FbsbLJg09RJwutT1pnxtiyKsKk7IAS/kgtPZwOtzwXEG6Wf6Fz1E3x7pV2SZif4mgMl1sgjAvl+2FYuWbMaipVuwfqNsVaQaZHGRhCOh5aWxsnZ9/hDKdcmtwZjzKRaT7NbJbl88i6oz33tzf4cWjxFjb5/FXB5vzHslcILn/esvYDk2nXlQz1WSxfbD9vbNp/xtWz9lfhl3MNWDIdu5mXEgV0BptSXxF9Hj6btOi6utUi0pmCxp1YiKPq5gGQjBOgwcn1654KC3SgIr3tBNAin6TGswHwLubQi4t4IF5JLLyQZZfF/8bzXeem9JWuBV1i1LSua+9oJjYmQdLXobjj7hYbS1uSVxp7YWVtw5xOGewm6eTKxHc1Pa78PgFeautN97HZeBGXvi9y99gHe/J0CKHCcNHLb57jOG9bObm9Gj23bpy+n/qp7/yYo2yR0krqu9vf3VVGv4S/8+A1gH+AlQXMGYdlsP3TwVv71oVOjsjOcBcvUsaeboxZm3zlgGve0YcEKsXml/X2agY4PkPpL1RtaX9LrzBjAxXIVU9NclPC1xYARcFABIh/u6+LSjQP9UmcfCdfU459qXpeNL2qjT5fNS2ZhxfQKh6qOJQIfcMRWk5E+ZQA9bWjwgNRGKJNgjvteAXNByHALWCahpbMG4P2iLlMpL8PGNF3qyLAZTYfZuFOaQpcmh5+83bHV6WB/6Ph11/P6+h4fj8TKAdQDvWiKincSgrz92vnRmyeUz21KWU0k2TXLZ9LZjwRsOUsoO80nAFM89jJ4nkfhioAlBTxXIdWRirNKdrK7/vrs4rVb240aU4bqLjoXDbsa0G9+QTkcA9cktcg2uM2eZJbfhoxkeDTclg1FK8CJXMRF4xbHAtOAVMI1E0H4C3VHc9/ZXePmbpaGlGFLcc+uzl43vQxOr6LYRVrNLOk/ejZtC2zidzpyMWDT1y5gBrNRr1OUtlAoMMTlhW76aiayCXDCrPS3yPNkE9LZhEKxdqvPX5evalx3JdSQXkv6BRarnyWWkaOY7HyxLeQoi6ltd4W4+Uk13M4czZ5nw/TYB8+6gHECtxRSO9mm5KW30TyXU0/s+EgRFoRz+7AsBjkNrRwfG3fU0nG55frefNGXHGcO6VRBI9StbDYPehx+2uzef8rcalb+C0+nMvIsp73qGw0pjibq8CUUGY+L8Y4+uwEf/vaVL3JR2JpzOAUPWRPD6yOYRXZ7tftqRiV6wQDPA6eWopKSSjz9U7izorY7YgICL3MUXXpsPpzO96qUPnePF9VOCOOMpIxZv0+H2k/2481RR4+btO7EeA25MdRc5BIVSBHIuBAOTqrkOmflXtLnljIGPbzzPk2XWmwjMhvRcKoHa4582LXr082ZVf5UBrDSfvwyqp7lQnd1MyRdcEb0ftc76ce59SZuZpjqXYBkgcVWJwIBcMBZoBQu2SakzBCIQ5ZcnNKQ0GwEcAUroZ8qN0wO8ERxvkkh7+gT9zKVufhr07YKveU7kaaQoYwF0xp7QmeKnGUluo28PCMBUDoyI/+aGbfi/F97GC6/NS0usOvd2L+56X5AAa2xvEZ/cSKVhZFCZ8oQOr01nKM+Nr6fqqqRBG1305t8sgdXizTtx0ax/S+vQM7db02tXT6QwKww6L/qVr5R0XdNfrJv/yYoOiXCnkbGwUj318vcZwEpvnbq0ld1upwTWmP6BZpPgvfjM4YHLr5hq1bbPSuckhqzJ0Jl6hDYV/Q0I+nZLVg0LtEAk6+YADSLzed4KTkeurEWWPJBkgjeHAC7o2YmgZxuC3prYWXACKDCQDLxoJwLZgPNHBDxyNI3kEX966L2UrmKWWe5U3eqWH+utDwaQZZZFnwW38XjoLIZrJ6iWVmIxaFfBy19wk2RhPfnZfMz64jtpDmcMHV59+0l9y+hnq9mJim7rJQtr4kO7Fq7b5Z+gLlI80l2plZbFGOtJanmXy0Xhx190UnQGsA7Qy02HJdKdMUbdmWnMU4SjEuGkJMFmmYyC97QTBotnnzHaPPbY3gktL4rEGbKngjcUQvTVI+jZqlgk+7kr8z6uByeBlxlisA1gSao5EHhJMopsQJclWXAs2AzRvxdBb3y9FrmKN9/xetqC1KcvEnHJKB6LtgLT/gncdgJw50k6tHQw/HUOw8NnkruqiQ5K6TjJCfpk3/uyzgcMhbhg1mtYuk2uN/+HUybvOnVIfncCKauxFRXd10uEe+/ba1a1dGCYZrnPcTqdH0rAJtdJo6wIbXSZJPTT1W328TYdtrtnAOtnvHWk0QIwjeM4EpVKZtNF547Gbb87NaJvIAEAWVaSNeXZDCnH7xc8KKr4uzteT+kmZpmBH/8AfL4WmDEbuG0qhztO1GHRduCcFwKo/4sxJnq4L3osf9ZZYIZi9JjxcOjuPHvxyXVDSm1S+NZqakVF8XrJ4ut9e20EYKk1sBJQCa2iKE7O9EHMuISHzGuvdMuhom0h4Lp2+mQcNWQgdIYCBDyVUvJxZsgrQG7iddc84f72p3pzsjUpyyEXEWjzALcdz+OOE/V4bE4AT3wbxAe/MWBchZBaj5VI0iDptMJ6Lr/jNFS5rJjw4DOhKc2//Vz5+BwUC2udYmHtiQYsqWVYvBI02qoPv/T7n7GwDrEnQClDQm6kxH3dPuMs3HbTiYfYLH/+6XA+D/Q7VuD9j+e0zfz3XgcBUqpx0UgeT59nwK9e9+GrjSI++LURY3sK6Sc6SzotmfvSVmtQifdA1mn4crMT1748W5pKaU6B9z+/Hh9KN5AtrLUSyPW+vS7aJSTx6IeKta29lEqloF+qy/tFfJ8BrEPwNivt6dUOwxg8sARPP3Y50iboPS7wHhfg84D3ucAFE3NJ1EBVNMj5gcwq596qn4fg0oSmpN+1CVwL5TByaKjZ6Jr20Brbut3JZ+wwAT/easYxT3jQ5mF4/yozxlcIaeUSpqPX8ttPwt/nbsFTcxZKExla0qP5H5cMJ0GoNE+rqUUBLOKwGmIAK97sGWNPuVwulQc9lG/JQZlbBrAOyjJ37SQ2m20Wx3Ez1L2fevQyXHzemLgH43xu6JprwLfuBQKekBuiuiPyJ91uxT9J9amjdl52MJMNokA9CW3S/6HrXIv3rl158r34lj0QdkUW7Wus2ea7+6XVhrd/kvy0tMatkwy4fQp5lGE9VTqJ0InAK+g4CU/M3Yyn/icD1tlDh9b+/qQeknyVhmxhrVY4rKa0AAtAiIxP66KO8I0ygHWI3+Do9J5o0CKgEhp2gGuJNi86AU4x4JVkUailvcmOoDkbMJggmmwAAdlBGnxjNYQ6pXRzxDk5iO4WPPv6wuA9n/nS6vZ66yQjbp9sibCwuippoP389qm48OU5WLpDFsLecdK4ytOH5oU0KDo+gIE9Fkvf9b69JS3AEkVxRIZsD9/oDGAdpBdtX06jEPKhcpYP3H0ufjt9CviWXRD2bALEQNqGU3zDirgZyvztyqeSomfJAQxmBI2yJUYWGXSpxabprgvX3iwDs6tJmaeiIowyGMWONrz67lL3re+1JyXj6bwXDjPiqbOo9E78ag2JEp3jSRtoXQOO43HBK3OwTAGsh88+rmZCH0epvK7yfAf2WAgdL6L37a2rWjo4rawh7lJkBKWRy5IBrHTfmJ95u2jQeuWvF7in9ffEvpSiHyzokd1CUrcHvQA1hgj6wJLooqjSAngB4EnprnySAp7XgxPMgJC6plbMEinWGAGYSMcy28F42UJLB8y49iZIQOXaC3jS7x4tNqzCyx/vbr39I1+MaFc7x7IsHstuzgslPKclaQil48TqtQL2Sbjg1TlYtlO2sB4+e0LNhL4OKs4X0mhXFK+UXMPetzsjAEvH8+2MgYlMjCg4lgGsDGD9zNDT9dNbrdZbeJ5/ko5gNOjdX/11Ejesp9HEvI2Auw7M0wAE3EktkFTUVYjrimdxCSZAZwanJ3W7CaBPwQLO4Oi6hSeY5QqqKsfGGLiO5i5YfAom+Dsg1n9PBabwr69Q/4dPvIXJVvzdy7MxvocpsR6rE2LSoGMiTnn+U2zYUy+dcv5tp8hRxZB3zqFbzhbkZ9ei6Ob2mkCQk8CMwOrzm3vh+QXN37//U2NESDgDWBnA6jpiHAJ72my2eRzHSTloOVmWtq1/dzjg3qt5KdLl1bvi/kW7jarhQLW8ssHps+RPQ45sQSXl9/fl/PHdQYhBiA0/At6W0Ho8+wW23POZP2HR+LIsHZbeQJiWvHb7uno/BheQQiERQc8jYB+Png/INbokwLr1ZM194aXf5TmqUdO6efMpT/hClRruOLl75VXH2Xt8uLL5nT++W3+h9jHLAFYGsA4B2NmnKVAVCGpqILk7N5zVr+XBs13ZcO9KwUEleMnTChp2AVwEKzhjLmDMBWfKA6jI377EAZR5rtnehuq9btDnd2sbJVBs7fBj7Y5Il3F8H6A8nwN9rtnJ//D8wmC4WmLU8v9+vB23TshKqMdaXO3F+W/vxpLflKPUQbxcfHAL5p6Nnvc+Jh2dSiJ/c+vxprDlqIhHTc14bv6PC17+TpxI25n1QuNP9/aSSm48+Gn1t28ucR+vnV6msF8GsPYJLQ6FnbU97gx6XceCZ26y9CpsB1//AbhAQ9fdM41bti8EfFzLymBDqz8b1U4bhvYvlXmyCLCMBMWW9gDW7WjDwnVNqKpzo7LejUVrU5dhjnd/KEWH1O7JxrsXF2JsGRX/i+2WM/2D3ZizvQOLr+6JsiyDRhmvFZFy8OeegYr7/iqdpsieU/3OtUeXhQl3mXjX6QI49elvtzo9kCqN3nFyceVVx1mlSOId7+5Y8MnKoARk6sio3DOAdShgzr7OIdvhcFQyxqRayMf1122efddx/VjhGeACjdA1zwPfRtUCkpk0+zKFrptKVY3Am0uANbsMcHoFlBdRYwsjKus6pAm1tgewdmf6BPu+XIV231KHgK9/1R0Ooy6iMUVVix9jX67EwHwD5lxeEVFfS6vHYpwZwezjUfGAFrBGSlUatKBV1ehvueKVeZJCV+D5jjUP9LTQzzo+iPOf2/Ha6hr+yqhryjSn0CxIJkq4v574g3yc6E7C2x73I8uiRyDrFIi5Z4DT6cB3rAbf9j0411pwSCQmTcV5dcEdDBH2yTFzTTXw2SoOi7ZwWFvLoy29Wn0YXMojyxTAkFKArKdsC8NRZeF5tnYAq6uBRVuA77fK3FE64+qRDjw4pTCitvs9cxvw8spmXD08B/dPLIpbzYEsJybkImg/FhUPPa6xsEZoLCx5nR/+vGbz1xs2SfzVeSPzNj90rkP62aRvw9n/2BsPsHY6nc6KdOb/S9gmA1iH712OqGh62yn+bX88Q+xNbwW1T/dbpoI5xoIzURccM5i3DpyvBry3CpyvGpy/HvA3gJPqZ+3rY9B1i0u7/C0dwLraxHMZXMI0zSUk0yUV2qKqkeHNJTo8/kVaWlJ8dVk5BhfIUUNK3xn76ja0eUW8c24PjC2xxe2uQ25k0FAGZh2Iioe1gDVctrBkMwutHUHPuc9/zwKiX5KjLL27FA6zPC+7pR6n/b09HmBRR52MeDS0iofvC/uLn7nNZlvJcbL4sNDO1254xKWkgcjkEIMeQeNQBIxHA6YhgN4E3kByBKogSi8KmQZ+INAGUMmaoA8cfNLvOPgBRpVKScdFDR1I0+WWew6yIBhVIGVUtZQ+5aqlTKT/kz5JLhPMRBEcEyEGA+DEIFjQD0b6MMptVLCG4+g8PnCcFxwdm/OARyt4nUyoayUB+yJurWoCLn9ej3W1yS2uQflGfH0ZGTQc/rZ4L2Yta4DdwGP9bwfFbVChikhFYy+I5gr0euRvGgtrWJl2/s98U7dl9or1UsRyVE/75n//Jqef+n1eViXOfJK9vXQ7f1H0g53hsbSw/4t/7Q/fBYh2C3/4UzZ6ddNW+gxbICJnR9BwNAKGEWC6UnC8AE4wSrmBHEkQdCQQpUge2QtS2ymFy5GreMqiSs2n8rNctYC+pu0V+ZSyv8zxxNmfiWB+AsoARL9P+pT+7/dB9BNYyufnub3gUQ+e3wudrgY6XRU4LpnfmNziaungMOIeE9o8yS3KXw/PxQUDsnHhB5Vo8wYxursFs8/pHeK2IrgrUa5gGrAMBmcsRMWjWsA6SrGwyLoKeC58cbnb4/dIydCzry/sGFJiUPgrH/IcVfjzB/xHz31jODv6iWSMrXS5XCMO3yd1/818X32B/TeTzJE6vQLRTVqfv2gazhxZDYNlAThORZjYwzLOhqCuHIwvlT5FvifAmWWQov6IPDWQkBXvnM5AoS1wPFlR9J3GtQrlGSsWnQRykaCl/j8G7OgXUftL4CaKEL0ewOtF0N0BuDtCmEc/cHwjdHwVBGEL9AY5kbgzYdEbXzfhraWdS+C+5Zgi3HpssTSPdzY24YFFtVh79fAIAl60jwbTGdHrr09oLKwhZaq7/fDnezZ/vWGzxFeVZFmq/nd7dqjAvdFffsoAACAASURBVM3UBIupCW8t0b134xvG8+I9CH6/v8Lj8ZCc5Rc9MoB1GN9+KkOj1+t3qJdw88RxmDlxPHT6HTA5PgYvxKtMGl94FeRLIer6IiiBVyFETqmKErKsyH1ULCYCLSL1ySKTQE0ndQHiyR3keNlSI+CLZ5lpjxcCG43lJkYCLbmVzOOB2O6E6HKCBVVQpE8fdPq1MBhXQCfsTKDEUNxTxU3947sGvDBPbvya7hjT3YZ3zuqLdzY24rZ5cunjymuPCemxGGeC6KCmIBx6Pa4FrKPKyPJsbkfTBS8sMavc1RMX5jafNpTUtTLY5toqIQg+fLFaWHX5C+a4+YWZztDy3coAVrpP7SG6nd1uD73hx5aX4u1fXSJbLgzQ2xbAaFsK8MRNJbNDFPdPcuuI+5I/gxy16cpDkCsC40ogohsYV6RxD6MsKymNRXEnKeFXMIAT9OCoJI30qQdnILW4yiNFu4sKKKr+Z5QbyoJBiG2tENtawAJBxW2VLTqdrg4G8zcQjJsTXuiaag7TnjaGmlR05paOKbZhyW6XtMvAXDO+PG9oiIAX9cVgll7SCvd64u8hC+vta4eV0e9uenPb1rW7ayTdlVlvaFl+T362mmcu6HzIdVRK6/bcN8Knf/7AeEa8eTHGPnK5XFRK+xc9MoB1iNx+Sm4GsLKzpUS0gDWwqACf/fpKGXTIUqEXnnmht62E3vYDdEK7hseOD1IqWIU4qThOF0OuYoFlQwRZYjkIsmww6WeJllG4Kw5QLKYQ10XclN4IGIzgjSZwFADQkxgzyoWNBiuVK1PczkBrC8TmRgm4tFwZr6uE0fYtdEKtJBb951w+JG3ojMQh2WNxz5geuHpwcUhkKtqGguksUqCh19+1gDW87LvN7po/f7JESYAmoWhe5fQJ5lDJGZu5ERZjs3Rfhtxt+KSujT8z0bkzaToZC+sQgSupww49sy2iKE5JF7TiNSzYcdftElhJlk4ItGTzSjCvh96xAjrjngTUT1SuYNJkwERLp4fIciXwEpENsFyILAeMfifpXElJruG6JKOKg85kAcwW8GarzJdJoKecI8qNDIFpUITY3IRAc1NUgIDBYJ0HvWWJtA7/nMvh8S94qa77vg67QYeFF45EttEgYSzjjBBtw+SoKBh6z5Jy09Ejp6jp1auG5J7z3LI9LR5nN/qdwOvcq+8vJbJQCW4EkZe1U7ZpGassnGGgdCu57Gv88Ysv5pexsPb1Cd4/+2s1VSQUpIhQyv5z0aQ7TWXFzJuQbTRpwEp2s7QgxvMu6KybIdi2QWemllqpiOvOXGRyyy0o5gPIRVAkICuFGCwh2WQYnAhsTRbobA7wNntEtDJRFJJ5PQjsod6MVBdMtizpQ2/5AQbbPInbqmxguPJFYP2ufXvkrxpUjHtHS3I3ad0kd9BM1yAL2ns9JQPWwMIS3+CSnMp3V6wNJV6fOyJv84PnyEJRGiZDM+wWOd3ovvfZR8/N06kRQiIfY0rjqJ11OnM3jrRt9+3uHWmr8TNej9a1Y4xJHVRSTSe6hDJt/99LL8LoslJwCkhJx1AsLcmyoZdZ5Zro97wbgnU7BPsO6KwkGwhzUCE9laqrivsZrgSTunBpfMJfFIsQDPZDwE9aJ3vIPSRLi3dkg7c7JBlGyLLScmWqIRYUEajbDbGjI+SGSrl7pvUwZn0pLUNrB8OfPmB4Z1niCGqqNf/u/FEos5kUS5GDaB0kd8pWLax/zJIOUWTLRlNHu8cv+mljKiHT8d2d5ZYss3odHHLtldDpZC6u523iErefG3PSELZiVRVXU9eGGNeQMTbf5XJRa7hUg6y0lH/wUh3kUPw+A1iHyF3RApYypZTmf7yWUG9eciHGlJWFJAOSZSVZHCpYKaARA2Kym8YZd0Nn2QveVgO9vTZEwKfDbUU+TGmVgYgSdgHBYDmC/qMQDPQNuXmS0snmgJCdK0UnI/RdkjkV1nv56+vA2toiLDPBtBqGrHkhQ/LmNwN4Z1n6td/VR+S83kX424T+IT0WpeMwEykXlCvngN7PyIAVPc4dkb/5gXNy+6lZS2Z9E2yWFskS/PAn8avr/i2ebBDY7jUPCMWPfRb478uLuEviHScVj6VY3dSE9SOn00m86BE1MoB1iNzOOIDV4nQ6FW1B7CT7lBWfXNfikk0Hzbh53FjcMn6cQrgrxLtEfCtuoQJekjWkEuJksUiWVxT3xXmhs+1GlXtX61ZnXZWLq+dPPkoYLLV/jyqn3LnqypFSg3iWHJgNPs/xYMGe4XlxHPQF3cBZoqqfKtcn+4JAoG4PRKczzJWJgCFrLnSW9RIok6V1zjNerN/VOUvr8XH9cUGf7qFif+9U+lHT4cMto8ZI61HT1opJb4QqWYfuCpWQWfanvkppUw48R5HBWom7ov0qbvMscfsx5o1rhK0nDNb12bxHXDrxUf/oeI9msjQdbVXaTlhjh8gbkN40MoCV3jod8K20hfnUkyXT3pw5eeSOecu3aFuZS7vNOOU4zBhybJjLCYGQYswoHE8YrMjykolwLYiF3EhpfxnsajoaxVc3L69dXl/nG9sHjdNGB8pGlAsULpP2jQCtEDOWTjRSlVLEKhL83mEQvePl+dEgL9aeBSG/IMLSCtlzNA8G+HfvAnO5lP1kC8yQ9yF0hjrpMNVNIqY+3gFnJ4j4784Zi1Kr3GXnnW2NuHPxSjw26QScP3CwtHTLdtfg0o/ei3lWHjmnfNfpw2xSu3qaR7Z9N/S8V7L4Pvwp8NX1//adfNJg3YrXfmMMqdmLZ3ZUqk11tQdMkKaTbbPZXtH2NOyKDIIxNhDAWaSw4Dju4JfMSOMtywBWGot0MDaJY2HRaeNm6scj29U5zjx/Cm6ZPB7BHe443JXy0kvuoEZyoHEbZdBSjhbHbZS+EYH3tm/ArLVLA14x6BlZZtg08wzWfWS5PgReKXn8EIOeqhoEpTiWI+g+NQxaZBGaLdB3K5bV91G6LcntEkX4qqoAH9WyV0CT64Cp4D1AR7mRwAvzvbj3w/QRa8flUyUN2ewttbhj6XrYDQbMv2Q6HCTP4Dgs3VWDSz+JBKy+hfZt791Q0VtFW1K1m4xt0h+BJlew7ah7XC0Divnqb263j1fdbrqegXe3JWpSEVFuRumqREx/xB+vzhL0jDEqHPiNcuerOI4LSS8OxvOf7jkygJXuSh3g7RIAFp01hsuy2+2kbo+xrmjjW86bjNsumAqxPYDAtg6wdqWjjqogD4FQ2A2UQSjSwpKI+Tjuo7ydIk1gwJya7Xho9SLs6nChxGppOmu4vvqGk3UVuVbeEQlanenKo1G5qtjpL0ag/UQ54VrJUeRMJgglZco8o2Kd1NHB54O/slK2NhUQ5i0bYMheEooPjHqwBbXN6fFZOy49Ceua2nDpt8vR5vPjdyOOxYyRo2XTkgOeWr4E//hpWehJoXpX39w6WMyx6GwERka9W6rKIBH0jOHkJ5yf9i3i85+9wjZGdovDAYwxD7R9VdUsnhz92Kl5hUqzXbKq4pLwnU2YZoxdB+D/NOfL5ziu8QA/9p0+fAawOr1kB2SHiFIxUWeI/otKJElCMnXmeVPw+/OPD3FSwaoOBHd7UkQNw26fLDZVpAEaTiue2xgm9IH3dm7EX9Z8D2fAJ01/TEn2usev4LN7FepLUncQS81p0Use9Bci6DoJYOG0H5I+6AqpTpXECMXkMoqtrQjU1YU5PQD6go/BG9qk63z7Bzd+/5asYE81TigpwLL6FrT5/ehuteOTaRcjy0Quojz/a7/+BN9UhTKl8NTFA2om97dIolFB50WWlcBKtnIZYy079wZdFYVCqdYRVjMNus9soEocw+PNiTFGDXaTdoPubGllxtgAAJ8DoFIV73McFzenMdUaHejvM4B1oFc4jeMnc/EoPK2S79quOYkOe8u5k3Hr+VPDoX2RQWz2IbCjA/BJfaRColKVaJctLKXajCaaGE98GrO/rJ6Uztfm8+Khtd/jw5rNoekdXWxf+eSvzAUVBULJvkgmVNAL+koguqZERgHzC8Bn54TSgiTY0uQk+quqwSiRWsFi3lQDfd4C6f+tHSIG/1nuctOZ8cbJ52BMMWGRYjkCGPmfF6Q1oHH1uPKtN59QJKXjyGBVpwQTU0dPH/zI+dHzC9wxVRs6M79U0cQEQEjoO5TjuKWdOdfB3DYDWAdztROcK1pPJfCoDYiQ1YjyX+MpjLGePM/HhqCijnn96VNx16WTwgS6YjFR0nCwxg1xj1dJIE4WNQwT8ZGgpooyle+jo4oKSCzduws3LP86ZG3RFEeWGpe/cm1u31yLIJV1jj/ivMxxwo9ixyCI7qFh0AJg6FEBCEIYtDQBQLG9HYGaWk2pGwZ98SeSBo0so/OfrWtYst1Pita0xk1DR+GW4UoQj5cjDu9t3YA7F8oU0IkDi7Y/fkHPXjQFk74DVlMTeJ7U7Ik6sMkWLh3n0c9b5zzzTUdEq69Uk8oSjKuOysp3L2ysHaM8L6tcLldc6yzVsQ717zOAdQjcIS0npddh9xMXFa6++c36EH9BvEUi9yB6+teecgJmTpsKm0V2zUJum8pdeYIycDVQ4bxE7p/ybkdIH6L1XMqZ4+m5GFDd7sQNP32NTdSpWRk6jnNdPcG64c9n54+K9N9SE+9aUao0rbaJQKBIKfECcBYbhOLumpxEBfyU6KKvshpwu0Mgx9nXQsjaKO3/ty9btj39TZtCjCd/IAZk5+HTMy6Wp6OIRelz0nuvobbdiesn9Vl57aTC4fS91dAKs4kIdq3TFz9qumOvv/b85+p21DvZhFSPpAC+dkR24dazuvcxXVgyQELOyo7W2pMWzVb/yB2xdeAzgJXq6TjA30e7g1MHWle8dFX3Ef3v3rLU60dcLU6yKT35m+mYPGQQrOYAzEYZlCJEowoIsfYgAtUdYG0BhXBXQCOeHkvj9sWAIP1CjTpGcV+tXg8e3rgEH+7eEjFlq5Hb+vZvu3c7qsxki58UlFoKAdGMYPOp4eoQjIPQo4ecSK0OCazk62IdbvgpaqjmMuraIRTPkUye2T8637v1rb0pORu73oBPTr0IJTaHpq8Eh1mrl2L2lvWBP5zeb+ekQbY+VJHVYWmCQfCkzHpq7vC33fVu84rP1nRQWZmEeYQc0DbYkb/xT/3HZo3ILuof/Qy8Xbtp2T3rvztWuh2ieFV7e/urB/jR/VkOnwGsn2XZwye12WxztZGeD24s3zW83NL941VtX814c1dMlCjVdP91029xTO/eEkiZDAFYzXIFz4gooApKDAi2+SBWU72pQFxiPkzAK+9eKKE6QVQxKhpJp361ci0e2bwkYuoch9a/XlBYc8Ex2YNl0IoDUko0TY2qRXuHrGMAWIeSmkdpOLm50OVRi79IDks2NQH/zkqIHlnSQJanrnguOKEdd7xb99Xby5wp1/ruEeMxvf+wcMkAkjLU1eC9qg0NM84oyHfYBOg4n5QfqOPDZaAjTCxlFZpd/upHvmha/84PrjGMxeYNahdrQl7Jkr8Pnjwwy2iOyS9Ut7vix08XLGveI7UIO5KL/WUAKxUCHMDvFQ0NpVFIg9zBzX8ZXKz+v/cf1laLjNM0Mkg9mZ8e+As4m1xRk15KvSDCbvGCJzJKK10IgZbMZYktfgRr3UCHnNsWV48VwVmFLbJIEaps0WnTZWgud66dH2Np0e+nDrSteOmqsgTlf5MT1IyihU1TwURqbkrsth6GnhTkil9XK9DUBLF+b8iNRNY66OxVuPqV6q++2dCeFLBG5RfjzeOnRaTh+Oyt8OU1QBSoJj0Hk6ENVpOisE8Attv3ejbc+EZd44bd3iEpKjOAuKnZx56V18OaFSpPk+gJGDDnxVYGZDHGjlj+iq49A1ipMeBAbUFShhVaPdXV4/N/+NOZ3UMdis9/buucn6rSJ2C7m2x4f/K10B+TCy5HH5I2EFjZzV4JvCI4rZDlFSbgg01eBHd5JOBKls4TiirGlLJR63DFLlsi0BpYbFr4+S19FO4mdRRNe2TW3hdw91aighz05BYatG6hsjUdNhCEdwu5pzLYcpZd4PLW4tiHNi3a6wyOT3ajX590FsYUlkg4HrR0oKNoD2BQighK69sAgz4QbsCh0VUBrPXp/zWs/deCJqPLK1Kp0pTj5MKe854edkI6ic54ZtvyRf/YvkKaf2f1VykncohtkAGsn+mG2Gy2D7SpFDSN5X8+qjXbKoTM/iXb2+Zd9sK2tB5a2v/4/HI8Nfw0uHRWGAY7wHUzaqJmHKxGH8zGQAwRH6G7UiwvscmP4C434NGAnJL2ItXZCoGdypFFlrBJtKzXr/ga3zbIZYa1g0Drsxn9J0huX0zBm8ScFkQj0HhcyKITiovB2+3yodVIoebTX1Mr5RlKw9ACvugn9P7DqiqRcaEa69FzG5VXjDcnT5PcVk9hI3y54dLTVDHUbmkGzym6EI3/t3ibc96Dn+wRNuz2pLSm1HMSV/XfUWfujsdTJVrTo7997UdX0C8BIbmDgiC8whibmW5dtZ/pFejSaTOA1aVl27ed7HZ7jPhzZLlt1ewbBg6Lflt7/+GHtE/2x35jML3HELQzE7ycAboCI4SBdkBPnI58GB0XhN3ig079hRrlU9NzNG4jAVNwrxdslwcskDidJyx9iMMdRc2+ze/FlIVvw6UITLVfj+ltW/+fa/oNSshpaco3R1REbT0KzJsvQQWfkwOhoECJgGqLQcgwGGxrQ6B2l/w95fOVLG7t/YeVCbkhmt8jIyfj3Iq+cPWsg0iBDCWtyGJ2wqx3RSRRLt/p3PzEl3t2L9vpqkgGgvFuqonXbV4w4eKiZFxV9H7Lm/csv/THT4+W8Jmxj6hqLcdx93ZWOJr2Q/Yzb5gBrIN8A2w2270cx90Xfdpvbx3WVp5vdkRHzYbft8np8jYrJkPyyX4z4SKUmuVNW2FFENQsgoNhkANcPpUhVl5gkcFi8sOspx6DUdIGtY6WKmkg6ssXhLjbA3Fv9PZhIj4ijSfFmr5fuxl/XC8LN6PHo+dVrLvgmPzB8XMRE6T3uAvBOfvLidE2G4Tu3eXDRmfcULQwGIRv81b5exbA6zUfz73v46qEtcfsggHLT78Krp57EbB6ZVDkRTjMTeB1Aen/2+rcG56Zt2vjF2ta+/sCbFBXHqn+9txFH485N6lbGu+4Zy15f9EmZ5O0H2PsKY7jqNV99pHafDUDWF15ujq5D5UypgdJcQFjcgBHlttXvX3d0GHxQvynz2r3bKpfKRWBSzayDYa2pZN+FRJlBhmHNtik8sM0dN1N0Pe2hbwkcgN5MJiNXpiEYLhCqZorGJMQzcA8IoK73WBNfkUxr60dr3BXqSaqfH/5D5/ih5Y9MVvzHNe27K4RyLYZlGtJg9OiBq4No8ATCW82w0D1wELCUY0eS/odg29HJZibkp5FnPjuv+Zu3+tJCFjTSvvh/tOOhje/XZorzwUkyUKrx1P91y9q1n+0srEsFUiRbioAMSQEjr7o3/UaufCm3iNT6q+i99vhat1wyuLZVGEhelQ6nc64uaZp3p5DdrMMYB2gW5MKpNTT8hznXHrXGDHbSvW8tS8n4A/k4oLn9mDdnkhJQLwpXz229Kc7HSeNhBjubByADm3Q1I4y6WAc5AAsfES1BnoJ7aYAdJwmUVojfYjhrDoCCO72SpHFCCW8Rl2eallr3E5MXfh23M36FJjXfPn7kUd1JgeRbx4M+GzgqYoDAZY0IsWjKoj599RBbKLieUH0ff4frclkBU+NmeoeM8UutZYnqUKA7am+/o2NG1ZUuUjzlKz+OvrbchfeP3B84eU/fGYJQIyJ9HWFr9Iu2Ji5r69sDnjjKdozwtFUD2DmeyBdkNKu1a0nVfz020kVIzUmQejrxtYz8Jt/z04LsL69bTRKG8rAaiPfIR8T4KJONpo/TUIPC/juRMjLbeXVOlhGfQAWvU+yvGKK+cVwXYDoCiBYSTmKYrzpp3wkEllZtONL04fUTeyXWxQGreQJ0mgrg85dKHXjMfQk4yI6WimDF12v6HTBX12L9Y27PGfNnp3Uep37m2mwFPDQ8UF8vGrtvAc/2zYiGcCpAs+/D5nSneQI05a8v3CDsynGeuoKX6Vd0Deq1s99cNP3cS3DI5W/ouvPWFgpX6vkG3QFpNQjDilx/PD+DaNHJaqdvq32EVz572mod2nbz8fOpzzXtOJ/t04YwTw6YEmsbMsLA9qp0YNmcFYBQh8reLMuorsOxxgsBnIT1WhiVHG/aMuLxKe73DK/1cmRjMvqX2Rb9MnNo8anW1eL8+SBby0HbzJB34MCfvHEo7IJyIIifJu24I/zv256Z8OG3ETT7mZ37PzwxpN7clwQf/rou7fmrN97cbJLJCnCgwPGj1BJc636XLtfV/kq9RitPk/buPlvtsWz2o7USqPqtWcAq5MvGW2+LyClns5uEnZ+c+ukng4zJeyGm5eq0a+2jmOwu+EGnPVCQuojNPMXrxy5Z0Lf/G7ScbZkg9sVy9HHs7QkN6fUDF2x0rVGk5YjcH7YTT4QgEnGSpwoopawFz1BObHaGejUih49999xI4Z0kDkzxzvL88z2tOpq+cwQmvqAs1hgKFMqtsjwFNtaDIBn01Yc+8r/tTe53VH1lsPTv2TUkPU3Hz9o0K2zv/30++0NcRuc0tbk+j0zbOrQcktWiENc0VK3+ZIfPikiMad2QbrKV2mPcd2Kr76a21CdSOiashdAp27QIbZxBrDSvCFUME2n053Ncdz0dBOREx26NMfc+v4Nx2U5THpNAafIBOCde+7Dxt0tuOX9k5LOsNBu3LTgjqnUGUF+N/08uKWF0HJZ6gH8TICTUxqdaq0tiwChlxWcgbitcO4hDxE2gwcCH0wOWko0jkCNNfsRrPOk7SI+vGkx/l21Lu41ThmQv+Kflx89Ig3aHVxQD2FvH+iysiB0k9oAhoemvLIEYYzhu0Xf49LZ/0m6tv+6/JSGFdVV25+bv17K0YseBFT/GDq1Z7QSnSygid+9tdsjBkI5f+QCvnr0aSyVvopEoGd269Mjkbo9kdWmXNcR3x06A1gpAMtqtUrRvWiRZ5o4F7NZ30Jb8I3fTNDZTXopnSNccyQcsm9pn4i9zZfiozX/wkuLYxQQEcd87rJx9VMG5BVqCXuu3gxuY3xpkR8CXMwiZc5ED4ok8oWqtaVyQAw2gxcGXkOwayQP2tZhKhfGvKKc5kParRTjf/WVuHHVnLhbWY26rT/+6eQ+8ZcpitMSGQz1/aV8QkmHpVpWqhJfzVVUmrjOePEFvLd2VcLZGXX6htevPqn1wn99RsmJEcQgpcw8ftQk66T8cqnelXbEA6tR2d3mPzt06vBk+iqyyB7btKTy+eEnHZtoO4oKnrp4dvdoq00BK0rJIZHxEdneS13jDGDFeWTJmtLr9fcCmJYqEpTqhdR+f/bwcvzxtKPgMBmim86E+gGKohU799wDUbThoS+vwrKqrxOeYmzF0B1/O/+YCoelFQJJEzQyJX6tHVyzMe6+fujgYta4oMVTAm8PC8Xvw6VaRAaz4IeZcuYU91AFp5C7qOQuhkDLz2SlvD85aCWLFtLkl951ChxmJVcwyWLTgyzUVUBfWAxdDoG1JtdR2U+t7V7V2IBxD96T9NZN6ttr0/KqapfL65dEmTRInjCjz8i6ayuGj4y3czRYEbA9P+IkUwqrqnXG6v+tXNWy1/zR6Gn9E4FVPCDUzKFVFMXJR6KyPXqdM4ClWRG73X42Y+yWRHWyOwNO0duePbwH/nLuqAjlQrwKnHsar4DLfQxc3lZc+lpiDSLJIT66frqdY/nIczTCbm4FTx6d0uwUHg665VmAGP8Wy6BFllbs95yRh9DTKinktWWQjTo/bII37B5GgVQ0iIGKBtZ7pfSeZCMZj/WXc0aumzaifHDi/cMOo6G+B/Sl5dBZLKEE51AVCMWyolr1M//7b7z7Q/Kimv2L8pZtqmsMuYKprKRv6itX3bzqmzwiwnuY7D/d2X80P7WwZ9Iieuo+ve3ZlalEo4mijaQR/qWAFT0DRwRgWa3WGTzPk+/UFYUvtUiaQdxUosYO+wJUtO/lY/rij6ceHepcnOh4Lvcw1DWRUBn436a38fT83yc89UPTRq09e2jvIat2DkXPokqYDG6YDZH1l/g9evBbJAlRpy0tUsgLZVZwFln6oHaMNuu8sAiy4l3bpFULVhGJ0RRFbPCCScnU8UcyecM5I3qsfOicY4aHAxOxuYbqUQ113WHsO0B2tTUj1DWHMbS1d2Dsw/egze1OdVvJtcomq+rpYcfvTQQ+lGr00s5VXy9vqTeOye2uu6J04FGpUmuo2N5VP35eU+ttH31l+eBld/UfG5cjUyeYCKyoMgNjbPovwbJS1+KwB6zovLx0NSgHyu2LfgsePHs0zhlJ9aki+/ZF5wx2uAdgTxNhJnU2Bu765Hys3b047ks1oV/J0n9eOnE0/blZs30QCnIaYRS8cFjboKMkXCXXjfxM3SYD+L2JXapk7iEdR1duAWfWhWu+iyIcBi/0nFxnSxKVajmtUDRRoZGUKCOBViJLKxlgnTiwZP6si8dPSkW80yRMzeUwVPRW4g/hxhrqctBiPvHlp5j19RepwEr6nupQPXnU8WMc+viudVoHidpoxur/zf+qbidZXtzv+xyzNZF7mQ5Y/RI4q+g1PqwBK7oWOl1cquJlGqDqUhtvg4DdgSBsIkPK/L4Hzx6LaSP6RhTIVUtQatNw3L5y7Gm4BgwysNQ5q3HNf6Xy3DEjx2GrXvTnX5WJ7U7JYquqK4XHb0RhdqOkxHZYXDHVDnSrTOCTNIZJ5h5KoFdmBmfSRXTTyTZ0SAnUMa3AEkggJMFmvQ/kJkaPRBUcaLtxvbstfeGKKaNjSb9w/wfpjwEAS0dv6Eu6h69ftQyV71s6OjAuDeuKxJ/PDjtheyqXrjOApXUZKWL4wAv13QAAIABJREFU8ZhzLanqXCWzrH6JYEXrfdgCVnTxO/XhSdQthLRTPM/PSNYiK9EDSE0hJvU31c88wVG0xxnc+5tXG6mcbcJhM+rx8vRTMaAbBZhiX1AtWHn9BdjT+FuILOy6/ev7e/DJ2pdijq8XhI7v/jJDzDYLNl9jnaTeanHasGVXL/TpXindTauxAwa9X2PRMej8HHQr9KDMm0SDoodOFqmI126rKzGBMwshN5DngsjSu9PWaUmWmE8Ela2JHk9vW45nt1NpsNhRlmOr/HzGOT2S6SSkhzjIw64bAD47S9a1qZyVZvl//dLz+Hrd6qQ4s6/pMtEHp8jeJT987FVTaMhqe2nkqfH/Gml2TsZZKXmCR3Q0MNFNOlwBi4rfUQO46FyuVqfTGfG7rlpUHIe2Ad2Mq+84Nbfb8QMtfQgcmjt8bUffX9MWEJGwAqTNaMBLV56GgcX54WJuUeV/VRbG6ytGXdOvIBJQKIPIdrKu2n1tEfdMEIT2t++81j24pCCfBfwItDaBBairMYfFG0agV7damAweKYXEbok1p4RmPXQbEvNIdLJE4lJ1IhJoGRXQAmDmPVL0MKKtfUwUMbJOFglLmTtyHskA68SBPeY/ceHkSeEyyQoYhbQO8t8EPqCDPWcYeL0+nFakWFaEWUu2bsEFz81KaRS9NerMTam0UikPQky4z9N25U+fr1bTctK12mi/kxfN3p4gR5BOfcTmCaazroclYNntdiqwL7PTkSPUw4/AzG63UwvvTrl++Vbd2ivG5rVcOSF3QjYlCZPbIzlfIsb/ZcfS2pZAwsYQMlidgQHdCuLXKNfMtcPTHw0t54XcQPWrN3/8G976iaYdHjqdrv2Nm39VP3JAvwqR6kgFRQRcLRA9cq+9FVsHIMviQq5DBjmrySVVF40cDOYdBrA9yVNofEwPFxefqCftllBiAYSwZCBb3y65hnGV8KGuPeGqDpQWw1oI5MKzS+YSnjCwx/y/X3jCpMj0pbB8TfX/BL8FjsKB4eig1rBlwNiH/oya5nAHn3gvx4S8kqUvjTw1ZeMPNwwwwi/lXEYPApx7Ni5cQTyVqpcqNlqXJZMsqMcgLVaiRGl1myO5wcQRCViKxRRqr1tkN26sc3qpa606XmWM7VQ64ybNpld34DiufVRP+6ZHzisrrMg3lkogJXXolT8ZE/H0/+oXPTmnIWG9on5FeXjximlwWIyaMFZs/SayFFpcY9HqOj7m/sSzrsgNfPHKs2tGDR7Yj7ocU5lfMegH83jgdzZL7s/GmnKIAQHF+XslH18v+GE1uWO4LD30EFb7QB1zko12GOFFfKKZM+rAF1EJYjlXz8j7YBW8oQYWcXVamuasUnTRHYyIGiYj3U8Y2HP+ExecOCmaw4q2uCxCEUz24nC8QeOMP/HFp5g1JznRznO8a8lxlwSTRfgIqJpYFrLhhJWj8jThEQ+oyKq6qdfI1emUjnlgw6IFb9ZsGBZPFKo9TyqONp2X/nDe5rCzsLTW1fDyvFX/+fXkYUc/9MFmj19U2qekfzt0PFc/uX9e880nlHYfXGyyS+CkBSs5/IXKRnft8X/bbEuUpd+3kMDqXDgspBJPHA4kcGloPRMdnviyolnzbsG3m2eHLsCg17tfvPrC2qGFOX10jiwYsnIRDPjBBYMIuNsRdLbJxHt9Efa25qBP99oQSBH5TrXco6NrdtGEwPK2uOS3emLap41ZEeTkiGX04LMN4OxEwksmFHL17QohryQcx2sVpqn2QEDHWsOEWjLAuv+sKevOHj5gcLyMAK0C3mapgMFoC1NdivGzrqYGF/5zVkoZw8X9Lqq7uGxoUS5HpQ87YEQAlJpEPzlhRQuzwQA/enB10EeSgZLwU2tR0Xql0m2paxrNcaV4emMoj/Sf9iNjy8MKsLTWlcDztQvumFaSZdZj+ivfLvhh516pxVE6w2zQ1Zx7dInrktElA/Q6hh45AgQpCBZpWdHLSCA29N4VPyZqHtC3MB//uuJ8ZFlM8d6pkII9KNrR0HIO/IGoPDdlwmt2Lcbdn54fmn5RQUHdK1dfbC028FLVPT2lnFizwMQAmN+PoNeDQGuzpJWob8rCjvru6FNcA50gJQNKhfmMxC9pGX6JdxKgb2UIrFPqmidYMBE8Wpg13CUmajtdN5NUzZSGhbgsXi7qF1fioClhQ/J6KeewIxBSwfef82LC2/bJTZe3leZkK5VYwx2SQxfGcZLuKjdngORmaiUMre0dElit31Wb9LHINRW0zhp/V8IyyeT+9eZqYOdkF5yGalF9XV9ZITIWqgdP6vYXR55cMDSrUCl7Gv/U6v5f1u2cFL1Fka2krs5VWxT9eyqB7HK5KPviFzsOK8Cy2Wz3Ub1qulu3nTRy4/Rxg6Sn9N6Plnz13ortKfvK2U36zTcc3xcT+ub3k94sjqE8W4CZap5HWVaqpXXvR9sW/GdJfDDsW1iAF664EFnmeGAVznXz+nugsfV0ME0kUPvEkSs486OTUddSLf160pjR2x87/6xehpbGkHtpyMuDYHWAOCzigYLudgTaiLNiaG23YWN1KcoK9sJi8krHMOgCsJgi3Rb6PbFyWYIBgR3tEKk7TpIRryyNurnkGlLZZZFBgAiHQFZWpJg0YRoP4yB6g4BXxAZnI6YtCXU6i5gNBT6W332zIzHhLnNpeksWskzKHwKVVmIMv3/rDcz+MXXxw5nDb2wckdeHQroRw8D86M43oADUZEI+cLPfU33fhoXboy0qEpjeO2hcjdqJOdm6PrdtxaJ/7PipTAt0tL1RMDWfe9Tp3iJ7HmYteCHmL9uR3hEnHRQ+rADLbrc3E5lu1PF1P/75yiKygAh0Zv+48bUHPl0Wj4QPrcFJQ0p/uun4/iMV4ZC0X56FRz718Iu2rBSpdlOHt3rMw8sc8VzBbg4H/nvNdDhMRFDHyZejd0nk4Ow4Fs4O4nETL/VjC67Goo1fSXP9/VXTa6478fhS1/o1ERabpayciomDBQMQ/QEwrwe+lhbJgnO267G+uieKc5vgsFKlBAJLwGFpl9upa1pOSb/nOfAMCKxpS8lntSZzDQuM4ATZYsrVu6IkDtq0nljLi/RYpH5PVhOrm8O27PObr42jAo/somPLLYEZ8h8NaTDgxQXf4v6P30v5DvTO6t9w7zHX5Ws3tMCLYq4B+VxYOUDNHh7c9L07uhgfAdWp3XpW/7nf2KSNTun4BFTPbl/RI14dqyl9JladP3xSN5vRbHj2u9fXL6vaEJOXdaTWaU95kzQbHDaAZbVap/M8T91mcP3EoxddN3nEeJUYv/Wdb+fP2VAZY1qr13npmL4bLzy21wCK9tHTTJ9mA4eyLCKPZdALWVga8Jry18VLa1u9MVEjm9GI5y+/DP27FcXmiSikUSCQhRbX8fD5k9ezem3NvXhv8YvoUVLe+uzdd/IDuxfb21avQtDjDfHMOoMeJgKsYBBBvx+cKMLvciHokpt2egMGrNpWjqIcJ7KtrhBIOSwdkksb3TrLwjGYaS08InyrW5OWggkwpcxynCeFdFl8FgE+YOdd0HPalmCaLjtxxKRSpdP2IJKVl7nuuPGLrpk4Tgl0hNk4bf0wCAJyc8ugUytDMIZ1tbU45clHUr4HAm/wPTX+XtgNFqmRoQMdKOb2IpuTZSHktr1SuWbpK1XryrWlYug7PafbfV3FsG2pCHX1GP/auWZgPKDqmdOz5roJF+V0c2RZaYmpq9E1bz+wxe33k+JYO47YOu0pb9ThCFhqS3cdz9cuv/u3Jdoo3nGPvTav1eOL6d9H0b+Hpo1tGFSa00PaXrI0CLBEVOSZIZCZoRDroeMp//92Y/2q699YFSMQlcHqCvQvKk4oXaDie66OUD/UhPfj+6bZePTdW3DNZVfs+tP0K7uLgQCc69bD19QY7szHAeQO6rOzwQIBqesL8wfgd7Yh2N4hGW5urw5rdpYj1+ZCQbZCgHMcLEY39AqnFY6yATomIptqXFHH53ofAlTmOMlwMRN8nKY5qWrIkMyhyCRhvoX3wsRpEqNVPRZtG6eVmGQMtQdx9uL3sdEVX27w4XXXtpXl5TqiAwfhqTIYcvKQxVll+5UBraRmfyStXEGc3evMvRf1nFRQzDchh2uBGT4JpD7bs335iztXWSjXL3pZiKN6ZPBxLJUKnvIFH920dM3chqqx8SJ/2ebcxumjL8Dwkp6SK6pSjTrDmoYrXnkzwuKTLo2xp1wu1y2debmPxG0PCwtLUalLUugTBvSe//gFp01SLaKW9vbqyU+8FlMXmMDqwbMnNAwqze0RsqyUKGCeRUCehepRRVpWqqXV5va0jX/027gC0f+77EocU14RSmTWvkyiaEGz84SExLr2Afq+6R18tekNzzP33BUsKyiwin4/3FU1cG3dFkmUczxsfXqBiaJkYUnuoBiEj9queykJmcETMGDN9u7ItXcg30F98uSX12zyw6CLIt6VCecwt5S1KJKma71L4pMSjSB4tDJbXK9Wl60H9DoIzAuH4NWUW46tVKrltKiIRG1DS8JGFBaDYduC227vHQtWkb/JKi6BySf/MWrtcKdFstN1FpjzKz8a/6se2ZyrdV79jp0f79nSMm9vTbdoS0pdE6WhREEqUSm5ff+uWmtNJPy06G3OMwef0n7q4GOiqwzCbHDju51vL3pm7qYY+cwvXc6g3ofDAbComsJctcrnh9dfVVOel1Wqgs0zc7+f89LC5SdGv2w3HX/sruMHlnVXOStVsmAUOPTIMUtuoZZoV8sR0Ha3vLVs/lfr9sS4mH8+fRrOHErlkWJTcb2+UrS4JoOx1ImyO/jvAt2Gezzjhw2yMdJVBQIItrejcelySWcVKolCCb2FBdDnZsv6K8XCItDyNzQiGJD74jk9BmysKlIAqyO0v9Hgg0mvHC/EZcmclp3zwCgGpMsWm/0SCZ/cyrLAxwkxm3AWAbxFJ0kAsnTEY0UlRMvKh9Dv1e+Dgg7/XvsTHtkcnxS/YMQxC+445bSJ0TXdtVIG3mxGjiMHgj8oWVbpRATVCxDA13Ac1+ZnwYQ1fKhMzPml/XFx6cCRyRKgpeJ7W5bsXNmyd3QiHVWxvazx1IHHeyf2HRQnesgkV3Bwz7U4/R8fLtvd6o7g7agqg8vlSlqq5ki0puJd0yENWErt9FdUsDLp9ZsX3XFLP9m9k9+CKX97bl6rxxvhDp539KCVl44+argiFApZUvT/0iwzLAbSKGskDBrwau3wtI177DN6pyPC3L8ePwXXHke4GAtWzvZj0eFNr39mTrcNqDgtVw7XBUWIAb/0uXfhMgRdYbAh0BIsZlh79VC4qwCZQwj6AkAwAPfu+pBkorXdhC278pHv6ECOvSNUI94oBGAyBOIS7ybmhY15Qu5aYLMTzJ3YypLSduKUV4bAQ7KyxCByKFIY3cY+unqD4h76zXqc9/mbCd3B9347o6YsNzciBUqr0KD1sRQUIEvsnGWV7MUmAn2AI7f2yrIhBZMLyipSgdST237Yvbypvnc8bko9z6CiYbUnDRhnGl5SkReOu8QGafoWbwYv7Gkb++hnobrw6jEy0cHwXTtkActms03mOI7i3SG1+gUjRy74w6knT1Qto+b29uqpTz4b4Q72Lsxb99j5pwwOgZUGjMx6HqVZlkiwUsBPtdjOfe7rRZvqWiJM8uGlFXj+8usiEoop+uYP2NDWfhwCwZiIeMx7YdRXIitrJUpOOwa8idTwTLaYAkE4N22Ha2tlDBja+1eA1xskUJNSWvz0GUTA1QFfc2voHHXNFlQ3ZKEgqwPZNlnWQIN0WCYDqdpjQVaPALJFhXAnXVRbAIGdybksEk+KXLjvoXoePs+An+qqcEJxToQOS1qwBNUbtvL+9tM+fiVuA4g+hUWL3vz1zeOj03G0l8EJOuQU5sPT0tIpy0qdM3FRRSaLcYi9wHNCYTlG5RQPT1FGpnV27aZNn+zZ4k4FUkTm9y8Y1HT5qNPtxVnZ1tC8pZNH5QwBKC2oQffc3Zg1Z82cF77bFOMtOJ3OnCO99HG6FuIhCVjaiKD2Ql6bfvWuQd27d1fduRe/+27RP79bGAIXoyBUvn7NZREEu1rIiUShFbl2olvC3JWSI6iCVWVTa+0ZT38aEdbr5sjB61fNhM1EbmS4u43XX4g218SYXMDohdfxLbBZfoLJ3ICC8SOgz3GA11FrLYqoifA2taDhu59iQMXcvQCmonwQt0VgRW6gHCUMwNfUgmBHWENVWW9HQ5sFxTntsJkpV1C2RYz6IKjXYLzSLLwYRD5rDBPijCGw2UUZ0AmfnUTkO5+jx6fb12Byt1yUW2UDIVGXHfX3929aVvOfrSvjJpH//fwrt47rPSCilns05hqy7dD53Lg4DWGoekGd7QVIrt4nu7fu+XzPdkeSZOTQelXk9q0fVT5CnNh7aK7VaFKiFBTkUf5kRJiIcmZ299xdKMnfJW1x9EPvbfL4xVDjCmkdM2LRiOfxkAOs6IJ86mwpOrj4znvl6KAiPbj4xecXba2vDwHWfWedXjmopEgqRaKCmkykMziMAops5pgcQS3xft7/fbxoc11zhHX12vTb0K+wJIIId3sq4HInjwLqdC6YDethMe2UOKPcoweCQIjT8RKASFJVcgXn/whfK+mlwlk9gt0CR/+eigVGbiOBlShxVsRltdfUSZon1W7aWJWNdp8eZQVOmPRi6PcGfTDMYcW0EuNQENylxBlkSyi41yPXrEowvEyP9jiJ0ZSq869132FiUQHGksBbjQpG5RCqvxcZh7FzXnM1+zy26FM5TOZVX8+4f1ji3EF5nZz6YPOMl5/JSaViV49PMoRFx11sSZYrSFqr93dtbljcWJu92+ceKDIxxj2Lnm9Fbr/6UeXDxYm9huVaTSpIaV0Y5T6pEnwFtHS6ACqKKpFjJ60XQ2VjW+1pT38Ro4FJtyBluhbK4b7doQRYSasrDCwu+eG1K28YpeWexj72QE1QlFuAj6qoWH7byScerUoXQnkaSrWFHtl26KnKgMpdRYlFKxuba8985r2IB2bG8efgoqOnhMCKgYerYzi8/oqE990g7EJW/nYwbxhU7L1LYetbCp2gA+N58DwHUWRwbapE66bKCMsNOh65I/vL0TYVpCQLS+a6fC43fHubIwyOVdty8f/sXQd4FOXWPrO9p5BKAoTQBIEA0hQQEBVEESwXBUXFir1dr4pevVZ+y1Us2FFUQFEQEEU6BAiE0BI6SSC9123ZvvM/55uZ3Znd2exuKN7rZR59luxO/b6Zd055z3s8NAW9OjOifpwlqFF4SHOK4L6HjKWY6KkBCRt4R1DFchlPaWjpYJIthCCMAcogh2d2rYB7+gyAy5JSRBtV8KkNS6qLml/N3ybawPTRcVNOzBwx/iKeKHuQgbijvCjvtVXfDjPbbRHdv2IaV0g7yG2urd7Z0ug90FIT3+hoDeQ9hZzjrrG9qkdmDJGMyURLSqMgisyciqAYiZj9jsEqGrQqO/RIOQVKJdJAGJ7cXd9sDiov+6s3Re0IeEY04R3ZcZTbCDKBYts+N+mmvGlZw4ZzFlFlc0PVTV/MJwAjlUjql943J4k8rD4LDH9hAvNamRRSY/BBEw+0IwjesODHrSVNRl/r70HpPWHBjCd9DwtNy8FoGQ0er3jJmUzaDFrNYdCn0OBoMrLpfRrQWkoY0Rcw5kJJJKyFBeBpc0B9dj543UzPP85viB2QCVKsS0S+FckKMu4g8+kBR2MruC02n5tntsmhqFpH5GS6JTK8LG5/GqUbZNLAmAmzAoJYvLsS5DRTA8hl79wn25EmxUAKrQdvgGY6kkdHLH8bHuo7DJ7sP1TQuIJfW8iB1uQdy2uLzc1BpScGlaZg/WPzsvigy9ii/gF6Z+Py7b8c3Blx3SjeBa/2G5PnoRXyXS2NdL6xKq7FYUxxe12hxe55NyDGo9JiMpq7x3f1ZqX1VWalYQkPJ7TFknLZevdgBq7QvZZLnZCeUAedYhrIfcWBHCZ6Rr/9S1CiJwLrCp+bLLfbXWa320ujfOb+K1f/TwCssGCFI/vzfc+busR3MnCg88m2PzZ+m7uNBChvGDKsYPrQkVl+N5ABK45/lR6rB5VM4gMzAbMdvFDR3FJ1/YIlPutKq1TDojtegM6xKMKHt6EMTJZR4BHxECjKCRrVMVCpq0DbuRO01TQB7faSm1Eil0H8JT1BpkdXVAISmYR0qaEkFDTlFYK9voX3LNKg75kGqqRYEtti3ECaxKyYbCIG6GmwlNX6228BcplUUG9Ugl7thqRYoTunV7tYF1j40HOoluCuAJkXpWGYbjv4HLpPW9ttzWUBDThBSG/YYS2Ff+z6BRaPmwrDE1IDLCwGbzhQ3NVc67or91dRkfl3b3yw+NIe/Xryawe5TIeX9hpnL3r7cFFD5ehz+aRpFHpr97ie5n4pfdy9k7rpeiSksUmfwNgerw6IPSG/Wy98SaCgYqKhGeINON8s2LFhCwTnp5Ztz954vFJAo2nPuhITpaRpOp+m6flWq/Xbczk+f/a+/1TACqQthBoMjF/t/Pv7aT59KvDCw0s/3X6g4tTlaF19f+/jST5eFXk+OEuKBoVUAl1jDQJqg9/SYiyyO7/+YeOhqlpfduax8bfA9EsYCoPXqwBz2zBRy0oqMYJesw+kCjeok2PAZbGD29TmUxrV90wFTVon0uNPgnIQCFZSCTiazNCUd1JQK6iM00FMf4bC4HV7GYsKOVmELIqsdC84WizgbGLKcfChRrfyaLkO3G4KEmNcoNcghYGLhdGgV3tE+x9yB05wnWItLD9Pyl3VBtAWmt5gpdXgoHh4IwF47cQGWFt2BBaPnQojEjr7FT9F1Bum7FzZUGhuxE6ngqVHYlrOd3e9GECYZCzB/IrC/U8uX6BzuJ2CgHRHHh4EpBhlHMlY9EnqTVKqA9P6KfVKrTQzIS2WuY8Cl2BwYtbwr+tv2QaglDtAo3CCVm2BWK0JlAq7wKLiYqwkukXTxqxXlxoDC6HFrKsI1XNbvV7vv6xW6wcdGZ//9G3+NMBi2etbI2lUytzMz/tqB/Gmmvjh3AKTvS1r2qBLC6YPG5UVGLPiaA1JOi1pXBqqwNloazNNeP8TmqZp4utlpfeGj299nqEd0CowW4eCF2VWAha5rB606kMgkdGg6qRnavoaTD4wkelVED8wg/CtJDIZ8ylF/hcFjbmF4DRinR8DLlKFFDoN60lcRmJZedGy8jAxLJcHKPK3C2zVreC2YY0hQ/5stUihrF5FzqxLoh3kPMNHIvGCTsXXwxIWDOP4pLhOAOVlxfwQo2iAltOtoPcEE0S5y7fSSnBQfnJsjdMEN2Yz8jCLL2csLL4byHc3dzfXeu7asyZIZIsCyrT07ldNXeKT0/nun8lmMb2w5ouDB8tPhqwTFXvA0I2b2HtyU4+kDEWP+C56nUqj4JxKP8jw9JO5uh52Z0jiVMjRnUZ3nbOI0C71B9BxHbkcKwmcRENfIXeSqgL8NyP6yLiL/u3R4mdiWP7vafhsW0HOgm2HBEAtZl2xrewEGs/EKgaAFKUWlBIplNv9kkE0Ta+yWCyz/2p0iD8FsKIBK5yQGwaN2/73q2718a8QfC5759FWiqLkn896XKtVKlhOHlfIzGQJ95w+WXhtv6zkGK0qhrlJ/DEsjtn+1rp1238+cNAXE/l61mvQM6kr0F4lmNqGAU0zgMBfFLIq0KiOAyWTgMKgBkohBbfRBh67v8FCXP90kBlUhMKAulES7HIqocBWa4TWIygjw7lpALH9u4AyXstwrYg7yFhYtMvD/O3ygsfhAmtZg4CiUFSlgDa7BGRSL3RNEvKtMKalkgc8lPzO0OCGFNcxoftG0/DTrny4MSl0/NlGK8BG+cfktePrYW3lUTI8WybOhC4aAxO/w0VQQ0jBlJxfGk+aGoPq5Mb1uiT79akPCVp57Sg6UPDSms8T3F53+9XjAXODYPXM+H+09UhMJ66cVukEhcxNkg8KmYuMFcaSFHIvSKUukAtAiaMg4H0iDKQzYMX87o9hMesJv+dqVrmmtmQg2LPkYl5crJWGwa8trnSziSPuUgJUGTBkspLf3BeBSoIaYHKVZ26fS73XpWbKHzy4EbIMCfD+aaTIMAu6iRaLBeOyf5mGFecdsKIFKxz4edMeKRjTMyuLfXVDZWtd1a1fvZzWPy3zyHOTbu3P3DQsGLEFzniTfLT599z50+8YyW0XWOCMf4/4vzd9mcZJ/cbA85MeAKBlYLYNAq83uJOXQl4BGmUxMSIUWiUKT5Gbx9GMNXyMyYTuobZbPOsGooUlJWCF7mDT/lJwtrb5DAllJx3E9U9jwQrJpGxRsosFL1I7CGCrbQWXiZGOweMgDau4WkHOI1bnhnidEJzUchpkpPCZh43sQ4gWmtxrhkR3sY+ZjiCz6fQp+OngIfg062oxw4V8ZwcFtAEDWAdaKuDhfYxCqk6ugANT7vaBVGDB849VRdaXDm0LMlWVUkXhxic+96nFmuwW0z/XLDh4sPxEVFYVnkOMKr5x3pQ50p7JMXEqpR00Sozp+d05ZnpYMBJ8H7lFxGX1QoKUD9RCgBTPjfx8R/6uBVsOXsYfbJqmX7FYLNgUGAJDJpxFJaMk8ESPoc77Mwf6KtJv3/s73NC5F+xrrYVfqov+sqB1XgGL9cGxiFlUa10pVxQ6XM4gqeO1Dy8AvVrjs5B2FB8oeH7VJ1kvXXd3Y+/k9AR+zIrLEv68b0dBj8RE1/RLRg8NUhJlA/Jf7NyS8+WObcQc1yo0sOzej0Cn1ILV3h88HiQXCxeZFAXyThCTXyKXgkQpI59oWXltLh82xA5MA5kS3UCKuIGcheU02aD5YKWAepA0MhMouYS8hAmZlMSusNDZS3haGMDHvy2nG0jMinMrSmqlYLZJyN9pCWg98LEJ41eMJcDnd/HBS+ethRh3hcB9u3/tr6B3yeBc9XKAAAAgAElEQVSt/qGxwk7LoY3lYt2x+3sosjSQQZqQ0g0+HTkJUFE0kOFudNjh6h0/W1uctiDA+nTGSycvTu3Vx2Q3m97d+M3B7OJ9gzj3PCRqivyA/K1fHng0I0arjuGoLRFZRGRQ+JZP+xYRJwvhd+8Yi4qTOvW9PBkbh/c9cxxcKJkczA63eez/LTK73G5fbSG/ZjDwxc6BVaJC7Vo2/Hp5ukb4Mh2340e4qXNveLTHEHjo4EbY3FjOBy10D2+IZjz/U9c9n4DVbjYQ37Sr5ryRfM2CZwS8AblUVrP58UWpfErCWxsWrl93dPeQr+96OVEQQOcx1+/99t2KrU++1SVUgTN+P/WTd/JqTUZSaHrnyJth9qW3gMOZBqgQGrggY12rZlwftFAQZKRyGfn0mB3g8TAxCnmcCgwZnYCWUIR3xcSupEBTNJiLmqCt1ujnSaUYwNA7kYmXebwEtHwWFoIWG8tyGW3QVmvyxa4cLgoKq5gSGaWMhs4JfveDxMQkNGAvDD5YcVLzHGh1cp0AtbfVZ2FVGI0wbukieDhzMDzWAwu8xRcHyMEKanj/5Fb4qdzfS3Bu/0vhrp4DWQuLJ97npeGN4gO13xXvD6IxjO05IvvVKY+P/TZ3Rc6i3F+CFDgjfWiYUp6HRvncNgFJM4zbFrFFFIG7GOa4FIYGVBoS03z2x3W71+w9cin/GjlXUAys8J67LK6zdf7AK7QxCn8M0UN7oc5lh/HZP8AVCV3h08FXgcXlpG/f9zt1nCfbEwFFItLh/lPXO1+AFRasfpnzdnJFc03dnB/eElhYcZqYo6vmfHYxn7n+0q8fZDe0GTs9O/HO/lxw3W/u05BXerTot/ycliX3zB3OV2UglhgTEQaT3Wq6+oNXCJMZrasf7/kMVLJUsIkUMVOUDXQErPyFxFKlDPAGlMql4ERXjV0MPVHKWEHcP6QvEAtLwlgd9blYL+inGCQOSydWGon5YD0fsbBoxspirSv821LRCh6bPz52qoaGNgezn3g9BQaN0O9TymlQEJKs/3v+X0B7IN29R+C+Xbd8CRxvagwLWBjDWl5dDK8f2yC4cbdeNRPS1Hp2Ovw1hEcsJtdNO5YF0RjwBXXb8GkN3+5Z0c3j9YTs89je04HB+vtGjzt075grRp+rGJPQoup4bEuiUIJUbyCk4bLGlrrJr3+q8Xg8PjNJJlHMazE2zSUePk+dhMsIT0joZv1k8JUCC9XsdkG92w5FlmZ4/OAmbHwBi4ddS4bslKWVvnXvGsqEbeGYpdRsNodmPP+pMBT5wc8LYLFBQ1HxfLxxf5kzP9mgUsfsPLW/4PlVHwtE88b2HJn9ypSnffpXGNC5+ctH9k0fek3M8Mz+vbgUMVcziH8/9dN7RyZffJn5gcunXBqK2f7OhuXbVxzcTYLtd4y4Be4ceTu02QaI1AZ6QKs6BpTEzmOMg8/CQnfTY2M6wEhVMtBnxhG+FQErQmWggZJKwdHaBsYTKMzHgIiykwri+iaDF3WukGWOLdxJQTRjWRHA8tDgtrnAUuqPmbaavVCBuyGWHkCXBAzoC8EJm/eQ/hAB9CvO4tLSdYAWFmkIQdPwwd5c+Gj/HrLPBVlXwZVJwRYmd0sdMJlhxp5lgjtsWKdUWDLqevJdYA3hzbtWWw6b6oPp8ZHfo6JrahTKU9/PfkiZHtcpnZ91Y+4HfiDc35nCHyD3u2d+d1AstsWLeYnwpwSBeTY2FhjboqQyUMTGAyiVRKADtcymzPviWFFFhU/eg6KpcpPFhPd9KydUScaSpa883WOYIF6Fv9U6bWD2Mi+xVZWF8FVJgQCw8PulFcc9r5zY5cvKYuaQoqhFLper4L+VaHrOAStUbSAOqISizEtnv093jk0wYFzo1bULcjcezxW08b5r5K05d46c7qc0UDRct2D20Y9mvnIxA0b87B8NNa319c/+Mj/ph7vfqOwSn+jTzeLXIKKldcX7z5y0uxhez9LZCyFGdSl4PMEsdpXiNMikrUH+FYlhkYaiAG47Y3kp41WgTtYSi0oqYywrtMLwJBF0bPUclYGG2N6dQJmgJttz3WYYt1DoHtob2sDebCMPIf5cWOUCt4eZNo2SgqRY8hj40Al/0aqRveQv1OaY48zBaEhx54GCbiPHOtbQAFNWLPWBwubRt0A6WkoiCzaMmLVvLZjdfkUIXO2T4RPhypSMoBrCj0uONX14Iie8lEWU4HVFn/7b5t1w2zhh7IkXS/KBVoBFxCZkIott4Umx7iRHUWDjXUExLyJ1RCDGB5ZIGpbHxIHMwBCBuf6WWwpOlzz44ScCS4dzBflNVjiwui6lh/vfA8YJeCZ8sMKjvnE0B3Y3V8MdXS6GFy4SPD5wxY5lUGUXr16gaXobm0HMpygq32w2r45yKs776ucUsEKpLhDrACjTx7e8XnNx5159KAozKh54ec387G1FewUR39eve6FgVM8RWXx37v6lz+yYO/mRMYEFznhTvLn28wNFdaW9s59aqPP1GWTdQF9ZT0td1S1fvUrS5Vf3vRKenvAKOJwZQYMvlbaASl4uGgxClRWZUgpuJ/KlGH6OvqsBpChoR9xAhnfFBN4paDnRBG4zBuYZPlTC0GRigRElUewi40W+FVMQjbEsjInhfo2nWwGQ5gAA9S0eaDD5m6CmxEpBqRAWr0ilqFcvDVJE5S5O7a2HJM8hApImu53ErUxOBoA6q3Swdcyt7YDV72D2uxhkvaHxqbB09PWMNcBjtB+w2dvu27lME7j+mdzhSCD+fOYDlgHpGX2YBzrAUvKRhkNQEqKJbflAKly2Txjbkmq0oOiUCFItI9tM5pU0JPFCXYPDfsNr81obWxt98TyWejCYlVNCXqLPskpRaunsy28VPKOBYGV2OWBG7q9kWB/JHEyC7vxlR0Ol69789aKVBSJz0YoghpaY1WpF8PqPo0OcM8DiT4DYTTpv6kvFI7sP7sncdDipNEz77L6jLW1GQZfR1Q8sB51Kw6sRpOEfK1/Oe2j87OF8N5ADo3u+fbZeo1DXrX34swF+qoOw3+C7GxdvX5m/nbiDn834DNL0k4JcQQpcoFIWAxIw/b1R/a270O1DC8vrpplSHIoCQ6aBgBCCGXaTIcF5tMIoChoP1PsMIbleAXF940mKnenTh5/AxK/wEwEK5V6sLrBUWIhV5HR5oaja6XPzpFIK0jvJA/oO0qBSIC+LeSUILS90/zyQ5skBudcKRrsdbvt1BYlbccsdXS+GF/oI4sDkJ8ayCgYr/G31uJugrx7L69hAOwCsq610zj20SW5xO8/K/YUvt/F9Bhx4c9qscf5snJAXRckwYysBqUrB1GyybjIHGmRgvR4y5jSKJqLKq8vJ41VFx5/iW1QStQoUcfEgi40HiULOZkmZjuH4UnU6vWC1SGDuom9LNuzJDoojIWhxIpWcZYVj+90lk2FEfKpvfjBmVesWFqdvrC2BD4r2kXVWjpgG/QxCg9bp8cCQbd/ZXF5vRLWT/GeVBa9F/0nlPmflhhIBJFRewHbyovSFu0bcvnPWyBmjGcsKJ5WxsKZ+dleByW4RxLA2PbZBIGeMILR43w+nxvQY2YOTjuHAqqK5qvSlX/+dMbTrwD3/vvnZEf6AO5+n5YWpnz6Z09xmGpWkT4JFt68Htycp6BLksiqQy/xlMEIxOQQjAIlCCh4HE7/Ch0XXRcfGrhCxkH/FfKJb2Hig0ZfiRtfRkKkn9YXEomJjPwhafreQBnu9DRytjPVT2eQEo8UfeI/RyiBWi56CMOCuVeG5BbqJjHto8JZBJ88RUbDCY4i5g+214Xq+/2UwuzuT96iwmmBLbRksrzjhOWlpEW8Z3QHzqkdi553zbrgzo0ssG6tC/XilAiQKGUhVckCgkqkUpEaTWLRowSJJF2OH+InQjeCF/0mYOwJ5c9zfHoeDaUzrdAK4nKRBrRe/83pYVQ0vdlfjtUqjQYpEZTyuVkNcPgQpcn/gKKP7x8aq8FgWoxecDgpyjh+vfOKD19tNLnDUBXzR8QPoeA2YDSx1WIGxtf3LC4e2QYGxgbWObxEd4fV1JdZPSwpcLU67q9ZhDSqLimBaStlynz+9TjFiwMJUq9VqzY/g4kCn0x3k3hiB64/pMSb75WtfGsu5gT4LC2gYP3+qYHW5VF7zx8MbGEoDS1mgwQNH6o5YYpQ6pi8520gCP7/d9eOB7MJdQ24efO3eR8ffOSyI2Q5eMNvNpmsXPEyyg3NGPwKT+/0Dw+WC41KUHVQKpqmp+IJMYwkAvkzRwsJmomoZqFOQ2Y5vd5YsSgLujIXVfKjZZ6mpU9Sg66zB8kDWbcDro/zUBtYtNJWYidVld3rgVI1QDbRzJxXIpEJ3EB8sjVIaZBHiFzKwQppnG5jtbXDb6uUCywqvkUmJ+wmjJpcDPj59AL4tZ6gcgcv1XfrCE30Gw+aaUlhRcRJOmNhMQCQ3SATrICfv1Smz2sb1GzwIgUmmVYNEJWcqBljwITFCYknhS4EtbifmLVcGha0cud+ZeSBlTcijY8GMZHBZqgrZL/5OeFnc91wAn7NY/YF4BqSYvxnTmHFRiTBjGw1tZi/hz5qsZuc1zzzodTgdwWUTvLHgW1dv9hsDN6X5E+aBriBudqi1HuYeziZ7EHMHyQ/+miTfkdBiPm5qgq0NFc15rTWyVpcjrO4XuzECFxZY/2l1ihEDFrp4FosFg3TtLjqdbj5FUY+LrWRQxRSvuG91TwJWJKvCWFYcaF3xwRTBZnqloWDFfWuy+CJ7bo8TqkwV7E3FUBSYi/DCY8ueLbQ4rL1fv/75glGZQwXbceD166HNee9uWki4V9/ctg46aQcEnapCXgUSbFkl8Kr8dS1cLR/WAHqceP4USBQUaFM1bO0g99Awb3IEscZDLT5elDZVDepkJVPA7GELmZHHhRJY5JMCl80N1goreQZqWmzQavErMShkUkiOUwXwrJDKIAGFHMmk/oA7sTjQFfRuBZu9AW5bLXQDuYvnW1d4Qz93JDuk3jpuc5Gh01kHKdwvxqnuuXxKxX1XXj9SjoKL6HqTGkwcR9ZCwr850CHgxVhU/vU4UGMsLOZ7fHlwFhcP9FiwI+8+3D/NgBx5zpmMDhvDxPuV15SWfdv4LSrW/bO7wWqmwe1k7kuvxwW3vvz0seLK8nZF//lgheecN/Z24PhWaF2ddgQHzl87uhP2NNeAXqaAzaOmM+tzBpgfX8k9uKm+LGT2F+d7V1OVbXH5cVu1wyKqU8Z/SFhliNmRGjDhMCOa3yMCLL1eP42m6dZwgIXroSstdgIyiaxx/vQvlX0Se+l9IEX7wepY7dHCR396SsDB6pXUd++C6QuH8cmfDo8NaszVwq43NA0Wh8n6+E/PEJ7K69fPLRiVOYIURAeW4zz+87+251cevzyzU0+Yf9OWIOtKIrGCXNYYyAgQ/M1dn0RGwiLkzSpVSkGdpGSZ7eybHZ8LEk+hofkotpVnFk0yZhP9NxdXe+eLYXmwUaoH2moZ3aviqlZwIe2BfV3GaBVg0KJ5JwxVqWRSkKEbyvsen7kk727w2E/BbauCLSs8Hz5Z9ONTB+AjXj1aNDfTmawrk8qq779qWtW9V904jKsOIJ4bqcFk3DmCHzievu8R7BmL1v89a0kRN5C1wHAX2DUbXyz878kqbDaXs7RYC445CAda3JWxaEAsKtbSAhrcqFNm9YC9jWaSJaSG0gtgqoG3vvts97I9+4MDgwGDFQhYJ6+6x7dGi8sBjR5hZrbWZoF79/1B1vFZVyLWFLeToVu/h33jZ4WdIgSvpRXHTStriuTh4l40Tf/LYrG8EnanZ3GFiAALrSake4QBrJBxK+wR+PSV/2wcnDasW4I2gbWshBZWzqmdBS///rIgfjW6x4Tsf056Y6xPvwpoaHOaocFW57OsmKwbDfvK9xZ9lv05qdpd9cAyo0GljeFvx4HXxI9nnnS4HH1mDJ0DM4b8M2go5bJakFDuQCzg/c1k+fCOxbgVFiZzpo6ui4Z50xPtLSbwzrzhKTCetoIHe//RAKoEBWhSlIwbSGIeXOCddQtpCmxNDnAa3eB2e6C4hpHR5ZbkOC0osKhaGFcHjUrGWJss4Qotghj6GNQ3bIE5f6yBKrMfNLl9MbGS6yCvpYZYVaFS4GfxnhPsSi6TVT8wcXrNXWOnXOIFKXiQPEtLMEHKxJxwyFjLiGAJS8YlWVocXwkNMrQqkcSLHXyw1lzBt6zYbC2JJfK+J+DFt9QQ3LiYI67HxMQIBrBghifOWFQ0uJxecFjd4LR5iDWFCQ3GovIAZWsGuuokbCrYl/OPFb8H9RgUG0sJw1ohsQmDTAF7eeBS4bCCnfZnh3Gd90/mweb6Mr91JcfShtCz1GfjQliQdWW7HDv+1hgSWFh62P5N2WFw0N6QriwG5t1u9+zzxeuKFLCwBuPJ9gCrPXLolIG3nrhuwE0XxShjIU6NcXi/ZcUF3nedRsB6UQBY0wbetnfOmKf8FhbtBYvLCE1t2OKKyxIxbuHXOQtzd5/OISSUzY+tD91+fj7DX31zyg/QP1UoXImxK7mMAwe+Te2fSj5GkBgKkaFhQEydrGAeFo7SQNwWjJkA2OucYDe6yD0l1UghJkPNhTx84nlYK8jUFNJgq3eCq80NNocbyhpaBG5eeoJBQGJl3BeMXykEbqKOLoNDp7+DZzdv8FEX+DdlH108vHjRpfDRqf2Q11J7rjBJdL9xWsPhW0dd55552ZTBHg/FdONhLRqKYtxsTMagBUSz5U1elJf2Bcx5gXXOEiJy+YxlhS8JzOKixSmRAwNmMuYTXyiEJ8fFwogl5re0yAuJxAcREBnQREva6fSAy+4Flx2zjUysipB+ufiVtRHoumKgLS1wuLKqcPZ3PyaHq4uMlSstz/YarsOC5b2t/jngW1hFduGLJojKkDmkXbDCCUDAYixpIe0h3KQjcH1ecqj1q7JDogk0dnukQ9wQzgMLd6xIfo8EsNByammvFqk9VzBJl3rslSmf9EMLIV4TDwYliukJY1cIPrtPZRe8vPYFAWC9dM38gku7j+UpidJgtLeA0dHIFpyyMSwK4F9rXiioaq0g2296bDNPcZSTnPHC7pLdBS/++jpZ59f7q4LGB3lXEsqfiQs1gAxoMYF3Lz5UmNLHLjUGOcj0+JZn3txIPUCwQtBymNxgq3P6LLXYPkjVYET4mDczL/BOU9DW4ACPjQab3Qlljc0+N08hlUFyHOpvBdPDdGqF73sNXQnL975Jf7h3TyRzHMm9csbrYOPS3indTzx69eyUvimZXSWYlKA9IMXYkNcJUlJM6eGRMNmXEhPZ9j2UlFzGjKtUBl6ZnMnSSWRAKZXglaJ6Bi+GxYESaykxsTDGcsJ54mJfBKNY3hwbbycuJJH6oSWsygPGsFiLmCORup1AmZvAXV8CFNGj8oLRZjNdPf8TU6BsDH8AY+VK07O9hhtuZAPrzx3ZDitr/CoLfGsoELA4ZrsvdhXGuuIAKzDzGM2EVtrM8EjB5tbj5qaQwOX1ejGutSia/Ua7btibmeNTtQNY7biCEvPb036gtCq1Dh/peHUnMKgwIRFsYb3+x/PZO05tE5BGX5r0ccGlmeMYcT6W/Gm0N4HR0cTrioOX7IWnfp5TaHFYSAxs46PbROWQ//X7a9k7ineOvTh1GMybskowVhS4QSo18gKrXIDVH2gVy7gwbgvjrmFMS52IPCAmgMul1ok16AEwlWHNIQN3unQlyFSMi8LJExP3h7Ww0B10mj3g8dJQXM29eWlQyOWQFINM9AB/kGg/MW5BVcP6ln9vfSfueKOfYxXtjXE21082dMq7duB4elrWFf1i1Vo9jjVz43FubjuMcq7MhlxuMKOcqWAIUEtQKIBSKIFSqoFWa5l/s5YZyQqS/wKoD7h/8j9zZoKAewCVAFw2AGsLgLkJaFODX6yP0b0yjnr7vVq7yxVSHXVORpb9yV5DBW4WBs/v2L/WN+xcITN+Ue6wgoPnEj5XsBWOmBqZzO6gq8JaVwg2E3b+FESV6MgcLyw9ZHuveD/tpr0ase3PNWhFAlj/oijq5VCApdfrEVHvFDv5Fyd+mZ8amzYIg84IKomaJNAqtCyYCEHrtXXPZu88tTUAsD4pGJExXpDta7U1gNHR7Cub4CgP9y+Z4TuFDY/sFDacYBtT3P/D/TmnG0+PunXIEzBz6DNCwKLaQCrhmOhB8WwxrGK2J/v2g4cyTkIoDvggMS29vCwfCN08N7isTCxCGScDdbzMLxnDEqoJD4umwGlCwGKAuqyhAezIE0INLqkMkmLxJcfj47CHVysV8PuB58qXFGzpanIIg7QduTnPZJtkXac91w4c67oh68oBMRpdjD+by1JRWCa5T5kzlMid7zojUEvgQJC1yPxhAxw4JUjQApPLQSJToDlFuFQ0Bu1laKEhyRf5VGyWkDD3UaLaBRKPC2gsb3FYgLa0AuVBS5kT8xMy4Wd8uXBnYX29qO58ukpv/HjQhBhCtBVZUNOK7xZyxNEmlwOaeUH363YwGmTP9x4Bd3XrH3aaMD6JJVXTUnvBW/2j6t8hum8MzN+1/w9TKDrEuQStSAALCyaninWfbY/N3j/10u2vXbv08moLmrkMOCVqUkCjwEQe/o2uFBd498Lr65/J3nlqswCwXpz0acGlGVcKsn2tjkYw2hrZFyGTBaw1VtS//NtTPvbn+kd2C7OIrIV24xfXF5gdpqy5Vy+EkRmTeJOBsSYrs42YJgtbhMo9XHx3DEMfJMPNyR3LsaaQrTNEt5FLxUsocLV5wNbAxD+kcglo02UE79BAI26hL4bF8LvaGhlLpLXNCnUtCNLohkohNT4+qFYwv3xL8Ze5/+rSYLX4tUfC3spnbwUsYu+b2qPmqr6jVJf3GnZRjFoXw1BJOB4TZ1Ex2U5mvFi54HYUORlTLARYhawNZMp2BDWD5FI7Xhsoasn5KDXMBM788suQYCVmVQWO/jFTE7GyuHImrjYQaQ0lDiu5Hn52kABaXGpYC2tR2RGYV7gnYoCL5K7A2NYd+/8I6SKeKzmbsICF8StkrIudQCiCqISS1S6+PV+tVGhiaiyn2ZgVC1hytswmwC1844+ns3eWbBIA1svXfF08tOs4tnyHyc602uvBxFpYjJVBw8GKXUVf7HzXp+u7/uG9PAVSP7Vh4oLLjRgEfeO65TCgMz/T7GF5V7xupj43w+99MQ9fsDPGxbQ4/pNCKwWZjmNeI1OazUZRFJiqnIjXZD/aZBnhb3FghbEwdAEJiCG1wcTxeSgora8GJ1vHl2joBApsYQ0U1BjL69/a+IC92lzdNZIb7WytE6uOPZbRqVvroPTecNOQiRfrlTqfDLUQZPxywELwiq5Gzx/DYhnlAm10xl0MAkfWXTwfx53x1Rc7i0QsK5VE6vhx+BRlKKsqcD6QL/XGyVyotlsEWT2uLIcPWCTOldgtLGBN3b2ScOo2j54esrC9o/fFo/mbmzc0lIpxt7AZxvizzdUKB1gk4E7ecTQ9np8F0Gq1T0gkkvfFLvTey145cX3/ey+yu9ug3sooH+IbKl6VBHolF8Niy3LY8pw31z2RvbNkowCwvpyxC1IMWM3AyR97weRohFYHqlyyb2oCWDsEgPXHQwcEHZ7JzQxe49ULLiNyDMEBdxdIJJxMbmDsKhDEuL+DqmIEaIauoRTBiOi8YJkIs53bDmBvYtrHy1QAqk5I5mKKpznVBgxXMDWFNHELMXTjcDmhvKGS3JxquQocXmP9pzkvN5yo3y+ovezojRdqO9RIT9CmmtNjujsy4ntKMhN6qTLjewS1vsL+h4ih+L9CQQNqcuH/KgXLAve5aTgaHNlXqMgZlUXUkdhWqOMK1BjCWGIBx0UwZMCqNsgNRBdw5cipMQYMikez8MmfvO04tvstu1aB1eMSVWcIPMzZjF+FuoRQoMUVdkdz6eHWbRewAirIfVrTaHGFqhWM0yQd+WT6tv5aRQzY3Vaot/pLXOLVKaBTYA0dzgjjFjJg5IU9JZsKXl33iCBL6AcWLhuIWcJ6MDmFWcItJ1ftW35g4VDuYv946JAvS8gVQO8u2Vbwytq/ZyXq0mDhzDyBO4jHD6wVDPzbH9gVMbEwdo6X4stmMSClipOBROZlYln4UGB2yusFWyOrewUYpEcmN5M6Jy8GUgDNBvJRsIE0oGDArNncCjmn1hs3Fi71lLQcCstIDjf5gb/HqZKMMeoER9e4TPeAlCHKJH2qKkmXzMgO8GJmfotS+D17BUITFGhQywFUStQVo0GnYmrzwlpE4dzFoNiW35ILciOZkfXNT5C7yAb0hW4qR9QNcF8FgX/aOHPh54fFwGpkXKrxo6wJ0YMVNykhQAsD8F+XHoIfyo9BX108rBp5Q7sWFlMLugO+HzoZhqP7eI6WO/etNea21ATpM9E0/YHFYnnibB22XcDi0xX44vihym+QIPrPa76BfskjtRq5HqxOEzTZqn3nGkcsLHzO8CbgW1geyCtFwHowBGD5Z9HsbIJWex0vS0jDFzte259fudun67ts9i6TQW0w8LXcc0sRsJ7MujhlJMy7fkWE4ydsjcXVmAnBzNcXIohqgAdRxbO8LEJAZ7qduGxecJqYGA5mChUk6UcxIn6E4sDE8j1E1A8Ln0ss246vLvhx//xuHq+7Q+qc/AtWSJWeJG1nc2ani9sS9Z0lybo0+YDUrE6Mu8s+KfwkJA8cuP0IQYv3lIXZDtfUKLyg09CgVXpAo/QDQ8djWwFgxQX0z4Ylx4+18cDKZGszXbfg3zVi2cApKT2c7w4Y52sQEeHNJr5aAHsd41knra3wwIH1UO9og5XDWYUGkScZ40zTclcBqnBEEpw/k/PEY03dvapZrLTnbMazwllYJENI3k80vdpisUxjG0mgEkPQkpU+ev99o165JEnbFVQyDVidRmiy1fjWi1F2ghiVv1icUZHAVecAACAASURBVGlgLKzckg0Fr294IAxgAW+f/mapX+58ZX9+5S4fYL00KTi7uPv05oJX1z0RJWCdyRQy21LoIunRimLcQo7kaWtkXD1cFAYkMzLZRsYtpKCi+VTtb4e+Pb3xyLIUq92U2dEz6WLo0hiriTPGaRKbxvS83DAgrV9agj6WaBkz2OIXuXOhhjx2m/Z4wY3/9gK43F5AQQoHqZkEUquIzYLUCho8GHNDOWcawOagyXoEZAWo5rdsgpnYNEgpGnRqGvQaL2iVXqYXIFkCWmJFky30WbrnxpI7XF1WeP/3X6kCm5/iWb/Wd3Tb9PQ+oin/js6h79J5T+vG+jJSmXBVUgb8X4jM34enDpAA/gt9hKJ+HT6PMBsiaI3KXmp3BjDjz6ZrGA6wfIXMXHPHUDQGCSWxvnn9z7ROFavjAMvibIVmm5+9q5XHQCeNmFnqAau9xTjjuyyBSfnljFxI1ncRDFObywyNbX7SJ5r3X+z81/6Cyp0+wArMLuJD+duRpVs/3fH6+FuHPAkzh/79XM2Z+H4pAKWe0cbiAvdeFw1OE/NwI29Loacgr2TjsbUFS2wFFbtj2uzmntGcZIxCb4tR6kx9Uy6u75s+qK17p8zYfqn9+vjdnDNX5LQ5vdDmAGize8HmZDrzxGiRYc/Rl7BTthfseG0uChwujL2h2gTjMfsXHqhx4MTGhrRKBC8PGDTYP5BT6uSyieeItxVxbIuG5Qd2b313429DxBjskWQCo5lT0XV5WZ/KNjOsrC2CR0Mw3ZF+EGmw/4zPi90BR6EI3N/ZojqEA6xtFEVxgfBSl8s1Xi6Xi1pX1108e/+k/rcT0EjSdAGVXAtmRwu02LHuj1lUUg0k6UIls7xw/RdCcPrnpO9ODes6oQf/4h1uG9RZsZmDf/ky52UBYL1w9ZcFI7tPYPhbbPPUN9c/mp1Tsn7snwJY7KnKNajqwEqY0DTkHt96es+pTZV7yzYqG6yVIyK9aVDFIiOhh7FbTA/5JRnD1KMyxwziB7IFIHWOLBOXmwaLnQajlYlJJcZgpx4uYcG5eXhFjCXndHvB6UZLDMDukhDgw5KmYBDjLD8gMa8YjQf0GjfIJBFSEvgUCV+APARYs2DJxR7DxbZeWL0ke/OJI6I90CYnd7e8P/CKs65dH+k98Z+03j+P7TT9VHUyULLmrDTBiAawcExQwCuIJCqVyKo+vTU7zelhusdwFpbZ0Qwt9nrfWMqlSkjVhW7ccdu3FxeYHa0+t3Du1d8UjMy4WuAmuj0uqLacahewRmVcm/3cxE8FjSvmbXg4O6dk3Z8KWHtKNxTsKFlpOlKbG99srg+b3UOlTZ1SX5KVPqxlaPoIdbeEHrH9Ugf0ibQPnp/ndBYsE64URSTb53B6AXvDYqlNQgwDOAxhvP3jEvByAukA1OYEwB6y3BIYI9MoPaBXe0Gn9jCZRy5LHCLG5NtejAkfZWzL2GY1zVz43qFGq1mUEHp1YkbzR4MmnPUkyH8SCEVzLugaTtj5k9Hkdgo8prNhZUULWKLnPfOSv+dc3vv6UW62i4cPsJwt0EKUFZgFyyG6xAT1SfX9/vjyq3JKmo/5qtvFAAtXLjeeaBewkLT65pTll3PlPPjm/L8ND2XnlPx+3gCrylhSVVCZXZhT8puksD4/xeG2hSzVYMYGwclQkpU2rGVwl0vVg9KGpqXFdk3nx5j82a9z0zY9FH8q0qwbEl+tdhoMGsIsCyCHhs+6YcwMQQz7LuJnmxN5aQFJR6BBIcWgPca8PKBUeAh9IiS5lFXzYBImJBjL7jCyNvOrCnbnvbX+F9SQD+5QAgAD9AmW5SOnXrCsApAB+WQPF2wKxIsztrLOGLDQulp5b1lalakYPDQjF5yk7QIqmRYCY1j4W2d9D5Bh+bzI8taG+7NzSn/3mdzjet6Y+9QVHwVFDKvNp4ADR9xNoEuoV8YWLLnzKM8yo+G9LY/mbiteOfJcuYSVLcXHtxWvqNxd+oe02ljSO1w2T6+MKcjo1Ks1q/MI6SXdRmVelDygM6kpRIY27WHdJQ8JipNWYBTGh5i/uYYcmDHCf2NakehuYUEwUyhHVCQY4QJGdUDKapxjYbBciqVDHNNczF06h1m3KPlTbi+CF8bBJGBzMnExpmuQ351Ey06t9IJK4QE5NtwGL0iwhy2FMsc0aa/FWVyY/GB+94KMqGlwBdbCmkSz3Wq6f/FH+0qb668IZV1018TYfho+RR01zyoac+W/eN1rd62oLba2ChronmnGMBytAeNVGbEaKGhtA4Frxo0jWle3XvLkqCpzMXi8DGAlaNKAoTUIs4R8MBObh9zSDQVvbpjtOw66ds9e/UVQzAC5Xcjx4pZAwJJKZJUr7y0TpP/f3/r4vq1Fy4eeLcAqby7cs+nkj7W7S/9QNlgq+3lpb7tMcwSogWkjW67oNSV2aMa4QW6PHTy0C1xeJ7g8+L8D3F6mXrB9PhDrbokWAvMtCE7dgBfu9rlzjNsmlUgJwMnwUyJBtU/Ab2RSGQE1uUTKAF4HLBN/mL0j2b72yaUMkRbA4ZYAxtK8XsYSI46il2LBnlFyxSykTIakVjfoVG7CBxN1F3lZ0x1FRwrmrv6mk8frDUkh6TAp9L8YgKI99RAB+G/NZvNd0e6LWz8cYJHXWOdYSV51q5fICvMXzrrC7/hWTyd1KiBxVAywYlWJYFCGblV3/Rek+xZZYtWJR7+blR8U6zHaGxmJGXYJBCz8OpDN/mXOP3PXHP26wxbW0Zq8/VtO/ty4r2KTtsVWjxWn7ekDQaw64Ujf5EuaxvScGD+oy+gBbo8DXF4HOEicj21UwL75uXhMMA8Jr4Tv7gS4NfymoYJYDbdjf/mLP7DMr+HjxZh4xH3++SCYSSUyUGDTBUpKwA0BTSmVs9Yb6+qJxLaCyJoRMcrxmrnx4V9vwDiQuRc2SQ05jhGqPJS31Fa9uOqbkqKGatFYFXe/oRv49SWTdBcsq/CwM377siBultlsbhd32ttrOMBCNbuYWLWkoNXmDbKwpg64f+89l748DA9QYy4hDyQuMcoEiFElQCAFAX/Tyg3QSdM55DnxA+9ilhJuGLhfMcB6a+rqwr7JQ30Bs31lm4peXX9nr0iJo8fr9hVuOr6sJFKAQvDukzio9NIeExMu6z6xj9NrJ64d/6EVMsb9mTRhgDmwxo4pa/K7QLzOxnzLhx+r4b+OeA8r83WAFEtQk1C/+8TcHLzz4UCNBUe0ytASU0jlIKUkRElCJpGBHDWq2HKsqMptogmg83lkQdclNl5ibeYZSw7dv7c2/HBwW2HBoHCCezPT+zpe7ntZlLU24R/sv+oaHNM+4PpuMJvNQn2nCAcgohjWyB7q7bmnbAJdCgwSL5l1mNap40gwss5SDg4P09lFr4iDOHVyUGkO/ial5JBmEDAVBKf62c6529ce+9Z3rCV3HDHpVXGCFCm6npXmIlaqGOD7Pf+Xu6d0oyDWxQdTPMC+8s3Fr667o2eSLh2+msm0ZQ9cdp3+PWfZgfl0WcuJruFcPNy2kzblYP/Uka7Le0/rlmJISw4NKpyOE3dEPrubAREhaAWUkbAiEiGzboSb074l5gMrQbaPdT9ZsBM9DxYMhG6UvwyJ4ZUF1gYyYnhokSGYcaAmkzKgJsxeip13hLpXEfOnxBIADBj/cnDb1vlbVvTyeD3tVhAoKIn9/YFXqK5M6hbho3VhNW4EBmz6JpBM2mG3MCLAuqa/IXv9UdMQLw2+Hubd4/vlfHDzRl9Gjx9X0sgNkKDpDEhzqLWUBs1cF0Nvtnde8KRWG0sq5ywb7bt57hz2/MGbBj8yOHBNvgt6oCK76Otdr/rUGnDdwPPbW7759Gvr7iCMcT4h1WxvMX2y47mDuWXreoQLlFMUZe4cm1k4KnOycmjXCf01pKaGc6sCa864GFIgo5xz1/zumB9MmH8x+qWc3lKI/XPA42OEn53YlijosqDFnSdzftzxQmXdOK2wQKY7DQqJDGRSBswwCUDcTYmEWGesvp6/K5JPaZQ3jtz58GJyIdvPh2gzv70ov2Deum9pk71tUDhowXjVt0OviUlX+27/cJtc+J03AiLF0R3OFkYEWJP6x2Yfq7YZypsdPuD499TfqnslD/b5ds1ttWBxMZ2tFVIVpOgyQIwzhb9zWcRQs3rPkmF5DdZqEjMLBB5uGyz5wRgZLmKApZSpT/58d7GPSrC/fEvpK+tmkX70j419D67scwt8tvPF7X8cW5RFg3jKmjtWWlzmgVGZ1you7zktjFpaYAEu514FuCO8h1AIVpx0ClfPGsxjIsFx0iaGaQiK/w5K2YeMbflBFOssvWyWkfTVY7OQQre1nVibINsXCM7MdbDoy5M35lmWbKKPSTCw48PKTmOwH60xvDYSMyNxNEwKUCKJgPCxLa5RSVNbq2lNwfbDi/PWJdhdznZpJtzcIyH0lb6jLsSrzgCCxSgOYvp6kRwiQsCKz06NUWq+yakh8apg2gAIWO2YRu8Sw9wPZcbjPteNOyEMumPwPdSyp2x9/hvr7yZvPgoo4+r7K4M4MPyAflFDQdkHW54KstW5wDtyol77Y5a72lRC1umfeimUt5wsMNmbRTOfuI5KrqkY2+vGpgl9bh7EWFKRLqEtqkDLSSphYj8kW0dJieskpfDhZLJ3CE7IXWM7UzFa5YE1dmIWSLuxrfCqBejiodvNAZrH6wIvoVowIOcHN2zAweg6I8UCFTiw640XmJbwodxczn0Vjmgot01cLQHHjQA2C2TceOFY+c4TaNhzuuD4oapi49HqIldFS/2YSGcRrap5/cfEnEuFg0jP5c9YD8mfqKHVWaU7KxpaIm5hh+JY4QCLdHCe1L9T9n1juvW66dMDxKISoxsESslwfCs+P4sbeIVUDSm69mMB/OD7Y2PfO3pln1sE2UJ8ICpMhb65fGTZhKB5ReJpdtGK1pyS3xCY2s3qEXCkKGuPxP4nbx3yZHpKTLfg/vUR3znMQyahkBogZ/6XKkBOgtPo9jDUAVGN8nYY5VFn3VhelyA25QOzyC2TQLc3Um11pGzgPHlY+QnCJyNtOxg5H0xK4Fl4aWyrxn6Hv9JeWLhz6V6Tw0wfry7yvS2UcqUzM7Eryexwij5Gm1Ff3UKqKbykaTObKjQ72rqFC6CLTaeSktgf73kJfU/GQHXE0/0XWBEBanNDGWD3HrEOShMSu8JVSd3ghs6hid/tDcOMvDU1B4z1vkJivvpLNMMXErD4qgydY5R5W5+5fPjFL22scnshTS5VHFtxT4mgky0SOTGuxC0cFwsF/FDIL3BpL46F656o23fyH6unEjMtlFvYYK0Em5vpiPvoT1eaaZqOxhTynZKEktZf1XdG9ZQBs8PGM0INLpJhlTINKCRKkEtVoJRi44NAi4hRDzhTRjkzaRGU20STdYtCkoWxnMSybmIMfBG5YrKD9pnwR6pOnvxq1+La4zVFqQ6Ps2NPSTRPAgD8r7p/6LI9d3S7T5q5vWFLU+mIOkS0lic2r3i7aK/vJcCJKUQ5RcGCH9wO+IqiMWpZwZ4XJmbN+ip3+97SJpLBC6QN4HeVpiLiOuCiV8RDnDqJqDUg4z1wSdSkg1refkUDw07/hWT/Pr1lZ1VaTHc/SSuA3vDsyhuOW52mvtEMgFZpKBzf60bvpItnXRTNdrgu1kWqpFoio6OUqYlLF3rh3Bp/rEaUvBgONCLiMUWYdTublhw/ARAU24rSkuPzuVhQM9lNxm2FuSe2nNxpPxcAhkD1dK9huv/FoDoC1cpqf3sxvIcNapq+rIcXBqZLoaxFBruKvFDR7BUYN/P6jQGuRVkkz44IibRDgfeQFpZOpyPNJ/BkKAqMR1+ZGpNfbjw586ttxOrpkzxk4ztT11zFP1m+xSOXKCFV353or6MOe+DCZRLDXSznGoaysjiQfHnNbYea2moHhtsf/o5AdevQJ2Bw+tiI39xoQWG5EfO/JgxAiZ2F0CIS1SjnLCe+BcLPFvI1yttV5DzLllwEFpGPqnCOLUjstr3y4Prs9zd+LqqaEMn84zro+s3uNgDuyRig+l8lgM6tyocVx/YLhuzmoVr6tRvkEK8zUzIpNnBFeREtfLaFol9Y4egwaKHLOWzbYsGxOkIgDQVYPi137gjHXv0beGkpDHrlpyq315smFgw3BxQ7pxt6EWoDXyaZ2x9aJPh7uMViazHOXjq0zuGx9xYrhmb6FDbAVzv/tTe/agdJCoRaonX9EJyQ6IquXqj6x3DnL/xdjPpwti0iYdaNOT7rlnEg5wvUd4xRzmXdgikdZ2ZBor2PctGkZSC23ZIC7CnZd/RA5SFrSVO5u6jqlKGxtTl8X6t2JqWzUtf8YOYg1aTkDM3/KlDh8GgmjobibvEw/m/EJiHLtMGd6XenZ1BSiREQrLBPJ/mUWAAoDXy+RU7PXUEKOcmCjVy3jJ4OkY7jwE3fOBy010e6dblc3aNtcS8KWFqt9i6JRPINf94X33NVYVaXlN6zv9mwfV9ZHXEL54x6Y+vki+8az62HNXHYJYdb4tWpoJZpBSRP/j7D0Ru4dRG07vlhRKPDY0v8ftYh4BNJ8c2OdYz7K7YWLsx5RdRiwmD6wLRRJ24b9vdLwmX85BIFKStCsUEsSTk3CwtSUcaYsKAXJGxRM35yBc1SJvNHip2xByQ+7BQW+PKawEbF22Kkmf0a9TgKYmU+LB+LBUU+OAotSNwdj1fGuX0Y4kMFaQkFR6uPnShtLLMUlB6WHC49Imk2tRiMlo4rrfLnDUHq9q591ROTu6v/F92+wHvYolVC17lzgFKrYO7/vQ5fLPmOrJLz7G10rMZOyWQIUhxYGYH7G/t2Xj5PRR+t4npjA5FfjlTR9PrdvzSetLQkcOfTkUJoUcASUxX9YMb4gvG9u2eVN1kqr/v4J0LsTNR2zlt4215BjSG/CFot00GiNh1qzKdJkW/golPEAjamiHR5ee3M3GO1eXFfz9ybygctpDgcrc2tf33d3UGZPYMq7tQTV7yfkqTvgg0RRRekDiBI6RQxhEN2/hZhbAtFLBAj8VMqQ0ACoPBv0kkaz8pPIvWBA0fiFIBGYECb27a9sh4OVPi1gdHWJLbDI8MYZ0tlfUVThXHr0W3mJmuj83R1aXyLucVgd9gjvwkinJw+urjGqak9tRdAKnjAfk+WwR3PPk1+eGvBh/DOZx/D4C7d6S9nzSRuoN+yCrS0jPD+eiv91h8yH25gEH7LmFsimpXb9/7euLe11gdYHdHHCgVYRKWBfxbTh/bd/sLkyy+naQlc8d6io81WG6EZBAbDsSgZi5O5BflYLW11PlIpf5+RuoX8bbDEZs3hhQ1/n7DgYj5oNbRVwb2LR5hooEkZD1pVV/S+ueaGQXNCSg1jLAotKQSr87kwoEQxwIQghf/G7jq8jmIMFUE86xZck8gAUhDvSSByFyETPqhGj29pCWv0fKApaIrKrFPZUl6688QOY35pvqeoqkhX31Kf6vF4OpTFjWRuEKDGJ3TVjUpIU0WbwYpk/3+VdbC2b5vBC0u+ZByoh194Fpb9uhKy0i6iP535KNUeWCGYzd9UQ7+33i7AjUj7Hb5TuLf1q7JDfHpR1CU6QYAVqsnElX27Z79z87VjAaSw4sDRvNd/30Qsq+Fdr1r/4qRFE7kJRZJhFY/egDWFyD3i67DzJz9StzDwhvnt6Ndbdpesld4+7LlULHJGvs/t3w44bHa2DlDIlGXPXf15QiirCi0/LM4+H9YUgpBUSYFUCaRPIf47eOHFtiS0ZU/x5hov5WnbeWwdSbkeKd8ncbrspLGByWaSWK3R6b1LpVJzp5iECqkEyV/MkpHaqzlek6BAPSikR43rf6WUoikNop5BHaO8uPOArmIMeg6kmE+/ut6J6sPlm45trNp1bJe6sr68x7kEJzwyunmTUzIlYxPTYy8AVORw+uyR7bCfaoOD67eSjTiXUKvQ0r899L2oOyjjuYcPLj5EbzxmEdzEpKFrBDWWIoXQUWcKg54esfgVXliCRpOz4akHRtE0+iZSGD7vnSoPG3xffMdhim/t8LlXGKxO1WdCpbGIEZsLWKJ1C3FzVFJ4bvW0ZLGSms6xmQVzJ34pymBXSjWEanEugQrdOAagWJCSh+bm5p3eXFRQlmM+WrFfUttaqalrrIo4axn5LXrma+o0uiqVUs2InWGGOK2PSSpVyORSqaek7jRVXlfWze12nzPVTczoZWhjLBcsqDOfy9v3/g57W2vho9fmwYxpN8HhE8d9gfc5o5+gbx4ySeAW+sBKaoRT9eX0DZ9uDrqhH84cDI/1GBL25LApBrYd4y9er3dwNN2hgw4eqisORVHGfXOfiQGQgZeWwBc7duZ8uWMbKX4OZL4H6mChPpbd0+ar/eOfMMaP0mN6BZXvhLp6k72lYtZ3AwxiYDW29w1H/zb4kSD9LARNTACgC3guFrSiZGoK5NpQFhRAtbGkfufJP2p2nVhPl9SeMJgsxg637joX1/CftM9YudI0PDbVfUlccvyI+NTz3vnlP2kszva5cIAVo9fD/nVbIdZggM++XwQvvv0mOdTL13xIj+oxJCiWVdJYSD+1fBnUGIO1rCIFLNz/iG2LLa0uB//lFpVbGARYOp2OlOOIDdQvDzxU1SU+IY0GKZhsTrhq/pskZiShJOWr7qsQKG7yS3LQJcT2XmL0BjwOJ/gXbnJQWeHupcNqxPTRJ/a7PT+QqY5gGKPq1K5gYLhjtvc7xqKw5yCCFVuP7FvdZGux5p3eWLrlyErz0bIDSdEAlFKqKpFJFQ504bon9CUV3jKJQjGo6yhfSviipEG9tQqcd6420C8xw5wET+WBI3P6vudnKcPHtrYVbTi6/thqutnaeEaUglBjie7d6IQ02diELoaL9PFnpXbtTOb1r7ztgwc3wpbGcnKJ/ftcBKu+XkxAa+2WTcQ9rKyphv6pw+mrL7oW0mJjweaqh50l22Hd0R0+rHjwwQdhx44dcOTIEbKfaADrp8qTbf88vlNgOURTCC1mYXF3etC83TdmXM59o68chYF3tLSeW/l99taThwmBj5NK5jYKVAXFrs/IeBfLFobrpsPt8/HlV+0saT4WpAYpBlZITMUC67PDnxIOBcaiFAYKZCrh8CFIrTv8Q/H6g8ukp6tOhn24tQrD8Vhtgi1B25ke2u0KvU4Zq+yVmCUosiStp4L4U2LZPv60BUvXMAF5rrNze5I1DNjVmavqV+YvqTxctT/d4/WcQV1l8ON/IUD+50FiYBypS+c0+O6DT2DARUyRCALX0pXLYd22LaIn2b9/f1i7di3MmDEDcnJyyDrP9x4RcWdpJJCOzl4q4GNFU1coeOJ0Ot04iqKYaJzI0jMpOWfx7CdHIVghaJnaHMZJH8/FR8oQqA6KJTrIQucWztpptTeI7jtZ242UuIRaFu99a+NPBz8UMOtx3UCwwuOgNYea8md7wbiU0hDg9lFg+WnPJ6fCgZSEktWmxnatzojrCxd3HpE0MG1UFC3nxXhbIpIuhAnfDn+KHZD29LYOlO8qWnvsZ2tlc1mH6yoDxx0tqHGJXbTXpHRXXgiQn+27Mvr9Xb97JZy0NAs2vHXqjfDA7Xf6gKvVZIIfV/8CO/NyfeA1efJk+OyzzyA2Nha6dOkCRiMj7/T90MlR1Ra+X7TP/llpAZ8/1MpaWWEvRgBYoQLuM4fOgaX7PgOVXH5y21Nv9cEYFgdar/z2be6G43tIvV+glYUlOViawy0IItgIleuuwz87j9dj6R53sWjgFjvSPPTzWKz0Figu9EoacODx8fN90T5kpqN7ebYJn2hJoUWFlhW3YEzq43VzT+ed2H6xWEYMO2GnxmYU9k+9jBqRcWWv9nhgYWfJt0JgTSL3Qygme+S8rUPVe09+n7vAY3EYBUXtkZ+bf02VROq4vFMX69TOPeOHx6VEzITuyLEubBP9CGDw+/Z9a8HiDuZGosU1atgIGD1sOHRNS4d+vS8iLuPhopMwoG8/X/PIhAH+/NDecbdHPcfDtn4v6FsYKScr0MLytabnD8NHf1sO76x7xFZurlWve2SeSa+OMTBuoRQwazju/fuqPF5PGlpZ392eb+Ayhkg1QIoDVxCN+0RQ4Xe84Y7z2+GvCwaljaUu635tUD3grYsu2tfmNA/lnxNSF967aa3PfUL6BEozn80F41KqeInA9Vt/ZOm+rza8rW1srQ0qtFbKNRVDu4xvGJoxoVOga3f2zovvzqG7KNK0VFCALB7bQvlijUIL+ZV7jny+4w2P2WEMqQ0WybnHypWWq5MyvDO79DWc7/bokZzfhXWEI4Cg9VD+Jqi2M2on4ZbLhg4n1hdaYvjJAVZnjR62jpoebvOg3wNjWTRN51ssliBl4cANAwGL35ret+7aB4/Bb/vmez/Z+4XkjesfyBnbe+goBqxQ7VIGi3JW5nydu0I0YxhYX4g7xSB8oJX1wdYnDtQYK5RL7zwqyPJ9tO3p9RsLf/TxvHB7iqIsL0xc2IaaVUg+RS7X2aYqYCBdFYfBdIpk+L7e/FZh9uHfu7s9LoFihFqhrR6ecXXL2J5TM86OFRXZ3Eca25JJFaDA/yUKQMFARptLCrWmyqq5a2ZXNliqRkR2xOC1MJs3OTlTOT29j/ICSHV0FP+87TCehLwsLggf6ZkgeB09eRyMZnNUpTmB+xexssJSHAIBKyhDmBHfBxbcshpO1xXAo7/cAoPSL9r+0S3PEcY7R3FA8Jrwwa3EysKi6EBeVqjSHP4FPLvqhkKrw9R7Ut87dzw05k2iDBmKwnBJtysOzx75wgAEKZSpOZsuIFIUlHESkGsoMNma6t5e9XR+zvF1AsBE6+7SzMmW8w1SwTcUE9tCLXRs7oECgTIK9dJRIx31uZgwAem6wxY8m20tpgXb/3lwZ8m6DqsdYGt2dPciIQtG+hBcWO/PGwG0thaVHYVNDWWibmJ7d939NQAAIABJREFUZxYpy11sHyJW1isWi+Vf7R1PAFh6vT4oQ9g/dRi8NXUJkcW9/euhbSZXW/OWJ75L59xBztJalPtzzre5S4iVFch+xyahNRas9gm9cICFa3BaW4Gt6/E3VFz4cPqGJCypweD62VyQpqBOkIDZ0Vz31i9PHthdtOFSLm7GqZFeP+DerpkJ/X31UGfz+O1PFNOkAa0kBCMs0kahQIVUSRRMA7XRmX3xynsogNzTGwvmbXq4U7hmG2LngS7fs72G6xCkIq3OP19jc+E4Z28EKm1mn5uY21wDBpkC+hn8fURRMhndSJPLCWlq3Rlx5AIzhpGI+vEBK0hSBodhSv874YHR/yQ3/8ItTzhXFv6uWHDL64X9Uvv25sCKs7SuXTC10OFxkGhcUI0hKwMTamjfXH9fQXXraRJHQSttxiVPH1m6/11fVx5uu0n9biuYccnfs5CxfjYXtKgcqpa6t1c9dXDXifWYRCABfiyevjTzWvOZqJFGep7oKssk6MKpQIbtsSQKoruFANW+QCADTj6Q4lMhgAazvdX0wpoZh0qaj7fbIFTsPPvqO7U+kjk49oI1FeksXlgvmhEIzBiG08jyAVYoSsOMSx6HmUMfJ25FSX0+PPrLTTAovf/2929+83IMuCOJlCvX2VW8K/+ltS+SdLheGZe/5M4jgtQ4v3dh4EWJNUMNXAetq29n7U+KaaeBRTSDxa1rkxjNH+94KnfH0XVYHxmD1lR6XK/SO4c/l3hm2u7BZ8OBEoIQgpKMwk+FD5w6cv78bQJjW5+SzkDfh+0MFHjcKxK71j7WY0jKhdjUmc7Ihe3bG4HAcp0zBqzHxr4LV130N7Z9OA2zFmURt3DDI78RtxBF/fiW1pwf78g53VhMLKNHxrydd3Xf23zyM9iJBV1DftaQu5jtxauP/rT/w6CyGv7F3pj1YN5dI14UyNmc6e3wQ8E7W5ft/XCo1+vVIyAO7nJ53d8GP9Jdp4o9w9o4irhrqLyqkKHrpjproBTums32ZtOSfe/krz+xNDNa9+9/WS443Lhe+L3jI4CuJrqXYuGEPhsX+nYcMWDp9fppALAy8JTenLIc+qeOYNule+HrrY84Vxb+pvjwbx8W9k1BMgZjYXGWltluMU5feAUhk4oF4JGHVWctExzGbG+1okLJc6tvCgkSapn21LK7C0O3jI5yLI/W5O1/dd0smc1lyVLK1ZXjet3UeCZuH7pvSpkWlFI1CXaja3e+lw0nluT9fmSRU6waINy5oOv3cdaE2AsCd+FG6sLv0Y4Ap+eulMjs7w0YF9Q9mwdYRrPZ3G53K75L+C+Kol4OctVuzYFkA0pjoV4TDQ2thXD3sithYNqg7e/e8DFxC4WgJYFPsudt/+3YD0SVtH/qpdvfnLJc0Obe7GiBFnsdOdSWwp/3tTnM8usG3J311IrJZU63I6j/l1KqKvxm5r5knTrujIWrsB7x+d9uOl7efHJER7TdufGJrglFtFMc2frYb3FH8erSbYU/q2vMZT3CNYQV2yuWybx40aUJFxjokY35hbU6NgIIWncfWGdzeb3qickZza/3HR3PWVscYNE0vdpisaDhFHIJC1i/31cCXiKyjVYUkyJ/ZeVE48HGk+a1D+5KRx4Wn0TKuYnTvuxX4/a4SBpPTIud66bz2rrZ+1qsdYlIAv1h/3sHcop/F+hUnE2wem/rY5uzi38ZoVHoq6NtQoElPyivjFpaKPvMtPA6vwuC7YYTS09tL15lLW8tzIjW3eOfLXKo3ug3xnAhmH5+5/B/+WiErHpwU3O1wxKfptY1L8i6Mr7KZoGHCzaRYYmE7R4esO4pJGDlAy1KAvtOLYdXNz8BL1/zfsGIjCuyAikOCGK5pZvy31h/Lwm6Y9v4n+4uSqGAElhIqN7w+PKrCf/q7steIoWHX+961deZgqIk5iW3H/KeqWVV2nzixLOrr3dJJFJlNECFmTksJ8L/kaF/PheLo9lRXL+vObfsD9PJ+gKqylgWa3fZz0pqdHpaH9MzvYYZLtATzueMXjgWjgBSGW7es9pSZjMHhn/KzGazQOVYbMTCAtYf9xwHmrWwONDCz1nf9rVKpKr8JXft8Kk3MDWGXNYQ4P4fRh2sNZcSur2Ya4jfz1jU94TVabqIoiS1E/vOqFt3bImvROTtqatPXpQ8lOl534EFFTM/2PZU7r6Kzaq/DXlYE0lbL2JJyfVENvlc6WcFXkpp814obToMDZZSOFSdB3XmWqg1iReJd2AYfJugVfVR1gTDBffvTEbxwrZnYwQezd/cvKGhNJ7bVyTWFa7rA6xQwn1/zD7EuoOMW+glnRGk8GPuS57Fh7+XfnHLxqrOsT3TmDIdjGf5qV3Y7ea27weQADwe7Lkrv8i5LPNaAbdq7pqbtx+p2S2IceG6gaKA0Q5SSfOx6nc2P1A3KO1ydSSNUjGLh7WIGoUhYjHBaM+ptHkfNFrL4HTjYTjVeBTqzbVwqtHfZSja/alYJrvdbQ+76QWrKuwQdWiF3U1VcGknQbVWh/bzv7hRNNlBbnz4FlZQHeGA5MHw7uSvfRYW39KyuCxwy3eDoXv8RTkf3LxxFOnXJLKsP754z4Idz5J6NRT6+37WoVi+nPKP+9/PCSSISiWyqpX3lnX4Lli05/U8p8dmiASozoW+u9VZD2XNR6Ck6SCUNB2HU40nzwiYtAoNpOiSwaCMh1hVHGTG9SSftZYaWHJoUbv3OsoLf3XJpAuNGc4BIri9HqJ68OPwKedg73/9XfKC7dkWi2VcJFccFrD+PekLoEnAnXS3BJq1sNAt/GDzHNeG0q1ysTby/IPfs2RYXoO1mvCn4tRJO7+dddDHuK42llTOWTZaoA31wsSv80d0mxi1HpOX9sLGE0uPdYnv2TUcj+psAVWD5QSUtRyG041H4VDVXqizVEOdKbjTdbjJSNYnQrIhEXomdge9Suv7zErrB14aYPcRYWlTjbkavj74OdhcbSF3na7SGz8eNCHmAvkz3Oh37Hez0wHT836FLy+ZdEElNcoh5BNGOyTgp9Ppgi2spEHw/jWfsQF3dPm4bKEEaAlW/FfB7J+vCuu+BbqG0wc/tvH2Yc/6xPi4dvR4zR21rrBbDwbxxRRN+WOJPKlYVVK7YoHiY++BYzXboaS5AOrMFXC68QQcqs6PeJoYQEoGnRLBKBN0Sh0BpVRDEiTHJLGONE+/ikiEMvpXjSYaTpSW+JqR1pirwoLVyLhU40dZE2IuBNYjnqKoV2x12ODxQ1sgQamBfw/09ROOej//ixu8enyXY0nlcSL5HU0H6HYtrIFJWfDexI+DsoQMxYGxtt7dNKdtS3mOK1ChIXAS+K4hALR+8rfsmvS4nkRTiu8WBooARjKZWFyNYCUmDMhtj8RO1MyKNNtXbzkFR2t2wJGaXDjVeBxONxaHPZUBnQewgNSTfPZK6gkIVCkxKT61BA6EuE7IYh2R2QaDBKxcHhoKK6zQYq4hx0eLalH+F1Btqgh5PnMysuxP9hp6PjvChh2bv+IKNVYT/Fp7Ct47fQBWjZx2RoXAf8XxCXVNpOh5+492h9eN92jHmlDodLog8b5kbTL8cOMyHg/Lb2GBBKkOFByq3Qf/+OPesFYWnjzfNeRTHXJLNxS8uWE2yQ4unXXEGA2NwemxQ521HFAsMNSCrcQQrCheQiBwXYujBY7VZcOe0nWwq2QrWB2hhc0yO2VCz6RekKRPhsHpg8hnKoKSbxE2NQ3q78dKvQQ2Pw1cDy+potENJqsNjJZaUuC86sTPsL9qd8hrnddvDNyY9h/ZLewv90wiYDU6bHBn/nrADshLhl17Qckigll+7NDm5vV1JENodLlcg+x2e2kEm5FVwtIalk5dDCn6NEaoRMLFsvyfGMv6+5rpjqNNxfZwVlaga8hRHTjAStR2zlt4296IawWxzActK7F+h8zFta/vjiCVV/Yb5Jb+Abml2SHHbEDnLMhKGwyDugyBgZ0HsVIujLsm2j6e1wk5dAMJZvDbA7OaZjeY2jxgs7dCm60Vdpdnw9piYV83/kn/t4EVJ2WS11wDrS5H2d6WGm2bx03eFK0uR6zJ7YztqtaTm1kpkam6aQyQqTWoxyR0iUGZkz+7jKjKYgKn1wPvntoHmxrLz0jMLtIH9r99vWeObHP+WnOK1K1FSmXgX3NYwHp25NMwqcck4v75Ylhs4J1xC6VQ3HQSHlpzW0iuFf+Ae8rW57+x/m5fQB0LpA9WZNtySn8fO7nfndvnjH4ziOIgNknEsrKUhwQrdAETtemiNX2YvVtz5EvYXbIFrE5z0O6T9ClwWffL4eq+k6FnIlorPJkwXmyJAyOBW0f2FqIrDc+y4g7qA60A8KpucYG5jeld2mqqhsrW0/DJ3nf/EpYVBlx/qS6C46YmsHvcFpvXbal3tKkQoKJ5IA0yRevVSRmuK5K6Jk5IDKroimZXHVq3xNRCtjtlbYWHjzBdZiLtgtyhA/4Xb4Ru4IvHd3KWVYfAKiIL67K0EfDmuFeApilg3ECeW8iCGILW29v+bt9Utl3Fie+1N7Z87hUWSKsVuiLUbBcr4RHbD6o9VJtPi6o+4PoYp0rQpBFhO/5ypHo7/LD/33C4Zp8oSN2QNRMGpg2Bngm9Q1s+bCBcFKQEYMZorfssLB6IMQfntadnt0OTy+2moabFATYn6VIPqHDRaqyABXnvQK2lSnRY/9ssq3DPHdadoUDcMXMTHDc31Z4wNSuwnKO97RQSqe2urv2ct6T3jTlflhdnYeF5fV95DJZUnQC9TEG6yFzIzDKzhVb08qpCx8Kyw16n14Ntscq8Xu+0aLo98+c9rIWFK6+5eRnolQYGtDDg7rOwKB/lodZaB7NW3CCqgxV4o1kcRpi9eEihw2MXBFsijV+1p6ulV8STdvQCoKrJhh/2vweHq4OBamTGWLgx6zYYmH4Jb5PwMSgCRsRR9n8K3EO2ESAftNqzxPDgLWYnNFuc4EVLjF0s1gZYe+In2Fa6XvR5fa3v6Lbp6X3OTUvrcMhyHn/HN3ReSy2sri5uzmutkbW6HISMLLZcmdit9vk+I1LONXBhDMvuYV4suDx4aBOU2Ez/06DF9T1E6zfAYjbSND3fYrHMR6eho7dORID13IjHYFLmVSzjHUFLSHHgag3f2fmyZ0PJJmmgDpbYyZ2o23fyH6unCspufr1f3ILgb29yNEGo3oaBYFVnLoEPtj0JR2r2Bp3C1AEz4Yas2yHZ0Jn9TdicNCj2FBQoDx2DCgtSPEvM4/WCqc31/+19CXhU5fX+uXf2zEz2hISQEPZdNgMIKli0ohYRtFq3ilpr+xdc6tZWrVvr1lbr3tqfCnW3VlEURURAQHZI2BKSQBKyZ5LJLHf2mXv/z7nb3NkyM8kEAtzveXhCMt/9lnPvfeec873nHBasAhKgQvDz+d3Q0HEQXtv1HLj9rog9XDdknOfRcbPFatC9fQhOxevQrHy/sdL2eUuN2sPQESeiKpJ03FwywX/vqBl9zvARSz7tTgqcfp/4MZqGD1RuBkfAx4LWa1MuTKpe36l4H6RrRs34/oObTG1uRx7+nWGYCgDYiBVxHA5HzwznBDcvDc2Jmg8Lx5kzuAyenvswp0+wlIbQn4KZaPNQ8Iv/XeHzM3S7tNxXrLX8c8sff1hzeKXos4oHWGgeoSkYzcnOscCDmtWHe56D9/e8GDH1zNIL4Ddzfg8FGUVRKypzF8QBL4lPK5YPilO9eLMviiYWCDBgcXjA6vRAgBbMQ96MBAYCAQ/YbG3wyeGVUN62M2IfyLNaefal/fYyJvj8DIhu33U0wCvH9lkq7V0RPjD8pn9x8nzV7OzBKY9eRx5Wtyc0LEoKWiic5cOnwrIRIQlIBoTMUrmIz1qq4dnqXVS3z80GNGNudgB4jKKojamcB8eKmyJZmPCjn70OhcZC3iwUNCzJT5YFr4AV5W8y7xx4h0g0FlAgjSaSoE9ISRMuBPRZYakvbO32Bnjq21vZkBhpG5Y9Bm4/748wqbCM8y3xIBL7lC+2D0p6uhdfExPAD28kDQ63FxxuP1BuT4x7yYAfwcreCse6j8Db+16K6IdBzOvm/FzOthAmGfyGf+rIjqjAdXPJxPbfj5k5KJUvkNPnhXaXI2LIcNDCYrLojD+dSLzrTQ3weWuteYOpUcf7phCoPgcANPtSDlSCkOMWoRiZUQK11uNw84Sr4JZJv+CyMYRoWGQoE55UwNWfXBXodHUpEnHAf1v53s5XNj8wQ6fU1350S/XIWA+Un/ZBi/1oxMeYI73QOIwt0nCgZQs89e1t4PDaQvpdO30Z3DDjzkjyZlwHegKOc8npXjQKg88fYEHK6fWB0+MNY4KFFynizEA71QZOLwVvl78Y1dEukxR7hp1YwIW+racnnFeQSuAQTgrDV4SghXQH9GlhQxMRta2bhk5MJWb2+1joO6yizGD3e6Hc0m79obPJd8xp0wsghU50hmFW+P3+FcnwqXq78Lhlvu6cfAN8VPMNS7r8ZOGrEWAlxhgiT4s3F8s7DsLv1v2OzYP11nW7CqXBzuELlZJGezIJY2lXg/RD2TCb7458AC9tui9keEy497sLnoNZwy4KgpVongnqZfRwmB4pC1GoDVx2Q9a9By6vF5xuDzhcbvD6A4Kzi/+JpZp55gMvfUFjM9tboKptJ1SaKqCysyKq30pmsSf+qK9oOAjP1+xyS31cmDhu1cwrxGyXiY8WvafJ5QDKF1nyXegtnB4KvyPB9I9jZsFASZyI4P5jV4tnT3ebvc3joNo9rgKegR5TNLxvahXDMKt6e9rXW7mHAFa0eMJbxi+CafkTYNnGp+DpOffCeUNm9ABafIA0EHDXt/cy+00HiTGDpq3766LVYtxgbwALaQxNNgyNCdVIDOosyNYNgu+OfAgvbbo3ZOjS7HHw8II3oCB9SKSvStSsJI5z9moBTII/Y54GEgAKNZJpGXB5PeBx+8Dl9oLb7YVAQGDdR5R5jACtmq79UN1RDlXtu6Gu+0iP9xHTGX9xzpITXhOxtw/XQLgONYTlFeut27tbRX9fKkHLG/BDsyOSyyfd+36bCf7TdBgO2rvEP481ZMPSoRNg8eATH5WAVIN/1++3fdV21G/3+6R0EdSWwlnnGDBrwb8TBFHfn+ZeIs9LXMC6dOhseGTGr+H5fe9BrbURXr7gEc7xzlIcoviyeHOxlWqHW9f8lnb6XWSPp4YMY7n830NYZ+l7vzxoi6aNUR4LmN0YmhJsyLEabBwJh1q3w0NfYlWfYEOwemrhx2DUZoRoVlyP3lEWEJxINQEKFcbzecDhdIPd4gS328fOwStYklUEwaqmcz+4fBQ0WWqhy9kOXc42aLYeBZcv0v/R002TTcFEHunofd6s3+96rmYX8oDYlkrQCj8tjLVKBK5vTQ0sK15ch9YASwaPgisGj+p35j5qUysbDrV9Z2pg48jiaUparbZUoVAsIklyCsMwUwiCiJZBpR7BDLUtANjU3xpXOGBFFKKYkjsaXp/3INh9Lli85n54ds49MDV/fFRfltQ8RFD7uGoVvLr3DbYw6mvXbKaKMoZFzXF1+Rvcn2MRRzudzeD0hX6L5egKod3WyIKV1GfFgdUnLFixTAQpeTOCaR56GiiUc8cK0AoNB04cUAHYrU4wm+1gtzmB8XMAFWzcOJ2ONmixHYMmSw1Ud5aD2dnO/gtv6G+LVuqsp9cRE/A9Of7cmNyj3r/KZ86VSIX4xc7VHjcdYKkg0zPzW98vW9jn8uGYFwtJpLGjWUNl3OZxwDZzCwtego8Le4wxZMGs7MGwePColBFPUcNEB/mKhoOdVVS3qJ0jWFEUFQ2AMvV6/U0EQSyNAVA9PjBIYUC+lcPhWNkfT1YIYOn1+rtJknxBOpFBpYPvLn+J1Ut+aK2Ajc174ZEZt/NmYWwNS3DML1/3IOw3HWT9Wf+9pTZqumMBsGKdLDbaqkOCm7GE1mDjcLjrkwuhzhw8DUSwevpnH4JBk8UXzCB4TVBwGoVpWDyYYdVnpYbXoPjqXDQdAIfdDdZuB9htFPh90X1RB1q3QrWpHGo6y1mtqT+ahiA9W+Zep0mls7g/1nkqjImgtXTP15TF52GP4K8cPMr01ITzWd5QX1qsE8N4YyJ4HXNaocJqgqNOC3R4XNDhdUKhRg9jDNkwPj2bzWiKJmS8+497Q+f4AZvJXW3v7tze3aoROFHR1oFakd/vvwed5Xq9fgpJkncBANKbkgqRirHHepqmF6da4wrXsOYRBLEhfAHrFr4ARjXeXwJ+s+k5+FPZbVBoyA/xZQVjDaUgRkCNpQF+9fWd7JCxAOnyN4qsWHG5wFi6741rt7I54IWGqWOw+Kq0ZesKYHXFv+ADyZH/sOyx8Mxl74FBk8mDFckqTKhiceDJchl4MxY1KBJUegCVDj8L8qAcDhd0m2xgtdqBCUgc8sICCIAaUznsOP4N7G/dwpp6PbWctBxvvjbLTxIEqVdq6ZFZpV5QKElCqdcE/G4N5XF4gCCIRmuLwhlwk2ZXJ9Hl7AwZUna0x3vtk/sctY6F2z61tHmc7IuJoTSpyHOPCf063bETKia3SgA0IaVtnDGbPW2sdVhgn7WD/bnWFFrjM9k5+rm/habpC1IJWiGAhchqNBq5iE5Je/28e2Bq3hj2ZW9xdMGHtevhninXSszCUE2LA68gufStgx/CyoMfsiP+Zs5fNlw6YWlItrNfvD1mj9NHTVcp1C3/u7VOoJ6z/Z1eG3S6WsTVoO9Kyajg1x+JSUshTW2AZy9ZCSNzJ4SAFIFgJQEpUkmCUo9ARQKh4OIMOUwjwWZ1QkdbF7gcbtHck5JCMUj6YOtWWHPkbTA7Q/1pOI5WofbPzh9lHZNmyJmdlQNCNgGaUIJbOwRc2iHg0RaCW50HtBLBn3Psd3TWAlI2ON8aAc9ueghqOg+L+5W1q/55pWopCyzZscrnoQMqJJeuP/fqzHgaTCIrSTVoJTKn0Ifye8GgVLPJyvN0ekhTceYCEmvRJNxlaUv6wEZNkO7JGfnUjOzC3FnZnPWMzza2FjcFTU47HLB1en7obHI3ue3RiMz1drt9WDL76KlvOGCBwWAoJwhCrFyDF98z6Uq4dtSFoqbyxuHVcFnpuVCoR006FJxCHfFB0Fq+/mGoMB1i/VnPLFrVPm7Q2eLxiDTj6N+u+LJ1dP5U0a8QHoqTocmFFT8+CuslaVZun3E/LJ74S95nhevhNCtgDwYIIJQEqDOVoNThreQ1Ll4qTocHWpvN4HDwRE4WpfA6DsycXjtsOvYJbDz63whtCqslX1E4MnNmdmGIz8GnSAdb+mRwakvBnVYShVIR9J3ZqXagXNzpEc511+obQ+6XrF2l6lGPHGdnVwvcum+tx8vQGizu+dJZ83sMsE50JW6/H5Du4O8hR1uiYyXbT6tQQI42DdQKZcSleDr4r7qKmOFM0gvKMgs6lw6dmJsM/QLH/3vNLmpNe11ICa/epJGJte9ogBWRyO+ykhnw6PRf8uYUBwJvHFoNt024QuLLCj81DA3faaFMcMva34HD54wALSlghaeY6Xa1g93LKX3o6lYxSvjNx8F89bOKz4fH52M8JbcuwQxkfycJUGcoQWUUbh6CFXYjAAmdzce7wWKVntQJ4uB+otm35sgKUaMq1BrgovyhMDOrMCqPxqafCFbjVHClDYsBUjg/n0eLPwDweh3QZW1g+5e3bodXtz0Vcq92zbshru8i2Yda7s9JAGM33zxWDn8/tpf9PVWmoTC21eMCqzdWRENq7wJ+FWdqdJChiZ9oFk3iN+sPuN9uOABSjlqmSkP9uvQsxcWDhun6EjiOvrSf7/yCrfLM7zJlpmEEYOn1+qUkSb4tFefo9CJ4b/7vRQ0L9YNqazNQXjdMyx/LazSCphXbEf/VsQ3w9M5X2aGlpNJnv/31JsyHJfxd6pzvcraCw4cuLgAVqYH/7noOvqv9gv1drzLAu1d+DnqNMUSjQlAiVQrQ5qqAVHEaFybz4zQvAIvZDY2NXYCBx0HflrBjAjqdbfDe3mehpqsCCnSZ8NO8IvboOVbKkG5jGXRlXQABBVaElqSUiXoqyYOWhCHf2nGIXdeH5f+C9UdXi6L/aV6p+eUpqfnWT+3rcfqMZnY7YVnFevceW4d2uD6j6evZV4UUROnrTvEEEeMN0Smf6CliMnMiUCFIGdVaUHAZJRNuCFxoLja5KfaLOJUpcV6o2e3+Z32FFD3RNET/dK8zNfCvb+j+kHuhUqlCvdwA8P2lT4FRY+BZTJxZ9WXDDrisdDbrA+LAAB3dgqYVLVCahAc3Pwdb+TQvAmi9t/uv5dIgaGkVHilgZWrz4DcfzAbKyzm6bzzrZvjllF9JwIjTsJQ6JahzVJyfijcLhV02N9vA1GmXaGJBoML/bT++Fj499BqMNeTCrSWjemQk2/XjoTNjHvjVubzfS+LgZ4cNO52MkYm0w1wDAdoLf/jmZuhyBivupPIbP+Gn+AzriIBSaemEa/eu8foYWv329Esc/REojdocghZmd5BmeOituNWkAgwqNRjUmqSBqrdzJnOdtCqOcB3DMBspiupTtY6okGw0smlpQ1I4/m3mLTC3cBIPTjwoMQTs6ayBabxDnnO0C6dzoaeFQpYHu88Ny75/DI6iGQQAxVmjvr+x7I85Qk53/Ju0SrQ0JKfZdACe/v5u9jrMN/+vy97k8nTxjnMWrPRKUOdqWAc2d8YXNPMa6rvBbBXStAhxMcLpIcCqg6+ByVIB9w4f1+OpkVeZBaacS8ClKQ6CteAbY7/luH9BEOfMUM5zhS00eV9Xdx20WI/BH9cuFZ8JDHDeMe8GmXeVzFvSy75I/FzVWsMWk8jT6Nq2nH+dNEF/L0eNfRmCl8fvw2yr4An4Q3JqxbpKSZCgVSoBgUqHP6P4qFK+0D4OiKB1zc7VXg8d4MlCrPVxQV/Y8rEAC3PX3CTZLz+YAAAgAElEQVRd721jLoLbx10icWxLNSnhZZSahQKFQKppcSBWYzkOyzY8wfqzsGXq8g5aXCYxKhQd80J+eIu7A2weM6tFrdr9N1h39Cv2mgdm3Q8LRi7gz9Y4cFDoFKDJ1QJBSh3v3PlbXV03WO2CP4H3ZYmgBrDm0ItwlrKbDZeI1bCydXd6GVjSZ7Jsf+7AgXfwsxcFNU0eRYNmNEti5T8PuY6ALksd7Dy+Dl7f/rg49Zmc66qP70nSlwsne9fs+dJl9Xt1T44713X1kDEiKz7pAXtxAYKYT5IMUBhCpVAMSA0q0S2G+7MwowNFUcj16lWLCljRCKSj0wfDBxfcE3S8i6eDghnEgRX7UopUAimohZ4mflW/GZ7a+c+Yixac7whWCFoaRRo88/UNcLT7KAxKy4ePFr8j0aAIIDUK0BbgM8anRWbNLw4kjtVboduKeYu40z+uBbdecewduDor0GNohFeZDR3Zl4BfnSM5hQzyujiNLuj4D5rJHHmV07CkoBbUxNq7auGzw2/Bl1XvifKQw3B69Tz36iIEi+N2C3xrqme1rAKt3rTpvF/0mUzaq8WchhdhEPrT1TvEndnt9uScbRKZRL0wlh9r4yWPg1Glk5wWCiAkMMoloMViAv+5CG6hjvk/7/oXfF2/OeotUpDKps9+1TBE4GEZVelw07tlbN9l026Dq8YiSPMOdYIAbUEaEGoFT6ziAYkgoKPdCU3tDl4TE8KnuW0jyBDWTTBd0dLjSZw9bRyYM2YDxuhwICholMFTR87cE34Pkla5iaS/h5qLvoAPTOaj8Mr2J6GinbupyL3af+HNZ2Qm0ZP1vgolu67bu4alOchfGKm7E0h3mL/lY3HAvpiFMZEuGh/rsSlXweVDyySOdcHMkWhSoqYhBSdB8+A1MD4Vjc3rZLNAYL6taA2Z8fde+MpczDJqMlfD4+t+y3b78sr3wYgngzyTXZGuBk2mNtRnRRDg9tBQWdMNeBgoalQSDWs4XQulvoM93pmujLngSBvJgRTvwBeoEcLv3ACR/K9wPpigYXEgxoGbx+OALnsTPPjtbdDl4pjN8ulg6l6WREcSsoc+XbPTucnclLaoYETTc5PmpfTEMNG1nI79xqx7s38BK5pZuLB4Gjw+5eeScBepzyaKTytCw+I0E85c4vpbvS64cg3ysyJzlvO+LLXFY9Ltqf4vvLXvNS5d8/l/5DaPDm6ShLRiY4SDHcGg5qhdLJUlZFMQHPH5TDtM9AXV1GgPiSlrPrg1RbwDPzK8JwiCgm+KN/N4PpioiYm/B/txciCgresYdFMtcM/634hLON2q4JwKL6CQJubH7hZ4ono7qEiF8+D8pad9cY/+ujdCzUkMeUL6RNnGd/sXsKKF6RhVWvjhkj+F8ZokmpSogYT6roIaSHRQO2JphDs2Ph0VtGYOmdN429y/F3+3/zX48MB/4OlzH4Bzi2ZwYAUAynQNqLK0Ej4Vp7lYrD44ehxJoeFKJAF6wg0zPOt61qwy57JgFQJKvEbHgWV0My9SEwuNaQwEvOD2uljWvBu1K1sTHLUehX/tD/rzZHOkv16jnscVsodevnOVz8vQKrnGYO/vA4LUy8f2wdftdW6kPnZ4nOLJK03TU3sbX9ij88tgMKwiCGKRdNnPl10PFxSMDwYUi+ZQKBj5aQYUCqVoPoovuUB9EH0+3HVf1m+Fv+wOqo3SOZ+57F34bN+LcNB0CNYufks0p9AHpS40gEKjFM1Dwcd0uJYCh4svwSQGPnOjTvHvgiw6yHcKvy3mjHPBrS4UQVHqKwsxC6WO9hByKscHQ03S7XMC+qk8Pjd4vA6gWTjlDgbsLjO4PRTUW6vhtYNBru6Ri27t/ZMiX9lrCQhluwSzcFpGfusHM/qefqbXCzoNLoxGbUi5012QUzTW+8IhU+CJqVdFZD8IOdIHAnwMw4Y+aJSaGKeGQSqEkFv4+fIP4OPaSM1nct5EoIGGIfoceHgG58fiYgRJ0BYZJSlkOPx1emg4XOsQE5Ry5iCneeVCF0zqwRS0GSaDQzciyOMSwY43Z0V+VRCUBDMTw25Qe/L43eAP+MCNZm5IuBC7cHYdNE2D2d4GCtoNFQ2rYEUzVkQCGKnPbPtq9pX9ygM6Dd6DftmCkO5YNgtTK14piRQr6lAUFYytS3KqeMeLEdkb0CzcvOChEGZ3eFYENrE5EGD2OSGN1HKgJZhRIrmUd8QLidCBYJMEXvH1g1FNQ4MqDR4uuw3OK5ougokyQwuqTDy1DOVVNbZ6oL3LJ9GQeKkwNEzxbYNMInpKW5dmCFgN0yTXSU4BQxjzwb8HAgFwep2sJoVaFJvaTxJ4HXTQC4529mwSuuxtwHhMkOGsgs/bK+ELExdcIDt7k3yCU9hdWrbr8p2rvF6GVsvRBqkRcNmGd6w2vzeDYZgXKYri2N+9aPEAC7M3RJiFj0++AhaVTAshbQo+HWmYDpqFrV4r5KrSedDiqzQI4BUSxsNpMP8+vBrerAzG00n39O3lr3DhQTy1QJmTBkoDf/rPn+IheFZUO8Hr5SO3RIc3gDZggRn0jgivFs7hU2SAOXNOSJhPkPwZ1NBYMGYAfAEvWF0WcHudMXhZvIInAS9eNQSbqxtoWxXoPdzp6P/aa31fddar8P93DJ8Kd57mdex68ZyekEswy0Krk/syE8zCVCX4OyEbGMCT/GTLR+ZmF5Xd18wNcQHLaDRGFFidll1CvzX7FjIIUuG8pCCj2xnwQZvXBoWarCBoieTOSOpDM9UFS9Y+FFX026/6v5AYQHVBOpBaZRBkkCbgA9hf4wqrV8Fts9RfCUOhMerYXRnnAq3AWEleExL5VuwfeNIpAR6fFyi3hdWqBMe/kLImGDkYDAcKpUAAULbjQFsPgg6Cp6LPHttlP+KyGnGmP4yeCUtPsVJQA/g9SWppUsASzEI5RCopEUbtLD0lpGn6HofDgelVetXiAhaOGi22cM1P7oLBaVkR5o+ggXCkUe5l7/I5wRbwwCB1BuiUAl8qCk+LNw8f37US1hzfFrGhTxc8BYPZHFwcqGiLM9kAZ6mPytRNQ11LZNklkvbB1MAuMBCRGSExJtChHyP62gRNSGrOiRqVzxMyX7Bkl9QsFVjs3Eisz8pnA6epHBT+LlCQPBuf36EUsGQTpFfPccouktYZvGbPV06r35Mmn9r2TbyYueGN+gqtkK2iL1pWQoAVzfl+3dBpgQcnLVREkCGlvh5JmE6Tuxs8TIA1D9NV+kifluTUEFPX3Ph9aF4oFNmt4y6D28YtZPlLmOtKWyLkWwtuo77VDx3dAR58goLW+q0wE3ZHSB4zglrSZwFNqCKoEYKjHk0/GxbEZH1zkhbCt8K/h4cFEQA+K7jMleB3tYFKGZlUDa96p7nStMHSzCKxDFh9ezn6erUUsIRQnV8UjbE9LhcA6ZVouVjC1U5FgEnDE3IvwSJGr/NjJQRYvJaFeWzEFKg6UuHdvuD3asASM7wmJcbShRzxczwkmmGg2WsDLxMAg0IL+WzudYEKEcaYZwi4/YcXYF8X1iIMNiyI8f3C5zkNR0mCZoig4QXpUlV1PrA5Q4uV4vwF/kYYQ9RECN2hGw5udZEk1i+U/GmiOsDt44KmozPceREK9iBBgCLgBJWvCzJoK7g9FnD4fGDnx4h216WAtf7cq/u93FOvnrwz5KJGuzUkUyhqWQww3l0X3JiKwgwDWopv1u9377V0WC7MLyko0rEeCrZhYYtd5rb2LV3NjNXvAeRUJVImDcuK3bp3rZMMMGkGrcrqdPsy3Hjez70yFj51clL5sRIGLIPBEFEC7C8TfwI/GzpbJFHGC/j10gFo8ljZF19NKmGQJguUCHi8JiZlwH/RsAOe3BtkxwrCe2TaDbCw9BxgCAJ0Q3PCNCkCKmq94ImwCAkY6auAwWSwkCUHQCRg8r1Q0OViBRFgO6lOcPu4oGnO7AzNAiGkUUZNTBGgQBmwQZrfDJkKBoxqNQtSmLyNZmhod2A8I6ePhjcpYMkcrJP7TgtcLGEVgpZ1MjI4nGhJTF6/gi2BpmQIUEc9mgquCM27dK227e+T5hWEF/BAlvuzNTvNG9obsjVAuh6/aXL3xBJj9tV/+RGctF/r49+D3uTHShiweOY75skStawslZbaPP8OQ0Chi8gLFUF14M0lD+2HJo+No08SJGSp9JCB5WuihPEs/OZRaHOF1sQoTMuGzy9+nJ1PMzSLj/ELpnjZeSQATICWpM4jgGB8MJneB+kQWrjUrRrEpzOOdLR32jvB5eczPIgapJCSj9PCVH4zq0mp/TYwqNVgUGnYnEVCk35b2z2emFrWx601jm/MDXq8TgasE/2ahs4XDlhY2AGT++kUSufprGV92lwNfzi8GdQMAXiMhW1EkeH4qKI0b2i0CAkVR21pJos72xPwa30EA0pS4RqiM3SRQCq73A6dw+/LwDEyDJqOF387SVOcq8tAd8nh45Tp9ld35/k5s5BtyfqzkgEsdL5H5Ml6avx5sHDoOUCTeCov+HCix9YJPiCPRNNCYagVKshRGniHfJAx/8HRTfD8gc8inuB/nrscpueNAm0pp2EJ3E5koe+qDmCybu4a3sekYNwwnd4DWgKr0wQb5mAPkAi20lzwAGanBSiPg093zGdnkITlqLxdoPW2goYESFerQa/SABmWnhYzWTZStpD5TE4H+GiefS/5ZFXHUZGHJQPWyQUsTJkcnod9xfGDng9bqzUPjCpz31p6Vvyk6Sd3C72aHWkHJqcjWwCrR24orZo3STNWzNgr+qaFAyUSfqx0tqxY1+Y/2mwvkU6aplVZr5tfbL72/Pxh4gk7EJCVqYanVtUf+c83R6X1SZMyDZMCrGhpZ/I0ae7N51+v9aqy0bHUYyoVblMcmB2wNIFek8b+XyCVaggVZKuNWDKLHcfmdcHl654EijXLgq0wLQtW//RPoC3FqkWSwhIBgD01NMJ2SAwhSTvhHGYX+unF5if1QOnHRjDaXT43mKiuEMoCV5KLALWnHdS+TtCSBGRr00K0qfCnRHpELn6bMDR0OZ3gC6umIgNWr96xfrlISh4VJkAt67q9a3w0Ad61s6/S96VAQ78suo+D4inev+sqtBpe4RhRpD/+xp0FJZwfhOMdCmRw4R2WApGNot0HG71m/CxTr1SNL9HlCcqLTqcErZoEI2ZUUaP1QcK42ze1mswusTIWwzCPUxT1WCLbSAqwcECDwRBRVQeDROfnDwMELYZQSHw9nMM9Mn8Ul6Xh2YNfwdUjZ4NBhVQHDrnxp5JUQLpSB3plGmxtq4L7dr4VsZdHp14DV865GEglZv7ktuH1E7C3lg7jYAFoaSuUARf6IjS3ugA8GC+Ijdew8L60WNsgIAIKNy6Gz2g9TaBkvJClSYN0TfxUVdEAC8dCf1Y4aFU5uuG5+j3sXLKGlchj2399YtUVFHxZYw1ZnZ+fsyTp+n79t+K+jYyneFduWwUCWOFoK+4bYi3OVWRIQUmjJiEtTQFaDQkarRJUCs4SwiSpXq+gdeFPEkgFARrMTQckEPoiIPNmAG0+DIz9GFtj4dv99rrr/rxTWqswYS0racCK5svKUeucP869Lg2d2D4etGIGDEuoDt+3VcLrVevhgcmXQ5aWI21KHdsceCnhmb2fwE5T6Akfallrb3gGFGlBDd1Ho4YFwNChzu20QDdMJ0LzXjm0IyDAFjQN8qe6XTaweShJEkAARcABWk8jYL23fJ2eBdNEWjSTUHod5fGwp4cBoOGIwwLP1nOUCxmwEpFu//WJ9UWDM95xYL39qNNqPF1MQwSr63es9jI0I+Zcv2Ze3rFfL9AMx/2iRZKRroAMLJWnQk2LlPAuhQIvAtWHC8fjNCsOwIiMsaA652XxZvm33wu0tZodZ/pdu+saWoMFVhMllPYGsCAaL0vI4USDAvyqLPYETiCPhoOQNGXLswfXwJdN5fDQ5CtgZGaBqGlxu+TMxw63HR7YvgKc/tAab7+ZfAksn8fl5xLCaHYc4QCLAz/uz4ZAN0wlDoU85ba08UAQipCwmibUrmhapDjgyZ/O28L6qXK0rE88qdZg606otFObxwFLy9fKgJWUdPuns5AuOdroRx0WuOfQRjYj6al+ahgNrFhTcHkW64/KySIhI4MEhdSPIkR8SECJBSgx/EwCYgyAovQqUIxbJoqSbt0I/opn2Pf69bWmY4+8eYQFRmyJBkX3CrBwgvCMpHhi+O2cqwxY7huLNfgkoMWuSJKxUwpGCGq3bH0T9pobYEHRWXDtyDmsE1vM/sCD1lfH98DK6g0Rz9G6m5+FwemcLwvbjhoSGD/WGxS6EpBOm+EsCJZ/R0e7Szc8JMzH6fOwvivBAU+CD7TuBtArVTAoLaSQbcJvClZjSbSk04Idn8qAlbBk+7djT180gmmIKzhVGfAYKrN422fdZrcrS5BkZrrG9PZducZBOaR2UL4CVMp40CDwFSWl9PjYYM5RTwKRNhRU54dSk7zrlwD4MF5TAYOv3+Hy+gJisQ+73Y7r6ZGXFW9VMZ8Mg8EwjyCIEASRllVnzUNlJuvTigjXCctmYPN64Ffb3oZqezvrz7q8eBr8tPgsQKKowKRH8/DR3R9CpaUpZE1lRaNh5VUPIkKzoLinFsAXehgIesYKUyGoYWGgs0eD/qugOdjptIDDG4zv03iaQUf4YbAhPQ4jJfbLE8sfEu2K2/ev62pw2XNk4mj/glEio8f7onmudpfv+65GNlj9VNO0sHDqfRXfuwkGRF+KAFbDhii02VmJuTxC5SjASJhZSBCgLHsFyJzpYvfAoech0LiaNQvn/r6q+lCdfbRkrMV2u31VT/eo14DFa1kRmRykLxyCll+RzlIegiWuhDTJApWAM/uQZHnrjxxosWMrtTAjbwRcUjIFSo35rG+r3WWF+3e8E2Ea/v68a+CX0y5iy+QcrCfA7kYqZ9AVpaYpKCP2i3LAuoI+dX4IJaLR0s4TOwkg/RRo/CYYok8HLLPU24bmRZPdkpBZ+PzRPd3fdjZkyaE5vZV26q6zetxg9kSm7JbO8GT1dtvW7ha2buTNJRPbfz9m5qDUraB/Rnq0cqvtv41V6VIHu05FNL73QEHe6GEqbXp675/1CABjTxcJUJQsAcWEPwQBq+FTCBx+gVUunn+/ZsdTqxwzhQ8TOS3sE2BFozmclZ5H/Xfm5SE2FFIIRHIpf0QaDFgOlsZiQWvbChG0hI3ka9Ph0pKpUJY3EnaZamFF9aYQ+Rg1Olix5D4Yl1cMNU0AXZQQEM2BFp7ynUPskwBWDviUfFgPppYJ+KHFjgUgOHFoPC2Qq1ZChrbvpemiHZNHexwFU0PO594/L2syo8Y7MBHGeqWu3PtlxzHWYT1Kn9n210nzClJZ7j2ZNffUF7Wqhw9voSifx6BCc41vk4cwe1+43jUtP18J6UUjARI8UEpmXUTGBFDNluRz79wBvl13A/gc8M3m+oob/gWTJYAVN7lfnwCL17IiQnai5cKmCTX4FQY2DCYa1UEglaJ5+HD5KtjUcSSqXEoNeWBy28AR5oAfmzsEViy5F6w2PTSbhWNWbgiC9sJMKAcFwZE2Pco8CKjSxXU4vG5Ak5Bl3wc8kOY3QUl6akLHEtWy0KF7x8Hv5XxYybwN/dg3nlkoTP11W537xYZ9onn169JJ1ttKJ2egL/dkN4zle6JyW1uNo7tAymBXEmC6Y76vfdF038T8bD9kGBhglDqAjNSDFqHJBdVPglmEGaoOvBsWAmGtAytFw4gHWMuabYk43vsMWDxobSQIYq4wsdQBL71pnIloAIYMZiANJskLrUrz7KFv4P26nqvahD8Qi8edA3fPvAWOtkjsQTYO2g+TmYNs8QkWsFT5EFDgqR/nw7J7nGB22ViHu9JngVylH7JSoF0J60tUy1q4c5V3Wka++z9ll8kl6k/y294TvSF8afhl8/yxPSzlAT/DijuLCkY4fjt8St6JJpmiQ/2/LUfc/zl+2N7mduShV0nDkKIfdtYwetsDP3NPykwDQ7qehkE5wcgL1t9sLAHQiNF3fb4LhGE4qM77XxCUzLvB99UsIBicl4ScZSGn7/V8QHTMeVMCWLxpWC6NM7x+yDjPn8bNjvo1I2pbrEM+mPyPU4eClaO/b6uCR8pXARWmTfUkxccuuAlKVOfykC1wGwIwmqmBPII7gPAoc4BWprM+K/R2IVghqx5VLo23HYYaDBE5q/p655opG2Dwd0/tgcObLFTA5/16zs/z+zqffH3fJRAeVxhvRNS23mo+FLD7veJbOEqf1XZ54QjNpQXDs/oLvDDYeG1HnXt9R0P3HkuHyCDH3E/oryIIwjE8h655ZJFncEkuzT5bKgUDxYV+UIRlTGL3qM4AMBQBgxEnfWxk3hxQnv2KOAp97D0IbLlB/D1nWTArBP4xXoGKlAAWThSNmxWvTFKA1IKfTAOCUAYzfXL1mMVwnSaHBf5U8TnsMTckLLq7p/0/OCtniqQ/AyV0PRSTXKUcPL30KdJFCoPZZWe1LAICkEWbYZA+VIgJT9xDR/SLIGgJScyidRX8WDJ5NBUS7/sYyWhZ0tnwPr7XVGlr97pCNOV0pdoyypDpmp45KG1K5qAMo1IN4ZkO4q0a+VMtbgrKLe3WPZZ2Zw1l0dn83gj/BZqAWoIwXTLJ33jzXO9o1KikYxfm+sGQFj17iNhPmw20Lg8INBd72RQTHwVFMSYt5hpd8SgEKp44+YCFKwjP/445s344/1p1T/Y86jjIi6IVGFfIfhtIqAxCniyAd4/tgNerNyakbelVOrh/+r1QYiwWHek5dAeMJblCDz6FEQLIE+PZpZ2UlfWJkQEXDFK4U+Jsj3Z/nT4vtLtCM0ZI+2HM2lV7voRd826AgeAD6eUzelpdFi0YOtENoqn4dUe9d7O5KWD1e3t86xHMMlWaqBwkNx3QSuv6xZtfAKuPlzl14UCF1+o0NAwZ1LO2HzIHqWbNREZlAMB/cZzzRMALjN8FhNcKqsV1AKogbvs/GwWMPZjnTqphMQxTQVGUVNOI2GrKNCx+ZKyyE5KC5rycIc7/m3Zx3Aq6HHClseCF1ZyFKHFpRlO0z587vBZWN4XGBUa7gWlKHTxwtgBaAGraBWXkAbYrzuNVZosE+U6nDdDxjsz2Yi3ZY1BzvIcl3ufxuFm3Vnzr/OOYWWkX5g+NN5T8+QmQAB6atDnscc35eEvBaIZt5hbYbG7uPEyZUxKLiC84T7REd8wU9CNjHivMZ3XOMHrbX652nxNtXQlpVz1siPV1xdK6EKhY/xQAkXM2KC/bJY7EdPwI/m/mhIwcBlj9f0oYvq9ohNJkjuoRuNDHhY75AKEOJteTVFqusrbDc4e+iWsmImg9ePa9UGwsBpLxwVlQyTrecXyvOk8kanU5bUB53aDyW2CYAU3UVON4qJR6Aq3PWmvAwQTgkbFRn7V474X8eT9IAMvYtzrsCfHpEp0ei1ysaq2x7Ld3hZtzVoZh/sEwjIUgCAQisfn9/nq3240KgbRlGgyGuwiCuFvBQKbAsTp3VGDvE0s808LXg76r0iJ/osvscz/lwgogss7iFIVNPwe64RNxzK/3KytueEMn0hoAYKXdbl/a06T98maGZ3TQkEr3RzN+pu0NRyVAaFgOF01qIrJAoF/r1SMb2bCeWC1XmwOPzXoI9EotDIMGKCQ6WZPToyrgyawMdLspsLldYGBsUKSPqwz2+SbiALFAC7+JX6rbBx/MWJiSeeRBUiOBeOZ8b2d5qHKLe4+tQ6RFJEKeFObS6/WoVb1NEMQU9J1rMTiZbw8u8G67eLI/4lsvyxiA3KyePKm93Uns64hBcwH8FDBdXEYSof15tWrdC2u1Fwm/J7L3fgEsXEC4PwvzZq05Z4m2t74Z9G/RpJrVjtiCEQqsKM1RIaqsbfBu3Q5Y3RTyhSQKptgwBH418SaYqtfAGJIDNzQJGbTNgQCLmwKrxwkZjB0GpZ0YwMI1oFO33Rn5zf3nmu3w5vRLUv/kyCP2SQL4JYM+rVS+7gL/LpmXlu+L7hd0yrIamk5CXcDfYwHWkHw/6LRxnO19klLiF1/5su7zjUeUiyRX9G9oTpyloaqK/CxR5bsgt9j3z6k/DTLFEt9b1J4IXPgPgQd/Wvx++KLpAHzRuBeqWeZ6sKF5+Ptpy2BJhhVUEAA/aYCAUs9SGexeN+BJYQ5J9SorQ1+2gT6STpcjJEj6kL0L8tP0SZ8g9WUd8rWJSaA/zMOf7/nSIVAhEtEyeIVgA0EQbMl3gRQ6RJdeOdKYqdrYcXxkLJNwVElYoG1i2+6XXqMe0FeYnaSIDzRNT3U4HNG1Dn4F/aZh4fjR+FknorIxDUqospvg5j1fURafRzzO1Sm1zMMTLiGuys9mNTW/EnOUEeDwesDktEI+6YLMFBJGk7nLqG11uZ2ic3eXtR2uLh6bzBBy3xMkAQQtkyt4r/o6rZBnC8dJBLCkIXFCwYjrh00yDUozsKXiXj28s2lIrq/r37e4pf6h5E8H+7qxONfnLDPiqajow4vHwcLh+hWwcAK0s0mSDAbyYRnw8efBkiJpkHb/SAZPFW/Z8w11wN4ZwkF5YHSZ+5ahk7U+VQ47McYSNtu7oEgdAL2q72S5vuwGfSV2nxfqnFaYlVvUl6Hka/tZAolGMMRbBhKGBed7IoAl+IgFv9UoQ1blwqFjxwnzfNd0tPKAzVS87j4HHriLz/7J8F/F2nttO1E580mDuOZEwnJOCGDxoLWUJMm3hcVrSYXnwxkLNb1xwse7+dE+f7zyR8/7TZUhrPuLB5WaH5t4cbaRrY/IQL2lHYo1DOiUKbNYe7NU8Ro0FRX9fFrZpwXKF7MSQG0LNWM35gruZXvsyLau7ZZW7tsTIK4fh/ddlaKTHUHrquJxLSXpmYOF6W0el+3/asvTbzzHV3Hz+T5Ry8rJCEB2Rio9cL3cMAD8dY1q62MlQpkAABLVSURBVDNrtFKOQ9wTwhMGWDhReF1DnULp+/KcJar+ClcIFyVGrN97YANbd034rFiXYfv3jGvSi/SZ0GzthEEqH6SdZA2r94+AfOXJlAACF1bboXwRRTHjLuu3+7+z1LlsrGnk8/mGRaEuiGMI5qAKy8zxmRcmpOdUXFw8OsT8e7/2wIF2r2PYp8scREYasKFCA8nhfuFzabv2HVeUCRvr1xTJce9AjA7hZcKGp2W4PpqxUNfbk8Nk14Em4vKK9dbt3a1idKdBqabvGHUueUn+SMgkXKCTAStZscr9JRLAECzM1e/0exPWuoRss4mYRUajEeNcPkuTUBgIgqBuGT6ZydAGyzV7fH7PazW7/YMMgbr3/5974kADrNzlRivDBGucJmIKn1ANS7inJxu0cB1YNPKxyq1uD0OL/JfzcocxT4wuIwb3Qxyh/EafmRJAsx59kliL0hPwgzeAJUdCGxJIn6jezv4xkaKiaKkogXhUmoQPr9WTqurbx50d4hjea2quxRPDEXlM+b9vcU0ZKBrWi2tV+55YrZ0a/lSc9FPCWI9pOGiN0WcF3i27THGiNC1cF2pb9+zf4NxibhaJV+hb+/ukCzRyWMyZCTAnYtcIYj6Jv+uuA9+3b+xsZLOVJpLTHPmNGiAXCQVPpWtGWsPVwyeIjmz8TACtTC1T/dFdlGF8CS36uk7EfqPNUXqfoZZyE2zWCAZAGiBu8fl8U3syifv9lHAggxauDZOc/e7ARo/J4xR9W+dkF1pfOmv+gEjCdrIeKnne/pcApoWZv+VjdqJETSLkNmqBnIvVP7HNzCrcqyYUqs3mpkms2adLr1xUMnaERhnMDdNgs7SsaqxSOciA+ubzvBXPXe05v/93F32Gq17V7dhQqZx50/Czqkan5w59cv+mFjcdGCH0jieHkwZYuMCBoGkJglrRcBCer9klmomYhO2ekdPIW4eenqXJT9YDK88blMDSPWus28ysP9Vqt9tL41WMwSsRsPSgEJNl3j+yrOac3KJRh22dDY9Ubs1lGEavIRWNNwyblJml0xtJTEqpYFOGu9Y01xze3tk8SqFgbPcv8DTct8A3EYigH6m/741wMjjckLV32bgZbJxjt9tpfvLA5mzJ3FhUVazmE76mkwpYAw200Ex8s/6A++2GAyD4tzJVGtvLk+enJ5u3qL9vvjz+qS0BPLW+o+I7dhOJ+K6E3aJJqAVykaBhCYCFn9u9bur28nVmG+0vCRBgvahgWN2C4lEh6Vo8Pl/nZ8erqvaaW4cHCEY/Z6S//OGFnsKy4XS/EiMXvajbtKVGOVdLKo4+Pf3CQgZAdMU8vm/DIavfO0HYY08E0pMOWNFAq1Crp1+fchF5onha4Y++CFzHD5IeOsAySccbcywvT56feaJoGKf26yivvicJ4PN17g8fuj20X8swzOcURQUz3MURHTrdtUA+KgDWT/OG7vvNiKmiA1tJkPCHqi2bdlnaWC0sQ6U+dOfYmYOztGkRWktFV2vVDx2Njjqqe7pSwTSNKaTrL5/sI5ZM95cOz2dSwlr+29eqra+s1wyyu4mRqFktHzdjrBSscI3hgMUwzAUURW2MJooBAVjRQEuvUAXeK7tMcbJAC9eED9anLTXwel25GOJzYd7Qtj+MmVkgA5cMSr2RAD5TV+743HrcZc/gE9ZhPGCPxUOl8+j1+rs1pOIFgYNlVKhrVpZdOkroo1UooFCfDus7GsrvrPg+zw80CzwjDFl7rhs2cXg04HL5fK5Kq6lqq6mJbqQshX5gBhMEWLN0dN15YwLW8YMDyolFjGHmCP+wLH2IkzxCBMc6iOYttcrm/+1SurbWKqcgdUEJRMv1wyfZJucURsSauf0+98PlG0w0w2C2Tbb1dPgwYAALFxpOLsW/nagwnngPH1Ih/tN42FLJ5y+SgSuexOTPo2nud+5fL/qtaJqeFy/YN3wMDHVTkuQ+aSqZldMXOIwqLUsOFQBL+MJ9+PCWjWs76tkg6XjAJfRBv9I2U/PxdjflP05ZdHa/F/nxQ4TPBTCTrq3bRQ6T8qoQpIoNma3n5xfrowEVXotg9eLh7VXtHqfUbEV/XsySVQMKsHATfG74f0gLWtxUMgH+OGbWgHgD8GTnzfoDnv+1VBNoLs7ILOhcPnJaruzjGhC3Z8AuAjWra3audh1zWjFVsrU3YCVsDrP66hhyqPDy4knhg2Nmsk5sKWAJ/Rsctqbl+9fXH6HMfHUWzlT8yaDhzNzC0hE0MAklba+xdnI5xvlWbm4zi0BozCaNKjULNEPSMgp0KlXMMT1+X9enjVVVuztbJzLAhJToiWciDzjA4kELA6bRhhU3MyOrALCoxYnkasV7+tFx+lXbUep7U6NmtCHLc13xWMPiwf3qu4y3JPnzASgBLBxxR8V35mYXhadhDTRNX5GsZiXdFgY/K4G4SyCPkgTZ9vGMnxlIgjSgD6vYGL1MFwLX7w5uaDlk60Q/Est/IoCwlqSlH5qWXZg+MSuvKJrJmCqR7u9qPbKhraGrwWmd3cOYPcZSDkjA4jcTkU/LqFQzr025kBiI2gyC1zftdd5qqls9K7sQFg8eBSfT/5aqh0wep28SeLNhv/uF2j0BH02jydZgt9vR/EnYZxVtdiGeUJq0T6plDUuPyQpgh0Nt7z/HD295q2F/oSPgFzlQ+JmaIKtGGrO7CnUGckxGbkGxPj1do+TTmiQhCjT3mhy21iPWzraK7nZFp9eF3+SZaQrl0cWFI5vGpudq/3R4y7gw4miP5iAHsAO7YVZFNA9vki5z+fCpsGxERLrqAbMT/EbdYW6FZjcFQ7QGFrwGkmY4YAR1Gi8EXQfLK9ZbDofmbK9nGGYVv+2o1WEIgsA+mLd9I0VRm2KJCDmMCgZuErQsgiDsL036ibsozZgXD7CkY6LWtbrtaP0nzUdUrR7HzGjzoRaWrlI14WcqQuEYlp7lUxJYLSbY/AztqrZ2siah3e9LlzrRjUpV/ZLBoztuKB4/tiQtndXsrF63beam97BwlagOxiONngqAxUokmjMeTcSnJ5wPp8JpHbLpxxqyZdA6jQFKurUwraovu2YBzu/3vxit+ATvy8oQtA4tqWh4t+yynCJ9hkGrVPZq3n2WjiNbu5pN280tgWqqO9MZ8Of7mIBYnDWRQVGLylPprJcPHuW8cci4SRkabYSNemfF+k1rO+pFAmyi5NmBrmGJ8uETAeK3k1j/Ck3E5cOnEjcNZYPR5SZL4KRKALWqO8rXdVZR3Skp4yXZjAUr6VAU9aLUnMQDKhVBvi0NhB6ellH+VtmlUzI0Ylx/ymSyqbOx1k/TVKwBs9U63dTM/DHxJqyjrJULtn0SEvOYiHZ1ymhYEgGgX+sxgiDukgrlVNK24t1M+fNTUwLow7znwAaXlw4kdOLWm10yDFPu9/sXS7UtNA01DHGTQCTFcUsNGbs/m73k7N7McQKusU5ev7LNTfulwJawb++U0bCkguRrH64I07ZgacmEAe3bOgEPgzzFSZAAmvw37l6T0MxqgnQP02dQZ2cWUplqTSn6OIekGWG7uRU8gYBlq7kZBK5fjAEx1m6YRNPKNBoMm9JAwRX/41tJeubWz2ctDq1amtAK+7fTFds/21JpD9IrcLaemO3hqzklAYvfBGpbKwiCkJYJgiKtAZ6ZeL5ccaZ/nzt5dIkErt25unWvtSOmn0dDkO5Fg0d55+YWpyeSughP8VBjkxKVpQJHTYuiKGk+qcwsvXGLmiDFeDwfwYBGodz9/blXj85Qa6UpXE7avYsGVolmGhUWfSoDFrsHPgMjalshjj3ZTDxpz+UZN/G5P7zfbvK42JxW0jbGkNW5tGRibl8KriBwPXR4s83i84SAThSfT2auIf1HBRCib8hN0Jilwfr4+DlHrikaO+Nk3phoYJVIpefTScOS7gW1rbsJgng0fINIKVg2fOopcZp4Mh8oee7eS+CyH//XVuuwFOAIgjZ1+7DJ6ak6wUaNa/H2z61Nbrv0SzncNMTpM/P06R+TBCFWU3YSXI7TLKWm/IOyhZphhowQZ3fvd53YlUhfuHjrJ8e6/Z5wGkdCRSdOV8Bi98UT6h4L523hZzJwJfaAyb2Sl8Da9jrHHku7fUZWYUEiJl/yM3Bkz0XbVplbPCxbnm2xzKlsvfE5kiDuxxoVXtSxJG2cMXvLI2PO0U3PKpjem3Ukc80/anav+2d9xQwp16qndScy9ilvEkbbJDrlAQBPE6U8D7arDFyJPBZyn5MtAQSoKsoc4osNd+73VLQCaUAEQaCPN6SajrAvg0K1+9ahEz3XF4+flGof1/vHD2/4y5Edo/xAiwHT/LwNDMMsjZU6JhGZn5aAJWycD6RGjUvkbgmfIXAtGTxKds4n8pTIfU6KBDALLoLWMxOCGY2v2L5KzBiCJ4U9ZefERUdLJhC2Gcu3s39ODdWnh4NLUnte39FQ8fKxvfYqu3lSuEaFAzEM8yJFUfgu9iks6bQGLAlw3U2S5N3RgAsZ6EuHTgA5aDmp51PunAIJoBa14vghqHdaqV8MGWuIFiN79Y4v3GXZhe77R5WxYS/hWlYi5d3Rt8X7ePEdCD+c+uGdsy8LyfHe4LQ2P1+7uzZ8i+ONuW2H7Z2srw5bg9OmqHPY8sI4VeGXrfT5fI/1VFgiGVGeEYAl1bgIgkDnfISabFSqWY3rlyUTZAd9Mk+Q3LfPEsBca384vBnuHTm9+9fDpoRELmNc6nW7vvTv+8lNYqzNmHVvinMmCFhs//AQNxWhaD0wf6mOIEDMP7Wnu23P9bu/GhlNS0pio2j6YUjRP1IFVMLcZxRgCZvmfVwIXCEcLuFz1LoQvOSg5SQeUblrnyQgmHq75t0QEXO6YOsnrvtGlenQoY9aWdnGd0Ulhy9ekdDcmJZGGiWyfPjUrctGTItLLsUA6dv2ftPR4LbHzDiA2VMxYJsgiI12u10I8E5oXcl0OiMBSxBQT6eKQp/5eSVwUf5QmJ83VA5eTubJkvsmJQHB1Hvn7Esj/Kov1Ox2r24/6nxozKzsd44fEjKWol8o2XzwCCjiQdRXs67cMdKYGTVDQ7TF33dgw/bVbcfETJrol+IBCnPX9ck3laiwzmjAkggpE52TBEHgv6inKthXAK+yrELZbEz0CZP7JSwBNPWiAdZLR/fCq8f2RRunx2R34RdgxR2pVfHa5Asr5ucPjfm8R5twwrq3m4U88cmE1CQshDgdZcAKExBqXQqF4opYTnqp2Yia14zsQvmkMVVP4xk+zoItnzQ9MWHOkHDnO54WPl29I0Q6fAGLqDm1Yokx3IdVpNHv+P78XySsYeG4N+7+6oed3W2skz7RDAupvK0yYPUgTZ7LgloXlmGKoEZIL0Xta2ZWIQtgcqbRVD6iZ85YZ61f6f6/aT/VhgPW8vL15m9N9dJio0kFDIe5QMqlJ4VKIJuMSlWnlwkYHAH/SKHv+2dfticauTQMsDZRFCUWuDgRd0oGrASlLIAXAMzryWwUhsNYRgSuccZskE3IBIV8BncTfFhYt0DKlsdTwiu2h/qwkym8Gi7SBHhZ7CUX55duemny/Aji9eT1K48INIaeiKv9dStlwOqdZDF18zyGYRC84mpfUjMyXaVmNbEinQGKdEb2o4GYo753Yjkzr8LEfS1uCnaaW8Hi8zSgFAxKdcHsnMGawZg+hr/PsaSDYHXL3rVOHx1IOys9j7p/dJkB+27ubLS+UX8ghDfVF7CSalro9sBnlyAINCuxRiKmYy4XThFR8/px7rXpUhb845Vbf3i/qUrkbMkm4Sn6vPN+r3kkSaJ6jP96NB9jbRO5YKiRhTcEOLmdGAlIv0jsfi9U2roiJt5tabNafV4Ggcrm98asoSdcqCYVrnGGbNO0zEEag1I1CN0GzS47HLF3t39rqlfx1XR63CD6rDCspS/VdhKRIKZdFp5fDJh+fepFaaX6DN3LtXvr3muqDCGYYqRbf1IYoq1X1rASuYvJ90FmMX5zoQZWyjAMxnUldRqT/JTyFaejBJC6gDGBJwoYeJPx7QRkiVlCSxPol9IuMmClVJw9D8b7wTIZhilFIMOQCQBgT3oE1fwELkeeauBJwIrJ+XjTDAmYJ4zfJBUFpl2OlvFE0qdPhWD7InYZsPoivX68VgC3fpxCHnqASICiKASpE0K8THTL0SpV4bXo62IY5u7+Nk1jrVMGrETvoNxPlsAZJgH0zSqVSqwLipZAOcMwK04WUAmilwHrDHsI5e3KEjiVJSAD1ql89+S1yxI4wyQgA9YZdsPl7coSOJUlIAPWqXz35LXLEjjDJCAD1hl2w+XtyhI4lSUgA9apfPfktcsSOMMkIAPWGXbD5e3KEjiVJSAD1ql89+S1yxI4wyQgA9YZdsPl7coSOJUlIAPWqXz35LXLEjjDJCAD1hl2w+XtyhI4lSUgA9apfPfktcsSOMMk8P8BDhuDgFQwQ9cAAAAASUVORK5CYII=;" vertex="1" parent="1">
          <mxGeometry x="222" y="276.5" width="43" height="43" as="geometry" />
        </mxCell>
        <mxCell id="TqXny-_5BSrygHNTVk7L-175" value="" style="shape=image;verticalLabelPosition=bottom;labelBackgroundColor=#ffffff;verticalAlign=top;aspect=fixed;imageAspect=0;image=data:image/svg+xml,PHN2ZyB4bWxucz0iaHR0cDovL3d3dy53My5vcmcvMjAwMC9zdmciIHhtbG5zOmNjPSJodHRwOi8vY3JlYXRpdmVjb21tb25zLm9yZy9ucyMiIHhtbG5zOmRjPSJodHRwOi8vcHVybC5vcmcvZGMvZWxlbWVudHMvMS4xLyIgeG1sbnM6aW5rc2NhcGU9Imh0dHA6Ly93d3cuaW5rc2NhcGUub3JnL25hbWVzcGFjZXMvaW5rc2NhcGUiIHhtbG5zOnJkZj0iaHR0cDovL3d3dy53My5vcmcvMTk5OS8wMi8yMi1yZGYtc3ludGF4LW5zIyIgeG1sbnM6c29kaXBvZGk9Imh0dHA6Ly9zb2RpcG9kaS5zb3VyY2Vmb3JnZS5uZXQvRFREL3NvZGlwb2RpLTAuZHRkIiBpbmtzY2FwZTp2ZXJzaW9uPSIxLjAuMiAoZTg2Yzg3MDg3OSwgMjAyMS0wMS0xNSwgY3VzdG9tKSIgc29kaXBvZGk6ZG9jbmFtZT0iQXBhY2hlX1NwYXJrX2xvZ28uc3ZnIiB2ZXJzaW9uPSIxLjEiIHZpZXdCb3g9IjAuMDUwNTMwOTQ3NzQ0ODQ2MzQ0IDAuMDMxNTcxMzQ3MjY2NDM1NjIgNDEyLjg3NTUxODc5ODgyODEgMjE0LjU0ODA2NTE4NTU0Njg4IiB4bWw6c3BhY2U9InByZXNlcnZlIiB3aWR0aD0iNDEyLjg3NTUxODc5ODgyODEiIGhlaWdodD0iMjE0LjU0ODA2NTE4NTU0Njg4Ij4mI3hhOzx0aXRsZT5BcGFjaGUgU3BhcmsgbG9nbzwvdGl0bGU+JiN4YTs8bWV0YWRhdGE+JiN4YTsgICAgPHJkZjpyZGY+JiN4YTsgICAgICAgIDxjYzp3b3JrIHJkZjphYm91dD0iIj4mI3hhOyAgICAgICAgICAgIDxkYzpmb3JtYXQ+aW1hZ2Uvc3ZnK3htbDwvZGM6Zm9ybWF0PiYjeGE7ICAgICAgICAgICAgPGRjOnR5cGUgcmRmOnJlc291cmNlPSJodHRwOi8vcHVybC5vcmcvZGMvZGNtaXR5cGUvU3RpbGxJbWFnZSIvPiYjeGE7ICAgICAgICAgICAgPGRjOnRpdGxlLz4mI3hhOyAgICAgICAgPC9jYzp3b3JrPiYjeGE7ICAgIDwvcmRmOnJkZj4mI3hhOzwvbWV0YWRhdGE+JiN4YTs8c29kaXBvZGk6bmFtZWR2aWV3IGJvcmRlcmNvbG9yPSIjNjY2NjY2IiBib3JkZXJvcGFjaXR5PSIxIiBncmlkdG9sZXJhbmNlPSIxMCIgZ3VpZGV0b2xlcmFuY2U9IjEwIiBpbmtzY2FwZTpjdXJyZW50LWxheWVyPSJnMTI2NTAiIGlua3NjYXBlOmN4PSI4OS4wOTM0ODMiIGlua3NjYXBlOmN5PSIxNzcuNDk4MTkiIGlua3NjYXBlOnBhZ2VvcGFjaXR5PSIwIiBpbmtzY2FwZTpwYWdlc2hhZG93PSIyIiBpbmtzY2FwZTp3aW5kb3ctaGVpZ2h0PSIxMDE0IiBpbmtzY2FwZTp3aW5kb3ctbWF4aW1pemVkPSIxIiBpbmtzY2FwZTp3aW5kb3ctd2lkdGg9IjE5MjAiIGlua3NjYXBlOndpbmRvdy14PSIwIiBpbmtzY2FwZTp3aW5kb3cteT0iMzYiIGlua3NjYXBlOnpvb209IjEuMDg2MzE1IiBvYmplY3R0b2xlcmFuY2U9IjEwIiBwYWdlY29sb3I9IiNmZmZmZmYiIHNob3dncmlkPSJmYWxzZSIvPjxnIHRyYW5zZm9ybT0ibWF0cml4KDEuMzMgMCAwIDEuMzMgMCA0LjA1ZS02KSIgaW5rc2NhcGU6Z3JvdXBtb2RlPSJsYXllciIgaW5rc2NhcGU6bGFiZWw9InNwYXJrIj48cGF0aCBkPSJtMjg0IDgxLjVjLS4yNjktLjU3NS0uMzktLjg2NC0uNTM1LTEuMTQtMy44OS03LjQtNy43Ny0xNC44LTExLjctMjIuMi0uMzk0LS43NDItLjM0NC0xLjE4LjE5NS0xLjgyIDYuMTktNy4yMyAxMi4zLTE0LjUgMTguNS0yMS43LjIxOS0uMjU0LjQxNC0uNTIzLjQ5Ni0uOTc2LTEuOC40NjktMy42LjkzMy01LjQxIDEuNDEtNy40NyAxLjk4LTE1IDMuOTUtMjIuNCA1Ljk2LS42OTUuMTg3LTEuMDEtLjAxNi0xLjM2LS41OTQtNC4yNC03LjA5LTguNTEtMTQuMi0xMi44LTIxLjItLjIxOS0uMzY3LS40NTgtLjcyMy0uOTI2LTEuMDMtLjM0NCAxLjg5LS42OTIgMy43Ny0xLjAzIDUuNjYtMS4xOSA2LjY3LTIuMzggMTMuMy0zLjU2IDIwLS4xMjkuNzE5LS4zMDUgMS40NC0uMzY3IDIuMTYtLjA1OS42ODgtLjQxNC45NDItMS4wNCAxLjE0LTguODEgMi43Ny0xNy42IDUuNTYtMjYuNCA4LjM1LS4zODYuMTIxLS43NjUuMjgxLTEuMTguNjU2IDcuMiAyLjg2IDE0LjQgNS43MiAyMS43IDguNjMtLjI2Ni4yMTEtLjQ0Mi4zNzUtLjYzNy41LTQuNSAyLjkxLTkuMDEgNS44Mi0xMy41IDguNzQtLjUzOS4zNTItLjk2NS40MDItMS41Ny4xMjktNS4zOC0yLjQyLTEwLjgtNC44LTE2LjItNy4yLTIuNDItMS4wOC00LjU5LTIuNTEtNi4yOC00LjU5LTMuODMtNC42OC0zLjA3LTEwIDIuMDMtMTMuMyAxLjY3LTEuMDcgMy41Ny0xLjg2IDUuNDYtMi40OCA4LjYzLTIuODEgMTcuMy01LjUyIDI1LjktOC4yNC43MjYtLjIzMSAxLjA2LS41NTUgMS4yLTEuMzQgMS4xNi02LjY4IDIuMzUtMTMuNCAzLjU2LTIwIC42NDQtMy41Ny45ODQtNy4yMiAyLjcyLTEwLjUuNjY1LTEuMjYgMS40Ni0yLjQ5IDIuNDItMy41NCAzLjQ0LTMuODIgOC4yMy0zLjk2IDExLjktLjMyOCAxLjIzIDEuMjMgMi4yOCAyLjY3IDMuMTkgNC4xNiA0IDYuNTMgNy45NCAxMy4xIDExLjkgMTkuNy40NjUuNzc3Ljg4My45MzMgMS43NC43MDcgOS42NS0yLjU5IDE5LjMtNS4xNCAyOS03LjY5IDItLjUyNyA0LjAxLS43MTggNi4wNi0uMzM1IDQuNDUuODMyIDYuNCA0LjIyIDQuODkgOC41My0uNjgzIDEuOTYtMS44NyAzLjYxLTMuMiA1LjE4LTYuNzQgNy45My0xMy41IDE1LjktMjAuMiAyMy44LS41NTEuNjQ4LS41NjIgMS4xMS0uMTggMS44NCA0LjA0IDcuNjEgOC4wNCAxNS4yIDEyLjEgMjIuOS45NjEgMS44MiAxLjcgMy43MiAxLjcyIDUuODEuMDQ3IDQuNzYtMy40NCA4LjY2LTguMTcgOS4zNi0yLjY1LjM4Ny01LjExLS4xNzktNy42LS45NDUtNi4wNS0xLjg3LTEyLjEtMy43MS0xOC4yLTUuNTQtLjU2My0uMTY4LS43NzgtLjM5MS0uODc5LS45OTYtLjY5Ni00LjI3LTEuNDYtOC41My0yLjItMTIuOC0uMDE5LS4xMTcuMDE2LS4yNDIuMDM2LS41MDQgNi45MSAxLjkxIDEzLjggMy43OSAyMC45IDUuNzYiIHN0eWxlPSJmaWxsLXJ1bGU6ZXZlbm9kZDtmaWxsOiNlMjVhMWMiLz48cGF0aCBkPSJtMjcyIDE0NGMtNS40Ni0uMDA4LTEwLjktLjAzNS0xNi40LS4wMTEtLjcyMyAwLTEuMTMtLjIwNy0xLjUzLS44MjEtNi40Ni05Ljg0LTEzLTE5LjctMTkuNC0yOS41LS4yMDctLjMxMi0uNDI2LS42MTMtLjc5My0xLjE0LTEuMzkgMTAuNi0yLjc2IDIxLTQuMTMgMzEuNGgtMTQuM2MuMTY4LTEuMzkuMzE3LTIuNzQuNDkzLTQuMDggMS4zOS0xMC43IDIuOC0yMS4zIDQuMi0zMiAxLjM0LTEwLjIgMi42Ny0yMC40IDQuMDMtMzAuNi4wMzktLjMwMS4yNDItLjY4OC40ODgtLjg0OCA0LjkyLTMuMjEgOS44Ni02LjM5IDE0LjgtOS41Ny4wNzEtLjA0Ny4xNzItLjA1MS40MjYtLjEyNS0xLjQ5IDExLjQtMi45NyAyMi43LTQuNDYgMzQgLjA1OS4wMzkuMTE3LjA4Mi4xNzYuMTIxIDcuNzUtOC41OCAxNS41LTE3LjIgMjMuNC0yNS45LjIyNyAxLjMyLjQyNiAyLjQ1LjYyMSAzLjU4LjU1NSAzLjIzIDEuMDkgNi40OCAxLjY4IDkuNzEuMTIxLjY1Mi0uMDU1IDEuMDUtLjQ4OCAxLjUxLTUuMDEgNS4yNC0xMCAxMC41LTE1IDE1LjgtLjIxOS4yMzEtLjQyNi40NjktLjY3Ni43NDMuMTYuMjUzLjI5Ny41LjQ1Ny43MjYgOC42MSAxMi4xIDE3LjIgMjQuMiAyNS44IDM2LjMuMTU2LjIxOS4zODIuMzkxLjU3NC41ODZ2LjE5MSIgc3R5bGU9ImZpbGwtcnVsZTpldmVub2RkO2ZpbGw6IzNjM2EzZSIvPjxwYXRoIGQ9Im0xMDMgMTEyYy0uMjE5LTEuMTEtLjM3NS0yLjc1LS44NzEtNC4yOC0yLjQtNy4zOS05Ljk3LTExLjQtMTcuOC05LjYxLTguNjEgMi0xNC44IDguNzctMTUuNiAxNy42LS42NiA2LjUgMi44NCAxMi44IDkuMzQgMTUuMSA1LjI0IDEuODkgMTAuMyAxLjEgMTUtMS43MSA2LjIxLTMuNzIgOS41Ny05LjI1IDEwLTE3LjF6bS0zNy44IDI3LjVjLS40MjIgMy4xOC0uODI4IDYuMTctMS4yMiA5LjE3LS41MjMgMy45OC0xLjA1IDcuOTctMS41NSAxMi0uMDU4LjQ2NS0uMTk5LjY3Mi0uNjk5LjY2OC0zLjkzLS4wMTUtNy44Ni0uMDExLTExLjgtLjAxOS0uMDkgMC0uMTgtLjA0Ny0uMzkxLS4xMDkuMjM4LTEuODguNDY5LTMuNzcuNzE1LTUuNjUuODY3LTYuNiAxLjczLTEzLjIgMi42MS0xOS44IDEuMDEtNy41NiAxLjgtMTUuMSAzLjA5LTIyLjYgMi4yOC0xMy4zIDEzLjYtMjQuNyAyNi44LTI3LjYgNy42Ny0xLjY2IDE1LS44OTEgMjEuNyAzLjQzIDYuNjggNC4zIDEwLjUgMTAuNiAxMS40IDE4LjQgMS4yNCAxMS4xLTIuODUgMjAuMy0xMC43IDI4LTUuMTggNS4wMS0xMS40IDguMTktMTguNSA5LjI3LTcuMzcgMS4xMS0xNC4zLS4xMTctMjAuNS00LjQ2LS4yMjctLjE2LS40NzMtLjMtLjg2My0uNTQ2IiBzdHlsZT0iZmlsbC1ydWxlOmV2ZW5vZGQ7ZmlsbDojM2MzYTNlIi8+PHBhdGggZD0ibTU4LjYgNzYuNWMtNC40IDMuMjgtOC42NSA2LjQ0LTEyLjkgOS42MS0uNjg3LTEuMDgtMS4zLTIuMTYtMi4wMi0zLjE3LTEuODUtMi41OS00LjE1LTQuNTItNy40OS00Ljc1LTIuNzgtLjE5Ni01LjE2LjcxOC03LjA1IDIuNzctMS42OSAxLjgzLTEuOTEgNC40NC0uMzMyIDYuNTEgMS43NCAyLjI4IDMuNjQgNC40NCA1LjU5IDYuNTUgMy4yMyAzLjUgNi42IDYuODYgOS44IDEwLjQgMi45MSAzLjIgNS4yNCA2Ljc4IDUuOTYgMTEuMi44NTYgNS4yLS4xODMgMTAuMS0yLjY0IDE0LjctNC41NSA4LjQ1LTExLjcgMTMuNC0yMS4yIDE0LjktNC4xOC42NzUtOC4zNC41NDMtMTIuNC0uNjU3LTUuNDEtMS41OS05LjE4LTUuMTQtMTEuNi0xMC4xLS44NTUtMS43Ny0xLjUxLTMuNjQtMi4yOC01LjU0IDQuNzMtMi41MyA5LjM0LTUgMTQtNy40OS4xNi4zODcuMjc3LjcxMS40MjYgMS4wMi43OTcgMS41OSAxLjQ1IDMuMjggMi40MyA0Ljc1IDIuOTMgNC4zNSA3LjY1IDUuNjcgMTIuNCAzLjUyIDEuMjMtLjU1NSAyLjQyLTEuMzMgMy40My0yLjIzIDMuMDgtMi43NCAzLjY2LTYuNTYgMS4zOC0xMC0xLjMxLTEuOTgtMi45NS0zLjc2LTQuNTUtNS41My0zLjgyLTQuMjQtNy44LTguMzUtMTEuNS0xMi43LTIuNTctMi45OC00LjMyLTYuNDQtNC44OC0xMC40LS42MDUtNC4zNi4yNjYtOC40NiAyLjUzLTEyLjEgNS42My05LjExIDEzLjgtMTMuOCAyNC42LTEzLjUgNi4xNy4yMjMgMTEuMSAzLjExIDE0LjkgNy45MSAxLjEzIDEuNDIgMi4xOSAyLjg5IDMuMzQgNC40MyIgc3R5bGU9ImZpbGwtcnVsZTpldmVub2RkO2ZpbGw6IzNjM2EzZSIvPjxwYXRoIGQ9Im0xNjMgMTI1Yy0uNzE5IDUuNDktMS40IDEwLjctMi4xIDE1LjktLjAzOS4yNjYtLjI0Ni42MjUtLjQ2OS43MjctMTAuNyA0Ljk0LTI0LjcgNC4yNS0zMy40LTUuNjktNC43LTUuMzQtNi42Ny0xMS43LTYuMzgtMTguNy42ODMtMTYuMyAxNC4yLTMwLjYgMzAuNC0zMi42IDkuNDUtMS4xNiAxNy43IDEuMzkgMjQuMSA4Ljc0IDQuMzYgNSA2LjM4IDExIDYuMDggMTcuNi0uMTk1IDQuMzYtLjg3OSA4LjY5LTEuNDIgMTMtLjc3IDYuMTQtMS42MSAxMi4zLTIuNDIgMTguNC0uMDMxLjIxNC0uMDc0LjQzMy0uMTI1LjcxMWgtMTIuN2MuMTY4LTEuNDEuMzI0LTIuNzkuNTA0LTQuMTcuOTIyLTcuMDkgMS45NC0xNC4yIDIuNzUtMjEuMy41MDQtNC40Mi4xODctOC44MS0xLjg0LTEyLjktMi4xNS00LjM1LTUuNzUtNi42Ni0xMC41LTcuMTYtOS44Mi0xLjA0LTE5LjIgNS43OC0yMS4yIDE1LjQtMS4zOCA2LjM4Ljc5NyAxMi41IDUuODggMTUuOSA0Ljk1IDMuMjkgMTAuMiAzLjMgMTUuNiAxLjE3IDIuNzQtMS4wOCA1LjA2LTIuOCA3LjI4LTUuMTEiIHN0eWxlPSJmaWxsLXJ1bGU6ZXZlbm9kZDtmaWxsOiMzYzNhM2UiLz48cGF0aCBkPSJtMjE3IDg2LjNjLS41ODIgNC40Mi0xLjE2IDguNzctMS43NCAxMy4yLTIuNyAwLTUuMzQtLjAxNS03Ljk4LjAwNC0yLjE0LjAxNi00LjA5IDEuNC00Ljc0IDMuNC0uMjUuNzgxLS4zNDMgMS42Mi0uNDUzIDIuNDQtMS4zNCAxMC4yLTIuNjcgMjAuMy00IDMwLjQtLjMzNiAyLjU2LS42NiA1LjEyLS45OTYgNy43MmgtMTMuM2MuMjQ2LTEuOTUuNDgtMy44NC43MjYtNS43My44NjMtNi41OCAxLjczLTEzLjIgMi42LTE5LjcuNzU0LTUuNjkgMS40My0xMS40IDIuMzItMTcuMSAxLjE5LTcuNiA4Ljc1LTE0LjQgMTYuNC0xNC43IDMuNjYtLjE2IDcuMzMtLjAyNyAxMS4xLS4wMjciIHN0eWxlPSJmaWxsLXJ1bGU6ZXZlbm9kZDtmaWxsOiMzYzNhM2UiLz48cGF0aCBkPSJtMjg4IDE0NHYtNS42aC0uMDMxbC0yLjIgNS42aC0uNjk5bC0yLjItNS42aC0uMDM1djUuNmgtMS4xdi02LjcxaDEuNzFsMiA1LjEgMS45Ny01LjFoMS43djYuNzF6bS05Ljc0LTUuODF2NS44MWgtMS4xdi01LjgxaC0yLjF2LS44OTloNS4zMXYuODk5aC0yLjEiIHN0eWxlPSJmaWxsOiMzYzNhM2UiLz48cGF0aCBkPSJtNzYuMyA2Ny4xaDMuMjlsLS43NzgtNC45OHptMy44MSAzLjIyaC01LjQ3bC0xLjc0IDMuNDFoLTMuODhsOC41NS0xNmgzLjc0bDIuOTEgMTZoLTMuNTlsLS41MTYtMy40MSIgc3R5bGU9ImZpbGw6IzNjM2EzZSIvPjxwYXRoIGQ9Im05OS43IDYxaC0xLjk1bC0uNjU2IDMuNjloMS45NWMxLjE4IDAgMi4xMS0uNzczIDIuMTEtMi4yMyAwLS45NjUtLjU4Ni0xLjQ2LTEuNDYtMS40NnptLTQuNzItMy4yMmg1LjEyYzIuNjggMCA0LjU1IDEuNiA0LjU1IDQuMzQgMCAzLjQ2LTIuNDQgNS43OC01LjkyIDUuNzhoLTIuMjFsLTEuMDQgNS44NWgtMy4zNGwyLjgyLTE2IiBzdHlsZT0iZmlsbDojM2MzYTNlIi8+PHBhdGggZD0ibTExNiA2Ny4xaDMuMjlsLS43NzctNC45OHptMy44IDMuMjJoLTUuNDdsLTEuNzQgMy40MWgtMy44OGw4LjU1LTE2aDMuNzRsMi45MSAxNmgtMy41OWwtLjUxNi0zLjQxIiBzdHlsZT0iZmlsbDojM2MzYTNlIi8+PHBhdGggZD0ibTE0MSA3My4yYy0xLjEzLjUxNi0yLjM3LjgyNC0zLjYyLjgyNC00LjIzIDAtNi44OC0zLjE3LTYuODgtNy4xNCAwLTUuMDggNC4yNy05LjM1IDkuMzUtOS4zNSAxLjI3IDAgMi40Mi4zMDUgMy4zNi44MmwtLjQ2OSAzLjgzYy0uNzAzLS43NzctMS44NC0xLjMyLTMuMjQtMS4zMi0yLjkxIDAtNS41IDIuNjMtNS41IDUuNjggMCAyLjMyIDEuNDYgNC4xNCAzLjc2IDQuMTQgMS40MSAwIDIuNzctLjU0MyAzLjY5LTEuMjlsLS40NDUgMy44IiBzdHlsZT0iZmlsbDojM2MzYTNlIi8+PHBhdGggZD0ibTE2MiA2Ny4zaC02Ljk1bC0xLjEzIDYuNDNoLTMuMzNsMi44Mi0xNmgzLjM0bC0xLjEyIDYuMzJoNi45NWwxLjEzLTYuMzJoMy4zNGwtMi44MiAxNmgtMy4zNGwxLjEyLTYuNDMiIHN0eWxlPSJmaWxsOiMzYzNhM2UiLz48cGF0aCBkPSJtMTc0IDczLjcgMi44Mi0xNmg4Ljg2bC0uNTYzIDMuMjJoLTUuNTJsLS41NjMgMy4xaDUuMDdsLS41NjMgMy4yMmgtNS4wN2wtLjU2MyAzLjIyaDUuNTJsLS41NjMgMy4yMmgtOC44NiIgc3R5bGU9ImZpbGw6IzNjM2EzZSIvPjwvZz48L3N2Zz4=;" vertex="1" parent="1">
          <mxGeometry x="222" y="410" width="62.43" height="32.5" as="geometry" />
        </mxCell>
        <mxCell id="TqXny-_5BSrygHNTVk7L-180" value="" style="points=[[0,0,0],[0.25,0,0],[0.5,0,0],[0.75,0,0],[1,0,0],[1,0.25,0],[1,0.5,0],[1,0.75,0],[1,1,0],[0.75,1,0],[0.5,1,0],[0.25,1,0],[0,1,0],[0,0.75,0],[0,0.5,0],[0,0.25,0]];rounded=1;absoluteArcSize=1;arcSize=2;html=1;gradientColor=none;shadow=0;dashed=1;fontSize=12;fontColor=#9E9E9E;align=left;verticalAlign=top;spacing=10;spacingTop=-4;fillColor=#F1F8E9;strokeColor=#82B366;" vertex="1" parent="1">
          <mxGeometry x="662" y="313" width="140" height="90" as="geometry" />
        </mxCell>
        <mxCell id="TqXny-_5BSrygHNTVk7L-183" value="" style="endArrow=classic;html=1;fillColor=#f5f5f5;strokeColor=#666666;" edge="1" parent="1">
          <mxGeometry width="50" height="50" relative="1" as="geometry">
            <mxPoint x="376" y="259" as="sourcePoint" />
            <mxPoint x="472" y="339" as="targetPoint" />
          </mxGeometry>
        </mxCell>
        <mxCell id="TqXny-_5BSrygHNTVk7L-184" value="" style="endArrow=classic;html=1;fillColor=#f5f5f5;strokeColor=#666666;exitX=1;exitY=0.5;exitDx=0;exitDy=0;" edge="1" parent="1" source="TqXny-_5BSrygHNTVk7L-168">
          <mxGeometry width="50" height="50" relative="1" as="geometry">
            <mxPoint x="386" y="269" as="sourcePoint" />
            <mxPoint x="472" y="339" as="targetPoint" />
          </mxGeometry>
        </mxCell>
        <mxCell id="TqXny-_5BSrygHNTVk7L-185" value="" style="endArrow=classic;html=1;fillColor=#f5f5f5;strokeColor=#666666;exitX=1;exitY=0.5;exitDx=0;exitDy=0;" edge="1" parent="1">
          <mxGeometry width="50" height="50" relative="1" as="geometry">
            <mxPoint x="376" y="337.5" as="sourcePoint" />
            <mxPoint x="472" y="338" as="targetPoint" />
          </mxGeometry>
        </mxCell>
        <mxCell id="TqXny-_5BSrygHNTVk7L-186" value="" style="endArrow=classic;html=1;fillColor=#f5f5f5;strokeColor=#666666;exitX=1;exitY=0.25;exitDx=0;exitDy=0;" edge="1" parent="1">
          <mxGeometry width="50" height="50" relative="1" as="geometry">
            <mxPoint x="377" y="389.75" as="sourcePoint" />
            <mxPoint x="472" y="390" as="targetPoint" />
          </mxGeometry>
        </mxCell>
        <mxCell id="TqXny-_5BSrygHNTVk7L-187" value="" style="endArrow=classic;html=1;fillColor=#f5f5f5;strokeColor=#666666;exitX=1;exitY=0.5;exitDx=0;exitDy=0;" edge="1" parent="1" source="TqXny-_5BSrygHNTVk7L-171">
          <mxGeometry width="50" height="50" relative="1" as="geometry">
            <mxPoint x="387" y="393.75" as="sourcePoint" />
            <mxPoint x="472" y="389" as="targetPoint" />
          </mxGeometry>
        </mxCell>
        <mxCell id="TqXny-_5BSrygHNTVk7L-188" value="" style="endArrow=classic;html=1;fillColor=#f5f5f5;strokeColor=#666666;exitX=1;exitY=0.5;exitDx=0;exitDy=0;" edge="1" parent="1" source="TqXny-_5BSrygHNTVk7L-172">
          <mxGeometry width="50" height="50" relative="1" as="geometry">
            <mxPoint x="397" y="403.75" as="sourcePoint" />
            <mxPoint x="472" y="389" as="targetPoint" />
          </mxGeometry>
        </mxCell>
        <mxCell id="TqXny-_5BSrygHNTVk7L-189" value="" style="endArrow=classic;html=1;fillColor=#f5f5f5;strokeColor=#666666;exitX=1;exitY=0.5;exitDx=0;exitDy=0;entryX=0;entryY=0.5;entryDx=0;entryDy=0;entryPerimeter=0;" edge="1" parent="1" source="2" target="TqXny-_5BSrygHNTVk7L-180">
          <mxGeometry width="50" height="50" relative="1" as="geometry">
            <mxPoint x="386" y="347.5" as="sourcePoint" />
            <mxPoint x="482" y="348" as="targetPoint" />
          </mxGeometry>
        </mxCell>
        <mxCell id="TqXny-_5BSrygHNTVk7L-190" value="" style="shape=image;verticalLabelPosition=bottom;labelBackgroundColor=#ffffff;verticalAlign=top;aspect=fixed;imageAspect=0;image=data:image/png,iVBORw0KGgoAAAANSUhEUgAAASwAAAEsCAYAAAB5fY51AAAgAElEQVR4Xu1dTXZbR64GSLUt+dgis4LIg5dQo8grML0C07MmJ5ZXYHkFplcQeQWWJ2RmpldgeQVRRmLSg6hXENLpIyrdEvEO+BPrhxTvrZ97C3Xhc/p0v6equlUfUB9RKACFoP8UgRwR+POftfpFCX9EoN7m6dlb7J0McpyOfjpwBDDw+en0IkZg2Kq9BsD2fIlEdFICaG92++8jXrYuzQIBJSwL8LSrGQL/af3fzjmsvUOAnUUjENHhXYIXGz/1T8y+oL1iRUAJK1bJBrquL63aLgG+WzU9AhggjNuVzq9vV7XVvxcHASWs4sg695UOW7V3ALibZiJE0KuMRi/Ut5UGtXjbKmHFK9tgVkaNrerw3sanZUfAVRNl39YaXjy73/nX0aq2+ve4EVDCilu+ua9u5q9isqraTIaPiCWgV5ud/oHNONpXNgJKWLLlF/TsXZHV1UVSu9Lpvwl64To5bwgoYXmDttgDs3N9DBxfZWdZLUaRDiqd/otiI1zM1SthFVPuXled9CbQbhJKWnb4yeythCVTbsHO2s8xcNlylbSCVQRPE1PC8gRsEYfNlqzmCCtpFUnXlLCKJG2Pa82HrJS0PIo0yKGVsIIUi6xJ2cZZuVgtAr3QkAcXSIY9hhJW2PIRMbtBa/tn06BQlwtEuni22f2t53JMHSssBJSwwpKHuNkMm9v7gPAyhIlzcOkanD/RiPgQpOFnDkpYfnAtxKhfmt81CMsfQlosARxVTkdPNPcwJKm4m4sSljssCzXS6J+1rb9KyEdBq5QbL6ARvK10j/e8jK2D5oqAElau8Mv9+KBZ+4SI9VBXUBrTkwc/9Q9DnZ/OywwBJSwz3Arda9jc3gOEH0MGgSs8VEZnj/RoGLKU0s9NCSs9ZoXuEfRR8Lpk9GgYna4qYUUnUr8LGjS3PyBCw+9X3I1ehvNHemvoDs+8R1LCylsCgr7PL9yMS/hJ0JSB68NXu/0nkuasc12OgBKWakdiBAbN2u+IuJW4QyAN1QEfiCAcTEMJywGIRRgim5IxfpDk2Kxq5/iRn9F11CwRUMLKEm3B35JqXc0hVytLsPJdmroSVhxy9LoKydbVHBj1ZXlVkcwGV8LKDGq5H5JuXc2RvzOmh/o4q1w95JkrYcmWn/fZS7wZXAqKxmV51xffH1DC8o2w8PGHrW0u1/JU+DIm0+dqDtXO8TcxrKWoa1DCKqrkE6ybC/N9ubfxR4KmYppozSwxolo4USUs2fLzOnsJOYOpASB6X+n2d1P30w5BIKCEFYQYwpzEoFk7RMTHYc7OblZ8a4gIJwBwUiI4vD86+0VaojTX0ScqVxiJMcLSyhlluPgYS3qSEpad3kfbO8bj4CphsY8LCA4R6SgkEmNZ/Hnv7mOiUp2AdgBgK03GQUwhHUpYq7S4oH+P6nbQQoYcJY8TEhsfPjj963NWVhhbTxe09pwQ6i7q5cfySIcSloUyx9r1z2bt8QVAO+QCfXlhPyEwGB+UYfzZ9TFrQlJQfkmADdeVXLk+WLXbf5gXbq6+q4TlCknh43xp1ia/5j42i3Bolk6fSQABe2U8f29DXoz9GGDX9w9EDDekSlix7qYE6/rS+v4pE5SSVAKwVjQxIa8ZUbElm0kFjBh8WUpY9roqagSfxw5RQHic7IS8kPbvjPHjolQg9g9eILzLiqguL1V6epISlkfFDWXoyS3TxvrTMeKeCwduKOuSMA8i6JVwfLDZ+fXj5IXsjY13uVZsFZ6epIQlQesN58j11/9bgtd65DME0GE3troAseramZ52itKd70pYaSUuoP00JAGeA6BGdAuQV9ZTlOx8V8LKWls8fm/mG3nt+7bJ4xJ06CwQEHwsVMLKQkE8f0OJyjPAkQ0v+ViohCVYGZWoBAsv56lLvS1UwspZcUw+P3emq4/KBD3twwhITdUpPGFxGgoL8HK2O9HyzPfL6o4Ih/P/m5Nl+X8/6PY/+9wSw9b3LwlK7bxvm3yuUcfOAAGhfqzCEBYT0xhpB6i0Ncl4R9zxuenn5Us4cbaEF7/YpG6w+nLA5zmVf1SHegabuQCfIKLP1W5/aUmaUCGIkrCulONwlO1uK8Bp6RI6YquMrbGklti0zMv6SwBs285B+ysClxGodI7F7X9xE16mcrOUk0lunIRobiYwBOrxfzgKetG68kzh0K0dPwKbp6NvsiqX4wpN0YT1d80goEYeeVmuhHCdvIJI4XC1OB0nWAQkPi4rjrCmN2T0lAj3JJPUMi2eHB2n769Vg9V0nVgUCChheRSjppt4BFeHLigC9KbS6YvyjYqwsIbN2gEgPi+oVumyFQFPCChheQE25tdbvACmgyoCiRBQwkoEU9pGSlhpEdP2ikASBJSwkqCUuo0SVmrItIMikAABJawEIKVvMmht/6G3Zulx0x6KwK0IELyqdI/3JaEkw+ne2iZJoOpcFQEJCGhYgycpDZWwPCGrwxYZASUsT9JXwvIErA5baAQ0l9CT+JWwPAGrwxYWAQL4d7VznMl7iC5BVh+WSzR1rFwQIKJfYJbSlHACO4hYSdg21mYfK53jhrTFKWFJk1iB5ss1m3i580KJpfG0SOIawMmiB0pNoOHc1HOAiaUxLkEdCKuzemlbCPCtyZgy+sgLaZjoggRw9UgoQUrmc2RiQoATADwqER25JCTzWU17ckWQMeEWQbnORIaIkwq10v/xQxSV0dkjLS/jQZKDZu0IEX/wMLQOmTEC7DtBokMmpzKeH9pWYs14+pPPTRLxEXcAaIcQ61ItMQI4qpyOnkgiLREWlka657Et3XyTiIYI0ONj3T/GcOjqKOdmdm5GmRWPbBAB12UT9cMqjbSUsNzorI5yCYGpFQW9Mp4fSLSgbIQ5Lc+93uDKtwDw1GasrPpKIi0RhKXlZbJSXfPvFJmklqE2J68xARebDNrykkJaMgirVWsD4Gvz7aQ9vSFA9L5EcPDgp/7fT555+5bggSeVchH3CIHfHAjy9pFfeqp2+09ChlkJK2TpBDo3tqZKQO0Hp2c9SQ7bUOD80qrtjgl2w7xxpINKp/8iFKyuz0MEYX1pftcgLH8IFcSizIvDD8oEbbWm3Eh8WvYb98LzdYUboyWCsGaC/eRGTXQUAwQ+lsa0r0RlgFyCLtPjIrRDKgMe6lP2Ighr+pjoxh8JZK9NHCKgFpVDMBMMNX0RCrk+Ve63i/x60xqcPwntllcEYbGsNdo9gcY7asI+qvKYdtWicgRoymFmD+ju532zGGI0vBjC0uDRlFpv0Hwa5IltaVUoDZYqosvMOc/ElVuidmg3h2IIa9ja7oVgKovQdJNJEr3fHJ3t6a2fCXj++kzdIet7NI3lyom4wnHCCyIsjcXysS30+OcDVfdj5u2YR7p4ttn9jY2GXP+JISy9KfSgJ2pVeQDV75Az/1Y76xgudsJXTkcP87bAxRCW3hS62wjsqyrBeDeEX0x3qyrWSMMcsj9C8GeJISxWx0Fr+yTUtAYp24Wrc94laMRYNUGKDFzNc2JtlfAg0z2R89NgoghLk6AtVZ3ofaXb37UcRbsHhMDs5HGQ1YUUHw3vjulRXj94ogiLr3kJ8F1A+iJmKqFGLosBMPCJDpvbe4DwYxbT5MoO1c7xoyy+df0boghrFgn8ex5ASf0m+6vKBA0NApUqweTz5kKC57DWy+aImE+ogyjCUj9WcuXllkxWa3hRDy29It0qtHUaBLI6IuZ1NBRHWOrHSqa+6lxPhlOsrbI4IuZxayiOsLTUzOotxmRVGZ3V846ZWT1TbeETgSyOiFkHlIojLI3Hul3Flax8UoC8sXm/DDfWD30lUmedIC2OsFhlNK9w8cZhn1VldLallpU8YvE54xlp9fxFx2fngBdJWBrecFO91cHuc8vHMbZP/++dMT3MIjZLJGHpsfDqBlKyioNQsliFN9LKKChZJGHpsfCqapfh/JGGLmSx3eP4hi/SysLKEktYeiycbh6NYI+DRLJehQ/SIoJetXv8zOdaxBIWgzJo1gb5FTXzKZakY2fn7Ew6I20nBwEfpFUa0xOfWRWiCWvY3N4HhJdyVMTdTPmBiGq3X3c3oo5URARck5bvYFLRhFXU3EINXygitfhbs2vS8ulTFU1Ys2MhB8U99ifO8Eb2bXaHt2KdkU8EnAeXerwxFE9YhSudnHMBNZ8bR8fODwHXpLV5OvrGRwCzeMKaWFnFqUT6sdI5buSn1vrlmBGYkNa9jSM35Wn8XAhFQVhFCHFQv1XMVBHO2iYJ01RmN4vVk2JcfqbaOf7G9cqiIKxCWFl6FHSt+zreEgRcGQA+YgSjISxXIIeoxRrCEKJU4p6Ti1d5fJRSjoawYrayskh5iHv76epMEHBRFcX1jXZUhBXnjaEf56WJAmufYiEwuzk8sfJnOQ5xiIqwYovL4mfkq53jrWJtE7+r5WDjc4Rvl33lQbf/2e8MZI3uwghweUKIjrBiin53bU7L2ipms50T0hiB05a2iIAJfwsRUxM/V9MEAP4PIMIhEvBDvidFIzXrFDiHF0bRERYrlwuHodl2cddLHe3JsORr+AsoPSYq1QFox4SYkn3paqs5mTGRlQgOYyYx26BSl873KAnLbQCciTrb91HrajmGX1rfPyXABv8HAar2aLsZgRN/mcDKcPExtvpk0x+GtZ9NkXIV+R4lYTGoLs7epsKx7afW1U0EvzRrz8eADUCoh0RSy2TNFtjkGAnU2+z8+tFWJ0Lob/N0mKuYrGgJa3I0FFp+xqWTMgRFN53DtBT2+ksi2M3qqGc619v6cdQ3E1cZLt5Kt7wGzZppsQEnaWVRExYr0aBZO/L1xJEP5QbH18Be5uh50OnFCbwGwF3Pn8p8eD42lgAONrv995l/3MEHWTZ/IfCeSp264+JYGD1hSYuAL7J1FTNRXeeKmdW1v3l69tZHVQMH3LR0CNNLLRfHwugJy0W0rk/hXxm7oNbV5Oi3sfEaEPYywzqQD0klLsMKKdbHwqgJS9pzYEW0roat718SlNoSHOk+OU4acZlcarmo4BA1YUk6DhbtZnDmC3mHiFqX/hITTolr3K50fn3rkyBdjG3igEe6eLbZ/a1n+v2oCUvScdDF+d5UCbLup1bVasQ5LKJM8MLnCzSrZ3F7C6OsEku3R7SEJek4WJScwVnE9Ae1qpJTBb/1d5foVRbPwCef1deWaUOHbKPeoyWsL83vGoTlDyZCyL5P/BUZJpUsYe1T0X1VJrrFx8QSXbywOUqZfDdJH5OKDjbhDdESluuni5IIz7RN7M52Sb5EUxlm0Y+trcpo9CK0MIi08rXxY0VLWINm7XcR0dGWZ/osNorNN4at2rsYA0BtMLHpG6pvK1WYA8HbSvfYKIQlSsKyTdS0Uai0fWNOclaySqsNadpTu9Lpv0nTw2fbNFaWzY14lIRlk6TpU6jXx47V2T7LAfxRLSvf2kQHm6dnr0I5IqaxsiqdYyPuMerkWwy245vEh9h+06i/hWls9L0MOs1K+7BzfSeDzxX+E3zrdndMz0K4RUxjZZn6baMkrGFrmyRochnOH0nP3r+O86C5/QER9LHXDBWQbxHX4PxJCLqU1MoydbxHR1gmKQMZ6tbfn+KHUavdfjDF51xgoD4rFyiajRFK6ENyd4xZKE90hGWaSW6mJha9IrsdVLKy0AWHXfPOmEgRl2WUCB0dYUnxX5maxA5129lQaXwXzj6qAy1FIG/SShL9bnpTGB1hSfBfxXQclBRCUiSOy5O0kuYYmtwURkVYUvxXsVQVnZn/P4sI0C0SW83WmidpJTnpmKToREVYUvxXsRwHQ70R5Pg24Ecg+E1BnL4ruPAfYZWAOPyiKqqMdgryzSswOYmbwGRukRHWNtfZeZpCnrk0NfllyWWit3w0+W2Q/5mzP2TyPuAYDu+fnR2ZBlLyUeZ/ON4hLO0QQSMGEssz5GHQrA1uq/1eeMKSkD9IRL9Uu33RQZWT4nsl/Dnnygsf+SWaB6dnPVOCWkWlfOT98956gwjqBBMCS/3wwqpvZPH3vEhrtfM9fWhDNBaWnPpX6YWUhVKn+cagWfuUR00rvqxAhP07YzjII7J74iNFfsCV+NkxUeTFEfGV09ETX+S+SH9WX8ik3wvREJYUh7uJGZyGTHy3zaPO2JyoNk/P9rPccEtdX9NHM3YJYQ8BvvWNuavxuTxNtXv8zNV4Sca5PfK9wIQlxeFucpWbRDGyaDPLE/w926MgvQmFqBZhzM7lMSA/oiGDuAheVbrH+1noC3/jtn1pEosVjYUloWCfdP9Vlj8KrMxreLEXQn5cks3NFv4Fwr4ER32WVv5tx8JCE1aSuI8kiue1jeDqDNlaV+mPCl7llmJwvj0loHbIPi52wldORw+zOl4vOxYWm7Ba239ke1RJocWzpnkG8qWf7dUeq298bL8AwL6qMkEj5Jdikqxy9oTZASI+TtI+jzZZ+rOW6U5hCUvKDaHUcjJZ4MvH5crorJ7Vr34WJBG6tZVVAPOyY2FhCUvKDaFUh7tv3xUrbmV01oiJrOaEGLK1leXRcFEQKdenr3b7D9P8eEThdA8p6nrpVTjR52q3L/KV44Hf47ZRmZE0Sh5C21AvhbI6Gi5bf9of8TgIq1VrA+DrEBRz6RyE1r9KkhNminuMx8DbsPBtqZrKIYuj4TI9KihhScghlHnzNWhtcwqO81SiopHVnEx8/gCYEpbJ0Sztt5b5QQtJWBJCGrKMfUmrTMvaJ61rlPZ7fBu4hhd1KTFWade3qj1nC4yhxLeI4aT3ZBBQOmjWji7HqRXO6T57TuolAXKKRND10SXeEPqwBopOVnMy45uzcyofhkJaWTjgL6d1sR6UYLy72f2NK6wk/ifWh/WlWXs+BuAAva3Eq82xYVrTN8ep/v3pYcvDUTuDX/IQsEsyhzzyMm+fl3+3BVvt5wBbawAnJgns4ghrlgLxTgpRsYJILInsI/ZKempSEhJK2ya0G27T9wLTrtu0vRjCmpbj3Xgn8c07k7O6qUBd9fPx6y/xWOwKz1tvD5u1A0B8nsW3Vn4j8NtsEYQ1cVJi+V3ofqplyiCRsNzHDfk/bqzcjAE3uO6QzmuqWfiybNYWNGFJtqquCEVg0rPLYFGusV7tHIvwNdpsJpu+Kd7zs/lMwr7h/rgES1jSraqrmhGuAizS4NWVIhPq/ayZ5KTvdCu1ax1KihlbWdXO8Td2q/HTO0jCGrZqrwGw7WfJeYwqi7BcRmSrdZVO39wfxdN9f9461B+ZoAgrmiPgNR0JVfjLVNltKRlZZG22vd31CuVomEX0uwlqwRDWLJDug6RwhaSAS4tyd5k5EMOTZknl7KpdKKEOId7qBkFYE7KCtU9SbwFXKao4wnKVPxj4FfkqueX59yBuDQO8LMqdsOJyri9WcWmENWxtk4vNGuIvtIt1ZTFGCA74EJ3vuRKWj1y1LJQp7TckEZarhGd1tqfVkpvtQ3DAZ1F6Jg1SuRFWUciKhSGJsJz9sutxMM0+XNjWmSxsZhKYHHMhrCKRlTTCcuXwlXYzarOnffa9/SFSn1/+OnZIifuZE1bRyEocYTmq3hp6Em02W93+KyHsl5BOCJkSVhAmrr0OpR4hJIGvmrwLv4n6r1ahnPzvQcRlBXRbmBlhxR66cJsKSiIsJzFYgfk9ktNDmC1d/IjYrIwAjqqd40c2Y7jqmwlhzX4lfo4xKDSJIApHWKDR7Un0ImkbVze3Sb+3qF0oR/xMCMvXQwY2Asi2r5wN7MLCkkTQ2eqB+dfyDiQN5RLFO2ENW7V3ALhrLqoYehaLsDRg1L3Ous3vNJhfIMd8r4QVwg2HgWicd5FUwM9FHfeQrsGdCzOnAX1UgE2zlFD8WN4Iq8hO9uuKIIuw7B+lVcJKQwXJ2vqosZ/sy19bhZDI7o2w1G/1VdAh5mQtU1YXtbCUsNJSQbL2efuxQvBNeiEsF0qfTIRyWknZxC4i3aWsVY72TGead3gDBPBEm3PCcl1eV5pSLZtvKNfCq/B0EdyrhLUKZbO/5+4TDiCA1Dlh6VFwsTKGYE4n2SYuYn6UsJIgnb6NC9mk/+ol1wbR52q3X7cZw7avU8LSo+BycYQSx5JEYWzrYUmxJpNgEVobW9nYrCeEssnOCCtv9rcRRCZ9A4ljSbJWW+euFGsyCRahtcm7ekPe1rMzwho0a58QMVdzMTTlujyfUOJYkmBk69yVZE0mwSOkNi4yEWzWk7f17ISw8g5qsxFAln1DiGNJsl5r564gazIJHiG1yZuw8raenRDWoFn7vaiJzWmUOW9hJ52r7fE+BF9H0rVKa5e3nzhvHbYmLOtfY2kaYzVfQTmFre0TBPjWdLl5Hx1M5x16v7wJK+/jvhVhTcrG3Nv4PdbnuVwrr6gUneb2PiC8NMUgb8U2nXfo/fImLMi5dJAVYeUPXujqdXV+klJ0rAOA1Y/lRTnz33P5nhKsCGvQ2v5Drat0eimp9IrtFboeC9PpRpLWSlhJUFrQRn1XhsAFkI+VdObWNZgCSOVIulYp7ZSwDCWlN4NmwEmKx7K+LQQYVE5HD7F3MjBDS3tdRyDvsAaRPiyNu7LbSFLisXiVtkGkeSu4naTC662EZSATjWo3AO1SF0k3aLbVGzgmqzI6e6RWlp3OzHsrYaXE0faYkPJzUTYnosNqt/9EyuKsN4n6spyJOv+LLmG3hNaOWGeikz2QpBs0WyuLJZV3hLRsbfk6+zyrNUxnIYyw1NnuSPUF3Ra68GXp0dBeb6xj4+ynIIuw9DjoROLT36mAXtNNsiqW/V8IR4hYSdJ+cRs6qHT6L8z7F7unC0vXHkFhFpbGX9mLfD6CtGOSi3rvoP4sYwXKPwYLIO8LI6NIdyeKayy2iDoKTF+xdsBD/kovVYNcvBlpu/a8f2SNCMuFT8MWuFj6S4rJYszdHA2VtEz0NwT/sVjCUtIyUblFffL1CZiswpVbIO/jhcna8+oTwkOqvPa8b7eNLay54OwjofNSgTC+yxUcJKavuCItINivdI9fhSGNcGcRSnYJXxbdHdOzjZ/6J3mgZU1Yamk5EJuwEAfXP1YcSFsZnT3TaPjluhRS/CP/yK7B+ZP7nX8dOdD+VEM4ISwlrVSY32gsuaSwKwubN0GJLl5sdn/r2aEZZ+/Q3vvMi7ScEdaEtFq1NgC+jlNlPK9KqJXFqNg+C3YZWba27hK8yOvI4VnKRsOHGv+YB2k5JSyWhjPfhpFo5XaS6stixCelsjfWDxHxB3cSoIM7Y3iTBXFNCAHxJSBVkeBws9t/724d9iOFvKeyJi3nhDUhreZ3jTGUDuyiou0FLW4EwUGVk1usjfV9QHzuEnci6JWAej5IZJrqUn4JgLtX5xxWRH4I8Ve3yTTLH1svhMWLY2U4h7WezcsrLhVfylh5Xxvb4uQrqJg3BQL1SgQH90dnv5g66Nma+h/C4zHiHgLsLFtvKKWsQwlnWKUXWaWaeSMsf0eFVdDJ/ru00jOL0M7CwuYNgkBHAHRUIjxaI/j39eMjk9M5wrcEsEWAO4RQv42kLq8l7wDJ+VxCPg7ekH0GJwSvhDVfUEhXshLoDOnimfTbsomFTWV2Czj0a2UnvVAs3dBuB1dJwLfuZkJY6tdaJeZrHhSik2q3/zBdr/BaT/1aG22b9w3zWFUoEfih3g7m6c/KjLB4kbM8NP7VfZyHIsr6pryUnWX4zqyt/dDlTkTDEox3Q7FuXcW4Za73Ho+GmRLW30dEjddKpEOhOH4TTTZBo4lvC8v7gV7EfNw8He2aOvMTLD9VE+mvqvvyAeZCWCw5Kb+6qbTMcWN2LFdOR09C2USulscBxgS4GwJxEcC/y2PaffBT/9DV+lyM4+u21cXckozh6/IoN8K65JDfI6C2xmwtU4OwYoKSKGvSNpOEXig1XMduJfk+E1UJqL3Z6R8kaZ91mxBKydiu2YcvMHfCmvu2/lvCfQB4agtSjP1937zkjdnMOb9LQLvebxWJ3nMsV2gW1WUZxJLi5iNHNgjCmguLa1ZfILC1pU75SxrMQZN3x/QoizSVvMlrEthZgjoR1AmR46a+tZkTW1JIdIgw7j0Y/fcw9OO1dN/VdVm5trKCIqz5YjlYbgzYtlVWG0UPra8vn0Bo67w+H97A/1lf3xkj7nCuHxBWCWhhhDoiDjiQFAgHJaKj+2dnR6ET1PX1xmJdzdflWm+DJCwlrqX+rDeVTr8dOsno/MwQmIT9lPBnBKiajRBmL5c3hkETlhLXTQV0bWKHqeLFnJXYuKtV4nL42IoIwvqbuPhWCcucWV9Y53zW5TxW6aL+3Q0CYbw56GYtN471DsuAiyKsORCz+kUcDsG3ShYPe/oRkO9Rsyzn4XstOv6snti9jU9JE7MlYubqZCCSsC4LbB7LQwCNIpFXrEGlEjej7ZwLUhzgY6Vz3LDFSjxhFZm8lLRs1T///jEfBa+j6+INzqgI6zJAk2qStFYnIGb1nVitL9fXxvlv4eLMYFZa+mdE3CrCql0EQEdLWNcVgAlsDOWdSTE3gjogbsUT5xVv+k7MG3nQrH1CxHrMa7yyNgdVHApDWMuUYtCs8eMJ4iPr9W0/Wdt+2Kq9u1lLXtYa0s7WRRnlwhOWxCJpyxRFfVppt1A+7UWVPXYMka0fq/CExfKIKR1CScvxDnM8XJGc7Iugs416V8Kav6t3b+MoFp8WZ8mv4cWzPJ4Sd7y/oxpu9pIUx1tFlXqTTkh2lXSVsGZoT+K5sPwhHfjhttaI+LBkM6vCEHVwaCLELdN0lLAuoRyLA/6y4riKME6kjNpoIQJKVlNYuNTPGpw3bCx/JaxLKjZ7JOMovpgtOtg8PXslrdRKDPw3Owa+izntJomciOhzZXTWsNVBJaxraEuvpX3bDeLdMT0rQhHAJBsoizbqs5qjbOe3unpiyEJywr4R49FwZpIPEMbtSufXt8JEIm66SlYARPTLGl7s2hwBrwteLawFWyHeo/OR8agAAAjeSURBVOHMl0DQq4xGL2zNc3EsktGEi05W/L4jIuz7KDaphLVEiWMP7uNbxBJdvAjl0dCMuMT7Z4at718ClPhBlWL+I3p/h6Dty/WghHWLWg1b273YiwVySs9dghe+FKwou3aayLzxDhGsS6iIxMwzUc0xUcK6RTtm19HRBJTe4pAfIBCb8G9EbpacJz157amEH4oWEDo5+gH0fFpU6sNKqdxFSqXgCPkSjF/pMTGZkszeU3wNCHvJekTT6iMC9R6cnvWy9oOqhZVAh2INdVhqcREdlgnehPzYaAKxeW1SpPiquSWFCId5kNRlQSphJVTrIvizrkPB/q0S0v5m59ePCWGKvtm0uge8jrE0DBMTAHDg9OR9R6Tx0T+odBSSf1MJK+EWm1WH5NpZPyTsEk2z6VER2pvd/vtoFpVyIZPj3731lwS4J91XxSkyldPRTtbHuZSQL2yuhJUCxckxgMpMWoV7qYdhYuJCtrhO/3ovUdlTiPpK02Gr9joGopovyrbEiymOLvopYaVEMbaqDimXP2nOMVzsdC3DxVuXUcwmc/HZ50uz9nwM0I6q5rqDMsU+MV81thLWKoQW/D32oNI0kEysLsBeGc/fx0BeMx/V85gsqrk8OVWm2u3vpJFvaG2VsAwlEu2z4oZ4/H1kFEhe7J/6c2P96RiwEWvgJzvU7xLshORAN1E1JSwT1GZ9lLSWgzf1d8Eh3zaVYfw5NOtrQlL37j4mwEaMN37XJePiiS2LreKsqxKWBZRFvjlMCxv7vYDgEJGOSgSHD7r9z2nHsG3/Z7P2eIxQZ5IqVH0q4X6ry3JXwrLcBUpa5gCyFQYAbIlN/3sS+4OD+6OzX2xuIZmYCKlKgOyv2eL/LhRBXRJJDH4rJSzzPbawp5KWY0Bnw80JLeHoW1Hd5iVc9G3N2G+1hhf10I7jNktTC8sGvUt9Yy365wgeHSYHBGKs56+E5UCRplHQG384GEqHUATcIGD5Oo2bSbgfRQnLAaYal+UARB3CGQLst6qMzuo2fkBnk3E8kBKWA0CLmBjtADYdwgMCMfqt1OnuWFEGre0/pCfEOoZEh8sBgdjJiiFVC8tSsYpU4M8SKu3uEYEikJUSlgMFKlpxPweQ6RCOESgKWSlhOVAc9V85AFGHMEagSGSlhGWsJl87qv/KAYg6hBECRSMrJSwjNfnaSeOvLAHU7sYIFJGslLCM1WXaUR3ulgBqdyMEikpWSlhG6vK1kzrcLQHU7kYIxFIqxmTxGtZggtqsz7C5vQ8ILy2G0K6KQGIE2LIqEzSK/PyaElZidbnZUBOeLcDTrqkQ4Jdu1uC8EVPlhVQAzBorYZmgNuujhGUBnnZNjEDMuYGJQVDCSgvVAgtLU3LsQdQRbkcg0qoLpmJXC8sUOQAYtrbJort2VQRWkBW8qnSP9xWmrwgoYVlogxKWBXjadSkC6q9arhxKWBYbRwnLAjztugyBj5uno90Ya1m5ELkSliGK0wc38XfD7tpNEbiJAOkRcJVaKGGtQmjJ3zXK3RA47bYUgTKcPyp62MIq9VDCWoWQEpYhQtotLQKlMT0pclBoEryUsJKgtKCNWliGwGm3pQhsno6+Ud/V7QqihGWxgdTpbgGedr2BQKVzrPtxhV4oQBYbRwnLAjztqoRloANKWAagzbsoYVmAp12vIBDbk/K+xKuEZYGsEpYFeNr1OmF9rnb7dYVFfVjedGDQrB0h4g/ePqADFwgBelPp9NsFWrDRUtXCMoJt2kmrNViAp12vIFDkonxpVEEJKw1a19rqizkW4GnXKwjcGdPDjZ/6JwqLHgm96cCwVWsD4GtvH9CBC4EAJztXO8dbhVis5SLVwrIA8EurtkuA7yyGCKsrwSueEAHtqm8uQ9FozavEYCthJYbqZsNYot0XlTPhJ8z+vLfeIMAGEdURsWIBlXa9BQEEerHZ6R8oSKsRUMJajdGtLcSHNhC83RyN2qtSQibkjNggoB1EfGwJm3a/hICm5CRXByWs5FgtbCk1tIEDFcsEe6bJtjMC2wGEulpg5kqkAaPpsFPCSofXjdbDZu0AEJ9bDpNZd34qCgHbrkvvcn2wc4CtcQnqALhDRFvqB0sgVq2BlQCkr02UsFLBdbOxKMc70fvN0dnequOfJSRXuv+n9X87NC5Xx4g7gFSdkVkVAPhoWXi/mB4H02mbElY6vG60FlF5lOj9HYJ2qHE+c+tsDi6VYIsAEl7ziw4r+VjpHDcsVbBQ3ZWwHIh70No+QYBvHQzldojAicrFYiW/vq0F+9JrgBJWesyC9mNNfFQI+3fGcBCqReUA8itDSEyR0mBRMy1QwjLD7UqvL83vGoTlDw6GMh6CiD6XEA6KGM/DMWPDjfUTST4xjb0yU3UlLDPcblpZOTyqyr/SCHRQJGtqmbjYuX9O5UMJpKXWlfmmU8Iyx+5Kz6zCGzhuBxF6Zbjo6QsrV4Unh7S0lIzptlPCMkXuWj9fx8KJFUV0iAiH/xjDYVH8UqZiCZ201Loyley0nxKWHX5Xnb+Wt4XTIx4cAdBRaQyH98/OjrKMmXIIRa5DhUxa6ruyUw0lLDv8rh4LF5Sb4Vs7mJDQ138IeARIA/7/MDFh6WKgxzuHggCACWnBWi+kcBNNw7GXsRKWPYY6QqAIzG4Pe6Eka2vclb2iKGHZY6gjBI5AEIUWCd5Wusd7gUMV/PSUsIIXkU7QBQJcXeKihAd5HBHZLVAZnW2pP9JekkpY9hjqCEIQ4CPil42NNiC8zHLKehR0h7YSljssdSQhCGRqbelR0KlWKGE5hVMHk4TAsLm9R0BtX9HxfCtYGZ3V9SjoTiuUsNxhqSMJRGByTLy3vkcEey6Ji/1Wa3hR13AVt0qhhOUWTx1NKAIz/9YuIey5cMzrw6h+FEEJyw+uOqpgBGZpVrsA8NRsGZoraIbb6l5KWKsx0hYFRWBSTXb6UlDydxr1jUGv2qKE5RVeHTwWBObkddsrQVyTrNrt12NZc4jrUMIKUSo6p+AR4FzFC1qrA9DOrP58VW8E/Yvt/wGoTvdZPFmeJwAAAABJRU5ErkJggg==;" vertex="1" parent="1">
          <mxGeometry x="709" y="339" width="46" height="46" as="geometry" />
        </mxCell>
      </root>
    </mxGraphModel>
  </diagram>
</mxfile>
